solid Bottom 
facet normal 0.0 0.0 -1.0
outer loop
vertex -1.93185165257814 0.517638090205042 0.0
vertex -1.93185165257814 -0.517638090205041 0.0
vertex -2.0 2.44929359829471e-16 0.0
endloop
endfacet
facet normal 0.0 0.0 -1.0
outer loop
vertex -1.93185165257814 -0.517638090205041 0.0
vertex -1.93185165257814 0.517638090205042 0.0
vertex -1.73205080756888 -1.0 0.0
endloop
endfacet
facet normal 0.0 0.0 -1.0
outer loop
vertex -1.73205080756888 -1.0 0.0
vertex -1.93185165257814 0.517638090205042 0.0
vertex -1.73205080756888 1.0 0.0
endloop
endfacet
facet normal 0.0 0.0 -1.0
outer loop
vertex -1.73205080756888 -1.0 0.0
vertex -1.73205080756888 1.0 0.0
vertex -1.4142135623731 -1.41421356237309 0.0
endloop
endfacet
facet normal 0.0 0.0 -1.0
outer loop
vertex -1.4142135623731 -1.41421356237309 0.0
vertex -1.73205080756888 1.0 0.0
vertex -1.41421356237309 1.4142135623731 0.0
endloop
endfacet
facet normal 0.0 0.0 -1.0
outer loop
vertex -1.4142135623731 -1.41421356237309 0.0
vertex -1.41421356237309 1.4142135623731 0.0
vertex -1.0 -1.73205080756888 0.0
endloop
endfacet
facet normal 0.0 0.0 -1.0
outer loop
vertex -1.0 -1.73205080756888 0.0
vertex -1.41421356237309 1.4142135623731 0.0
vertex -1.0 1.73205080756888 0.0
endloop
endfacet
facet normal 0.0 0.0 -1.0
outer loop
vertex -1.0 -1.73205080756888 0.0
vertex -1.0 1.73205080756888 0.0
vertex -0.517638090205043 -1.93185165257814 0.0
endloop
endfacet
facet normal 0.0 0.0 -1.0
outer loop
vertex -0.517638090205043 -1.93185165257814 0.0
vertex -1.0 1.73205080756888 0.0
vertex -0.517638090205041 1.93185165257814 0.0
endloop
endfacet
facet normal 0.0 0.0 -1.0
outer loop
vertex -0.517638090205043 -1.93185165257814 0.0
vertex -0.517638090205041 1.93185165257814 0.0
vertex -3.67394039744206e-16 -2.0 0.0
endloop
endfacet
facet normal 0.0 0.0 -1.0
outer loop
vertex -3.67394039744206e-16 -2.0 0.0
vertex -0.517638090205041 1.93185165257814 0.0
vertex 1.22464679914735e-16 2.0 0.0
endloop
endfacet
facet normal 0.0 0.0 -1.0
outer loop
vertex -3.67394039744206e-16 -2.0 0.0
vertex 1.22464679914735e-16 2.0 0.0
vertex 0.517638090205041 -1.93185165257814 0.0
endloop
endfacet
facet normal 0.0 0.0 -1.0
outer loop
vertex 0.517638090205041 -1.93185165257814 0.0
vertex 1.22464679914735e-16 2.0 0.0
vertex 0.517638090205042 1.93185165257814 0.0
endloop
endfacet
facet normal 0.0 0.0 -1.0
outer loop
vertex 0.517638090205041 -1.93185165257814 0.0
vertex 0.517638090205042 1.93185165257814 0.0
vertex 0.999999999999999 -1.73205080756888 0.0
endloop
endfacet
facet normal 0.0 0.0 -1.0
outer loop
vertex 0.999999999999999 -1.73205080756888 0.0
vertex 0.517638090205042 1.93185165257814 0.0
vertex 1.0 1.73205080756888 0.0
endloop
endfacet
facet normal 0.0 0.0 -1.0
outer loop
vertex 0.999999999999999 -1.73205080756888 0.0
vertex 1.0 1.73205080756888 0.0
vertex 1.41421356237309 -1.4142135623731 0.0
endloop
endfacet
facet normal 0.0 0.0 -1.0
outer loop
vertex 1.41421356237309 -1.4142135623731 0.0
vertex 1.0 1.73205080756888 0.0
vertex 1.4142135623731 1.41421356237309 0.0
endloop
endfacet
facet normal 0.0 0.0 -1.0
outer loop
vertex 1.41421356237309 -1.4142135623731 0.0
vertex 1.4142135623731 1.41421356237309 0.0
vertex 1.73205080756888 -1.0 0.0
endloop
endfacet
facet normal 0.0 0.0 -1.0
outer loop
vertex 1.73205080756888 -1.0 0.0
vertex 1.4142135623731 1.41421356237309 0.0
vertex 1.73205080756888 1.0 0.0
endloop
endfacet
facet normal 0.0 0.0 -1.0
outer loop
vertex 1.73205080756888 -1.0 0.0
vertex 1.73205080756888 1.0 0.0
vertex 1.93185165257814 -0.517638090205043 0.0
endloop
endfacet
facet normal 0.0 0.0 -1.0
outer loop
vertex 1.93185165257814 -0.517638090205043 0.0
vertex 1.73205080756888 1.0 0.0
vertex 1.93185165257814 0.517638090205041 0.0
endloop
endfacet
facet normal 0.0 0.0 -1.0
outer loop
vertex 1.93185165257814 -0.517638090205043 0.0
vertex 1.93185165257814 0.517638090205041 0.0
vertex 2.0 0.0 0.0
endloop
endfacet
facet normal -0.0 -0.0 1.0
outer loop
vertex -1.93185165257814 -0.517638090205041 0.12
vertex -1.93185165257814 0.517638090205042 0.12
vertex -2.0 2.44929359829471e-16 0.12
endloop
endfacet
facet normal -0.0 -0.0 1.0
outer loop
vertex -1.93185165257814 0.517638090205042 0.12
vertex -1.93185165257814 -0.517638090205041 0.12
vertex -1.73205080756888 -1.0 0.12
endloop
endfacet
facet normal -0.0 -0.0 1.0
outer loop
vertex -1.93185165257814 0.517638090205042 0.12
vertex -1.73205080756888 -1.0 0.12
vertex -1.73205080756888 1.0 0.12
endloop
endfacet
facet normal -0.0 -0.0 1.0
outer loop
vertex -1.73205080756888 1.0 0.12
vertex -1.73205080756888 -1.0 0.12
vertex -1.4142135623731 -1.41421356237309 0.12
endloop
endfacet
facet normal -0.0 -0.0 1.0
outer loop
vertex -1.73205080756888 1.0 0.12
vertex -1.4142135623731 -1.41421356237309 0.12
vertex -1.41421356237309 1.4142135623731 0.12
endloop
endfacet
facet normal -0.0 -0.0 1.0
outer loop
vertex -1.41421356237309 1.4142135623731 0.12
vertex -1.4142135623731 -1.41421356237309 0.12
vertex -1.0 -1.73205080756888 0.12
endloop
endfacet
facet normal -0.0 -0.0 1.0
outer loop
vertex -1.41421356237309 1.4142135623731 0.12
vertex -1.0 -1.73205080756888 0.12
vertex -1.0 1.73205080756888 0.12
endloop
endfacet
facet normal -0.0 -0.0 1.0
outer loop
vertex -1.0 1.73205080756888 0.12
vertex -1.0 -1.73205080756888 0.12
vertex -0.517638090205043 -1.93185165257814 0.12
endloop
endfacet
facet normal -0.0 -0.0 1.0
outer loop
vertex -1.0 1.73205080756888 0.12
vertex -0.517638090205043 -1.93185165257814 0.12
vertex -0.517638090205041 1.93185165257814 0.12
endloop
endfacet
facet normal -0.0 -0.0 1.0
outer loop
vertex -0.517638090205041 1.93185165257814 0.12
vertex -0.517638090205043 -1.93185165257814 0.12
vertex -3.67394039744206e-16 -2.0 0.12
endloop
endfacet
facet normal -0.0 -0.0 1.0
outer loop
vertex -0.517638090205041 1.93185165257814 0.12
vertex -3.67394039744206e-16 -2.0 0.12
vertex 1.22464679914735e-16 2.0 0.12
endloop
endfacet
facet normal -0.0 -0.0 1.0
outer loop
vertex 1.22464679914735e-16 2.0 0.12
vertex -3.67394039744206e-16 -2.0 0.12
vertex 0.517638090205041 -1.93185165257814 0.12
endloop
endfacet
facet normal -0.0 -0.0 1.0
outer loop
vertex 1.22464679914735e-16 2.0 0.12
vertex 0.517638090205041 -1.93185165257814 0.12
vertex 0.517638090205042 1.93185165257814 0.12
endloop
endfacet
facet normal -0.0 -0.0 1.0
outer loop
vertex 0.517638090205042 1.93185165257814 0.12
vertex 0.517638090205041 -1.93185165257814 0.12
vertex 0.999999999999999 -1.73205080756888 0.12
endloop
endfacet
facet normal -0.0 -0.0 1.0
outer loop
vertex 0.517638090205042 1.93185165257814 0.12
vertex 0.999999999999999 -1.73205080756888 0.12
vertex 1.0 1.73205080756888 0.12
endloop
endfacet
facet normal -0.0 -0.0 1.0
outer loop
vertex 1.0 1.73205080756888 0.12
vertex 0.999999999999999 -1.73205080756888 0.12
vertex 1.41421356237309 -1.4142135623731 0.12
endloop
endfacet
facet normal -0.0 -0.0 1.0
outer loop
vertex 1.0 1.73205080756888 0.12
vertex 1.41421356237309 -1.4142135623731 0.12
vertex 1.4142135623731 1.41421356237309 0.12
endloop
endfacet
facet normal -0.0 -0.0 1.0
outer loop
vertex 1.4142135623731 1.41421356237309 0.12
vertex 1.41421356237309 -1.4142135623731 0.12
vertex 1.73205080756888 -1.0 0.12
endloop
endfacet
facet normal -0.0 -0.0 1.0
outer loop
vertex 1.4142135623731 1.41421356237309 0.12
vertex 1.73205080756888 -1.0 0.12
vertex 1.73205080756888 1.0 0.12
endloop
endfacet
facet normal -0.0 -0.0 1.0
outer loop
vertex 1.73205080756888 1.0 0.12
vertex 1.73205080756888 -1.0 0.12
vertex 1.93185165257814 -0.517638090205043 0.12
endloop
endfacet
facet normal -0.0 -0.0 1.0
outer loop
vertex 1.73205080756888 1.0 0.12
vertex 1.93185165257814 -0.517638090205043 0.12
vertex 1.93185165257814 0.517638090205041 0.12
endloop
endfacet
facet normal -0.0 -0.0 1.0
outer loop
vertex 1.93185165257814 0.517638090205041 0.12
vertex 1.93185165257814 -0.517638090205043 0.12
vertex 2.0 0.0 0.12
endloop
endfacet
facet normal -4.45555494782345e-16 -1.0 0.0
outer loop
vertex -3.67394039744206e-16 -2.0 0.12
vertex -0.517638090205043 -1.93185165257814 0.0
vertex -3.67394039744206e-16 -2.0 0.0
endloop
endfacet
facet normal -0.258819045102521 -0.965925826289068 0.0
outer loop
vertex -0.517638090205043 -1.93185165257814 0.0
vertex -3.67394039744206e-16 -2.0 0.12
vertex -0.517638090205043 -1.93185165257814 0.12
endloop
endfacet
facet normal -0.258819045102521 -0.965925826289068 0.0
outer loop
vertex -0.517638090205043 -1.93185165257814 0.12
vertex -1.0 -1.73205080756888 0.0
vertex -0.517638090205043 -1.93185165257814 0.0
endloop
endfacet
facet normal -0.500000000000001 -0.866025403784438 0.0
outer loop
vertex -1.0 -1.73205080756888 0.0
vertex -0.517638090205043 -1.93185165257814 0.12
vertex -1.0 -1.73205080756888 0.12
endloop
endfacet
facet normal -0.500000000000001 -0.866025403784438 0.0
outer loop
vertex -1.0 -1.73205080756888 0.12
vertex -1.4142135623731 -1.41421356237309 0.0
vertex -1.0 -1.73205080756888 0.0
endloop
endfacet
facet normal -0.707106781186548 -0.707106781186547 0.0
outer loop
vertex -1.4142135623731 -1.41421356237309 0.0
vertex -1.0 -1.73205080756888 0.12
vertex -1.4142135623731 -1.41421356237309 0.12
endloop
endfacet
facet normal -0.866025403784439 -0.5 0.0
outer loop
vertex -1.73205080756888 -1.0 0.12
vertex -1.4142135623731 -1.41421356237309 0.0
vertex -1.4142135623731 -1.41421356237309 0.12
endloop
endfacet
facet normal -0.707106781186548 -0.707106781186547 0.0
outer loop
vertex -1.4142135623731 -1.41421356237309 0.0
vertex -1.73205080756888 -1.0 0.12
vertex -1.73205080756888 -1.0 0.0
endloop
endfacet
facet normal -0.965925826289068 -0.25881904510252 0.0
outer loop
vertex -1.93185165257814 -0.517638090205041 0.12
vertex -1.73205080756888 -1.0 0.0
vertex -1.73205080756888 -1.0 0.12
endloop
endfacet
facet normal -0.866025403784439 -0.5 0.0
outer loop
vertex -1.73205080756888 -1.0 0.0
vertex -1.93185165257814 -0.517638090205041 0.12
vertex -1.93185165257814 -0.517638090205041 0.0
endloop
endfacet
facet normal -1.0 3.11888846347642e-16 0.0
outer loop
vertex -2.0 2.44929359829471e-16 0.12
vertex -1.93185165257814 -0.517638090205041 0.0
vertex -1.93185165257814 -0.517638090205041 0.12
endloop
endfacet
facet normal -0.965925826289068 -0.25881904510252 0.0
outer loop
vertex -1.93185165257814 -0.517638090205041 0.0
vertex -2.0 2.44929359829471e-16 0.12
vertex -2.0 2.44929359829471e-16 0.0
endloop
endfacet
facet normal -0.965925826289068 0.258819045102521 0.0
outer loop
vertex -1.93185165257814 0.517638090205042 0.12
vertex -2.0 2.44929359829471e-16 0.0
vertex -2.0 2.44929359829471e-16 0.12
endloop
endfacet
facet normal -1.0 3.11888846347642e-16 0.0
outer loop
vertex -2.0 2.44929359829471e-16 0.0
vertex -1.93185165257814 0.517638090205042 0.12
vertex -1.93185165257814 0.517638090205042 0.0
endloop
endfacet
facet normal -0.866025403784438 0.5 0.0
outer loop
vertex -1.73205080756888 1.0 0.12
vertex -1.93185165257814 0.517638090205042 0.0
vertex -1.93185165257814 0.517638090205042 0.12
endloop
endfacet
facet normal -0.965925826289068 0.258819045102521 0.0
outer loop
vertex -1.93185165257814 0.517638090205042 0.0
vertex -1.73205080756888 1.0 0.12
vertex -1.73205080756888 1.0 0.0
endloop
endfacet
facet normal -0.707106781186547 0.707106781186548 0.0
outer loop
vertex -1.41421356237309 1.4142135623731 0.12
vertex -1.73205080756888 1.0 0.0
vertex -1.73205080756888 1.0 0.12
endloop
endfacet
facet normal -0.866025403784438 0.5 0.0
outer loop
vertex -1.73205080756888 1.0 0.0
vertex -1.41421356237309 1.4142135623731 0.12
vertex -1.41421356237309 1.4142135623731 0.0
endloop
endfacet
facet normal -0.707106781186547 0.707106781186548 0.0
outer loop
vertex -1.41421356237309 1.4142135623731 0.12
vertex -1.0 1.73205080756888 0.0
vertex -1.41421356237309 1.4142135623731 0.0
endloop
endfacet
facet normal -0.5 0.866025403784439 0.0
outer loop
vertex -1.0 1.73205080756888 0.0
vertex -1.41421356237309 1.4142135623731 0.12
vertex -1.0 1.73205080756888 0.12
endloop
endfacet
facet normal -0.5 0.866025403784439 0.0
outer loop
vertex -1.0 1.73205080756888 0.12
vertex -0.517638090205041 1.93185165257814 0.0
vertex -1.0 1.73205080756888 0.0
endloop
endfacet
facet normal -0.258819045102521 0.965925826289068 0.0
outer loop
vertex -0.517638090205041 1.93185165257814 0.0
vertex -1.0 1.73205080756888 0.12
vertex -0.517638090205041 1.93185165257814 0.12
endloop
endfacet
facet normal -0.258819045102521 0.965925826289068 0.0
outer loop
vertex -0.517638090205041 1.93185165257814 0.12
vertex 1.22464679914735e-16 2.0 0.0
vertex -0.517638090205041 1.93185165257814 0.0
endloop
endfacet
facet normal 1.42577758330351e-16 1.0 0.0
outer loop
vertex 1.22464679914735e-16 2.0 0.0
vertex -0.517638090205041 1.93185165257814 0.12
vertex 1.22464679914735e-16 2.0 0.12
endloop
endfacet
facet normal 1.42577758330351e-16 1.0 0.0
outer loop
vertex 1.22464679914735e-16 2.0 0.12
vertex 0.517638090205042 1.93185165257814 0.0
vertex 1.22464679914735e-16 2.0 0.0
endloop
endfacet
facet normal 0.258819045102521 0.965925826289068 0.0
outer loop
vertex 0.517638090205042 1.93185165257814 0.0
vertex 1.22464679914735e-16 2.0 0.12
vertex 0.517638090205042 1.93185165257814 0.12
endloop
endfacet
facet normal 0.258819045102521 0.965925826289068 0.0
outer loop
vertex 0.517638090205042 1.93185165257814 0.12
vertex 1.0 1.73205080756888 0.0
vertex 0.517638090205042 1.93185165257814 0.0
endloop
endfacet
facet normal 0.5 0.866025403784439 0.0
outer loop
vertex 1.0 1.73205080756888 0.0
vertex 0.517638090205042 1.93185165257814 0.12
vertex 1.0 1.73205080756888 0.12
endloop
endfacet
facet normal 0.5 0.866025403784439 0.0
outer loop
vertex 1.0 1.73205080756888 0.12
vertex 1.4142135623731 1.41421356237309 0.0
vertex 1.0 1.73205080756888 0.0
endloop
endfacet
facet normal 0.707106781186547 0.707106781186547 0.0
outer loop
vertex 1.4142135623731 1.41421356237309 0.0
vertex 1.0 1.73205080756888 0.12
vertex 1.4142135623731 1.41421356237309 0.12
endloop
endfacet
facet normal 0.707106781186547 0.707106781186547 0.0
outer loop
vertex 1.4142135623731 1.41421356237309 0.0
vertex 1.73205080756888 1.0 0.12
vertex 1.73205080756888 1.0 0.0
endloop
endfacet
facet normal 0.866025403784439 0.5 0.0
outer loop
vertex 1.73205080756888 1.0 0.12
vertex 1.4142135623731 1.41421356237309 0.0
vertex 1.4142135623731 1.41421356237309 0.12
endloop
endfacet
facet normal 0.866025403784439 0.5 0.0
outer loop
vertex 1.73205080756888 1.0 0.0
vertex 1.93185165257814 0.517638090205041 0.12
vertex 1.93185165257814 0.517638090205041 0.0
endloop
endfacet
facet normal 0.965925826289068 0.258819045102521 0.0
outer loop
vertex 1.93185165257814 0.517638090205041 0.12
vertex 1.73205080756888 1.0 0.0
vertex 1.73205080756888 1.0 0.12
endloop
endfacet
facet normal 0.965925826289068 0.258819045102521 0.0
outer loop
vertex 1.93185165257814 0.517638090205041 0.0
vertex 2.0 0.0 0.12
vertex 2.0 0.0 0.0
endloop
endfacet
facet normal 1.0 -2.3168885728682e-16 0.0
outer loop
vertex 2.0 0.0 0.12
vertex 1.93185165257814 0.517638090205041 0.0
vertex 1.93185165257814 0.517638090205041 0.12
endloop
endfacet
facet normal 1.0 -2.3168885728682e-16 0.0
outer loop
vertex 2.0 0.0 0.0
vertex 1.93185165257814 -0.517638090205043 0.12
vertex 1.93185165257814 -0.517638090205043 0.0
endloop
endfacet
facet normal 0.965925826289068 -0.258819045102521 0.0
outer loop
vertex 1.93185165257814 -0.517638090205043 0.12
vertex 2.0 0.0 0.0
vertex 2.0 0.0 0.12
endloop
endfacet
facet normal 0.965925826289068 -0.258819045102521 0.0
outer loop
vertex 1.93185165257814 -0.517638090205043 0.0
vertex 1.73205080756888 -1.0 0.12
vertex 1.73205080756888 -1.0 0.0
endloop
endfacet
facet normal 0.866025403784438 -0.5 0.0
outer loop
vertex 1.73205080756888 -1.0 0.12
vertex 1.93185165257814 -0.517638090205043 0.0
vertex 1.93185165257814 -0.517638090205043 0.12
endloop
endfacet
facet normal 0.866025403784438 -0.5 0.0
outer loop
vertex 1.73205080756888 -1.0 0.0
vertex 1.41421356237309 -1.4142135623731 0.12
vertex 1.41421356237309 -1.4142135623731 0.0
endloop
endfacet
facet normal 0.707106781186547 -0.707106781186548 0.0
outer loop
vertex 1.41421356237309 -1.4142135623731 0.12
vertex 1.73205080756888 -1.0 0.0
vertex 1.73205080756888 -1.0 0.12
endloop
endfacet
facet normal 0.707106781186547 -0.707106781186548 0.0
outer loop
vertex 1.41421356237309 -1.4142135623731 0.12
vertex 0.999999999999999 -1.73205080756888 0.0
vertex 1.41421356237309 -1.4142135623731 0.0
endloop
endfacet
facet normal 0.499999999999999 -0.866025403784439 0.0
outer loop
vertex 0.999999999999999 -1.73205080756888 0.0
vertex 1.41421356237309 -1.4142135623731 0.12
vertex 0.999999999999999 -1.73205080756888 0.12
endloop
endfacet
facet normal 0.499999999999999 -0.866025403784439 0.0
outer loop
vertex 0.999999999999999 -1.73205080756888 0.12
vertex 0.517638090205041 -1.93185165257814 0.0
vertex 0.999999999999999 -1.73205080756888 0.0
endloop
endfacet
facet normal 0.25881904510252 -0.965925826289068 0.0
outer loop
vertex 0.517638090205041 -1.93185165257814 0.0
vertex 0.999999999999999 -1.73205080756888 0.12
vertex 0.517638090205041 -1.93185165257814 0.12
endloop
endfacet
facet normal 0.25881904510252 -0.965925826289068 0.0
outer loop
vertex 0.517638090205041 -1.93185165257814 0.12
vertex -3.67394039744206e-16 -2.0 0.0
vertex 0.517638090205041 -1.93185165257814 0.0
endloop
endfacet
facet normal -4.45555494782345e-16 -1.0 0.0
outer loop
vertex -3.67394039744206e-16 -2.0 0.0
vertex 0.517638090205041 -1.93185165257814 0.12
vertex -3.67394039744206e-16 -2.0 0.12
endloop
endfacet
endsolid Bottom 
