solid CAP FINAL
facet normal 0.0 0.0 -1.0
outer loop
vertex -1.93185165257814 0.517638090205042 0.0
vertex -1.93185165257814 -0.517638090205041 0.0
vertex -2.0 1.22464679914735e-016 0.0
endloop
endfacet
facet normal 0.0 0.0 -1.0
outer loop
vertex -1.93185165257814 -0.517638090205041 0.0
vertex -1.93185165257814 0.517638090205042 0.0
vertex -1.73205080756888 -1.0 0.0
endloop
endfacet
facet normal 0.0 0.0 -1.0
outer loop
vertex -1.73205080756888 -1.0 0.0
vertex -1.93185165257814 0.517638090205042 0.0
vertex -1.73205080756888 1.0 0.0
endloop
endfacet
facet normal 0.0 0.0 -1.0
outer loop
vertex -1.73205080756888 -1.0 0.0
vertex -1.73205080756888 1.0 0.0
vertex -1.4142135623731 -1.41421356237309 0.0
endloop
endfacet
facet normal 0.0 0.0 -1.0
outer loop
vertex -1.4142135623731 -1.41421356237309 0.0
vertex -1.73205080756888 1.0 0.0
vertex -1.41421356237309 1.4142135623731 0.0
endloop
endfacet
facet normal 0.0 0.0 -1.0
outer loop
vertex -1.4142135623731 -1.41421356237309 0.0
vertex -1.41421356237309 1.4142135623731 0.0
vertex -1.0 -1.73205080756888 0.0
endloop
endfacet
facet normal 0.0 0.0 -1.0
outer loop
vertex -1.0 -1.73205080756888 0.0
vertex -1.41421356237309 1.4142135623731 0.0
vertex -1.0 1.73205080756888 0.0
endloop
endfacet
facet normal 0.0 0.0 -1.0
outer loop
vertex -1.0 -1.73205080756888 0.0
vertex -1.0 1.73205080756888 0.0
vertex -0.517638090205042 -1.93185165257814 0.0
endloop
endfacet
facet normal 0.0 0.0 -1.0
outer loop
vertex -0.517638090205042 -1.93185165257814 0.0
vertex -1.0 1.73205080756888 0.0
vertex -0.517638090205041 1.93185165257814 0.0
endloop
endfacet
facet normal 0.0 0.0 -1.0
outer loop
vertex -0.517638090205042 -1.93185165257814 0.0
vertex -0.517638090205041 1.93185165257814 0.0
vertex -2.44929359829471e-016 -2.0 0.0
endloop
endfacet
facet normal 0.0 0.0 -1.0
outer loop
vertex -2.44929359829471e-016 -2.0 0.0
vertex -0.517638090205041 1.93185165257814 0.0
vertex 0.0 2.0 0.0
endloop
endfacet
facet normal 0.0 0.0 -1.0
outer loop
vertex -2.44929359829471e-016 -2.0 0.0
vertex 0.0 2.0 0.0
vertex 0.517638090205041 -1.93185165257814 0.0
endloop
endfacet
facet normal 0.0 0.0 -1.0
outer loop
vertex 0.517638090205041 -1.93185165257814 0.0
vertex 0.0 2.0 0.0
vertex 0.517638090205043 1.93185165257814 0.0
endloop
endfacet
facet normal 0.0 0.0 -1.0
outer loop
vertex 0.517638090205041 -1.93185165257814 0.0
vertex 0.517638090205043 1.93185165257814 0.0
vertex 0.999999999999999 -1.73205080756888 0.0
endloop
endfacet
facet normal 0.0 0.0 -1.0
outer loop
vertex 0.999999999999999 -1.73205080756888 0.0
vertex 0.517638090205043 1.93185165257814 0.0
vertex 1.0 1.73205080756888 0.0
endloop
endfacet
facet normal 0.0 0.0 -1.0
outer loop
vertex 0.999999999999999 -1.73205080756888 0.0
vertex 1.0 1.73205080756888 0.0
vertex 1.41421356237309 -1.4142135623731 0.0
endloop
endfacet
facet normal 0.0 0.0 -1.0
outer loop
vertex 1.41421356237309 -1.4142135623731 0.0
vertex 1.0 1.73205080756888 0.0
vertex 1.4142135623731 1.41421356237309 0.0
endloop
endfacet
facet normal 0.0 0.0 -1.0
outer loop
vertex 1.41421356237309 -1.4142135623731 0.0
vertex 1.4142135623731 1.41421356237309 0.0
vertex 1.73205080756888 -1.0 0.0
endloop
endfacet
facet normal 0.0 0.0 -1.0
outer loop
vertex 1.73205080756888 -1.0 0.0
vertex 1.4142135623731 1.41421356237309 0.0
vertex 1.73205080756888 0.999999999999999 0.0
endloop
endfacet
facet normal 0.0 0.0 -1.0
outer loop
vertex 1.73205080756888 -1.0 0.0
vertex 1.73205080756888 0.999999999999999 0.0
vertex 1.93185165257814 -0.517638090205043 0.0
endloop
endfacet
facet normal 0.0 0.0 -1.0
outer loop
vertex 1.93185165257814 -0.517638090205043 0.0
vertex 1.73205080756888 0.999999999999999 0.0
vertex 1.93185165257814 0.517638090205041 0.0
endloop
endfacet
facet normal 0.0 0.0 -1.0
outer loop
vertex 1.93185165257814 -0.517638090205043 0.0
vertex 1.93185165257814 0.517638090205041 0.0
vertex 2.0 -3.67394039744206e-016 0.0
endloop
endfacet
facet normal 0.0 0.0 1.0
outer loop
vertex -1.93185165257814 -0.517638090205041 0.25
vertex -1.93185165257814 0.517638090205042 0.25
vertex -2.0 1.22464679914735e-016 0.25
endloop
endfacet
facet normal 0.0 0.0 1.0
outer loop
vertex -1.93185165257814 0.517638090205042 0.25
vertex -1.93185165257814 -0.517638090205041 0.25
vertex -1.82685899878347 -0.422150682297056 0.25
endloop
endfacet
facet normal 0.0 0.0 1.0
outer loop
vertex -1.82685899878347 -0.422150682297056 0.25
vertex -1.93185165257814 -0.517638090205041 0.25
vertex -1.73205080756888 -1.0 0.25
endloop
endfacet
facet normal 0.0 0.0 1.0
outer loop
vertex -1.93185165257814 0.517638090205042 0.25
vertex -1.82685899878347 -0.422150682297056 0.25
vertex -1.87387092439504 0.0650596549858058 0.25
endloop
endfacet
facet normal 0.0 0.0 1.0
outer loop
vertex -1.82685899878347 -0.422150682297056 0.25
vertex -1.73205080756888 -1.0 0.25
vertex -1.65534965143204 -0.880592148218362 0.25
endloop
endfacet
facet normal 0.0 0.0 1.0
outer loop
vertex -1.65534965143204 -0.880592148218362 0.25
vertex -1.73205080756888 -1.0 0.25
vertex -1.4142135623731 -1.41421356237309 0.25
endloop
endfacet
facet normal 0.0 0.0 1.0
outer loop
vertex -1.65534965143204 -0.880592148218362 0.25
vertex -1.4142135623731 -1.41421356237309 0.25
vertex -1.37103096093016 -1.27902271448592 0.25
endloop
endfacet
facet normal 0.0 0.0 1.0
outer loop
vertex -1.37103096093016 -1.27902271448592 0.25
vertex -1.4142135623731 -1.41421356237309 0.25
vertex -1.0 -1.73205080756888 0.25
endloop
endfacet
facet normal 0.0 0.0 1.0
outer loop
vertex -1.37103096093016 -1.27902271448592 0.25
vertex -1.0 -1.73205080756888 0.25
vertex -0.99327877617668 -1.59028999644623 0.25
endloop
endfacet
facet normal 0.0 0.0 1.0
outer loop
vertex -0.99327877617668 -1.59028999644623 0.25
vertex -1.0 -1.73205080756888 0.25
vertex -0.517638090205042 -1.93185165257814 0.25
endloop
endfacet
facet normal 0.0 0.0 1.0
outer loop
vertex -0.99327877617668 -1.59028999644623 0.25
vertex -0.517638090205042 -1.93185165257814 0.25
vertex -0.54783628429755 -1.79318164322721 0.25
endloop
endfacet
facet normal 0.0 0.0 1.0
outer loop
vertex -0.54783628429755 -1.79318164322721 0.25
vertex -0.517638090205042 -1.93185165257814 0.25
vertex -0.0650596549858066 -1.87387092439504 0.25
endloop
endfacet
facet normal 0.0 0.0 1.0
outer loop
vertex -0.0650596549858066 -1.87387092439504 0.25
vertex -0.517638090205042 -1.93185165257814 0.25
vertex -2.44929359829471e-016 -2.0 0.25
endloop
endfacet
facet normal 0.0 0.0 1.0
outer loop
vertex -0.0650596549858066 -1.87387092439504 0.25
vertex -2.44929359829471e-016 -2.0 0.25
vertex 0.422150682297056 -1.82685899878347 0.25
endloop
endfacet
facet normal 0.0 0.0 1.0
outer loop
vertex 0.422150682297056 -1.82685899878347 0.25
vertex -2.44929359829471e-016 -2.0 0.25
vertex 0.517638090205041 -1.93185165257814 0.25
endloop
endfacet
facet normal 0.0 0.0 1.0
outer loop
vertex 0.422150682297056 -1.82685899878347 0.25
vertex 0.517638090205041 -1.93185165257814 0.25
vertex 0.880592148218361 -1.65534965143204 0.25
endloop
endfacet
facet normal 0.0 0.0 1.0
outer loop
vertex 0.880592148218361 -1.65534965143204 0.25
vertex 0.517638090205041 -1.93185165257814 0.25
vertex 0.999999999999999 -1.73205080756888 0.25
endloop
endfacet
facet normal 0.0 0.0 1.0
outer loop
vertex 0.880592148218361 -1.65534965143204 0.25
vertex 0.999999999999999 -1.73205080756888 0.25
vertex 1.27902271448592 -1.37103096093016 0.25
endloop
endfacet
facet normal 0.0 0.0 1.0
outer loop
vertex 1.27902271448592 -1.37103096093016 0.25
vertex 0.999999999999999 -1.73205080756888 0.25
vertex 1.41421356237309 -1.4142135623731 0.25
endloop
endfacet
facet normal 0.0 0.0 1.0
outer loop
vertex 1.27902271448592 -1.37103096093016 0.25
vertex 1.41421356237309 -1.4142135623731 0.25
vertex 1.59028999644623 -0.993278776176681 0.25
endloop
endfacet
facet normal 0.0 0.0 1.0
outer loop
vertex 1.59028999644623 -0.993278776176681 0.25
vertex 1.41421356237309 -1.4142135623731 0.25
vertex 1.73205080756888 -1.0 0.25
endloop
endfacet
facet normal 0.0 0.0 1.0
outer loop
vertex 1.59028999644623 -0.993278776176681 0.25
vertex 1.73205080756888 -1.0 0.25
vertex 1.79318164322722 -0.54783628429755 0.25
endloop
endfacet
facet normal 0.0 0.0 1.0
outer loop
vertex 1.79318164322722 -0.54783628429755 0.25
vertex 1.73205080756888 -1.0 0.25
vertex 1.93185165257814 -0.517638090205043 0.25
endloop
endfacet
facet normal 0.0 0.0 1.0
outer loop
vertex 1.79318164322722 -0.54783628429755 0.25
vertex 1.93185165257814 -0.517638090205043 0.25
vertex 1.87387092439504 -0.0650596549858068 0.25
endloop
endfacet
facet normal 0.0 0.0 1.0
outer loop
vertex -1.87387092439504 0.0650596549858058 0.25
vertex -1.73205080756888 1.0 0.25
vertex -1.93185165257814 0.517638090205042 0.25
endloop
endfacet
facet normal 0.0 0.0 1.0
outer loop
vertex -1.73205080756888 1.0 0.25
vertex -1.87387092439504 0.0650596549858058 0.25
vertex -1.79318164322722 0.54783628429755 0.25
endloop
endfacet
facet normal 0.0 0.0 1.0
outer loop
vertex -1.73205080756888 1.0 0.25
vertex -1.79318164322722 0.54783628429755 0.25
vertex -1.59028999644623 0.99327877617668 0.25
endloop
endfacet
facet normal 0.0 0.0 1.0
outer loop
vertex -1.73205080756888 1.0 0.25
vertex -1.59028999644623 0.99327877617668 0.25
vertex -1.41421356237309 1.4142135623731 0.25
endloop
endfacet
facet normal 0.0 0.0 1.0
outer loop
vertex -1.41421356237309 1.4142135623731 0.25
vertex -1.59028999644623 0.99327877617668 0.25
vertex -1.27902271448592 1.37103096093016 0.25
endloop
endfacet
facet normal 0.0 0.0 1.0
outer loop
vertex -1.41421356237309 1.4142135623731 0.25
vertex -1.27902271448592 1.37103096093016 0.25
vertex -1.0 1.73205080756888 0.25
endloop
endfacet
facet normal 0.0 0.0 1.0
outer loop
vertex -1.0 1.73205080756888 0.25
vertex -1.27902271448592 1.37103096093016 0.25
vertex -0.880592148218362 1.65534965143204 0.25
endloop
endfacet
facet normal 0.0 0.0 1.0
outer loop
vertex -1.0 1.73205080756888 0.25
vertex -0.880592148218362 1.65534965143204 0.25
vertex -0.517638090205041 1.93185165257814 0.25
endloop
endfacet
facet normal 0.0 0.0 1.0
outer loop
vertex -0.517638090205041 1.93185165257814 0.25
vertex -0.880592148218362 1.65534965143204 0.25
vertex -0.422150682297056 1.82685899878347 0.25
endloop
endfacet
facet normal 0.0 0.0 1.0
outer loop
vertex -0.517638090205041 1.93185165257814 0.25
vertex -0.422150682297056 1.82685899878347 0.25
vertex 0.0 2.0 0.25
endloop
endfacet
facet normal 0.0 0.0 1.0
outer loop
vertex 0.0 2.0 0.25
vertex -0.422150682297056 1.82685899878347 0.25
vertex 0.0650596549858056 1.87387092439504 0.25
endloop
endfacet
facet normal 0.0 0.0 1.0
outer loop
vertex 0.0 2.0 0.25
vertex 0.0650596549858056 1.87387092439504 0.25
vertex 0.517638090205043 1.93185165257814 0.25
endloop
endfacet
facet normal 0.0 0.0 1.0
outer loop
vertex 0.517638090205043 1.93185165257814 0.25
vertex 0.0650596549858056 1.87387092439504 0.25
vertex 0.54783628429755 1.79318164322721 0.25
endloop
endfacet
facet normal 0.0 0.0 1.0
outer loop
vertex 0.517638090205043 1.93185165257814 0.25
vertex 0.54783628429755 1.79318164322721 0.25
vertex 1.0 1.73205080756888 0.25
endloop
endfacet
facet normal 0.0 0.0 1.0
outer loop
vertex 1.0 1.73205080756888 0.25
vertex 0.54783628429755 1.79318164322721 0.25
vertex 0.993278776176681 1.59028999644623 0.25
endloop
endfacet
facet normal 0.0 0.0 1.0
outer loop
vertex 1.0 1.73205080756888 0.25
vertex 0.993278776176681 1.59028999644623 0.25
vertex 1.37103096093016 1.27902271448592 0.25
endloop
endfacet
facet normal 0.0 0.0 1.0
outer loop
vertex 1.0 1.73205080756888 0.25
vertex 1.37103096093016 1.27902271448592 0.25
vertex 1.4142135623731 1.41421356237309 0.25
endloop
endfacet
facet normal 0.0 0.0 1.0
outer loop
vertex 1.4142135623731 1.41421356237309 0.25
vertex 1.37103096093016 1.27902271448592 0.25
vertex 1.65534965143204 0.880592148218361 0.25
endloop
endfacet
facet normal 0.0 0.0 1.0
outer loop
vertex 1.4142135623731 1.41421356237309 0.25
vertex 1.65534965143204 0.880592148218361 0.25
vertex 1.73205080756888 0.999999999999999 0.25
endloop
endfacet
facet normal 0.0 0.0 1.0
outer loop
vertex 1.73205080756888 0.999999999999999 0.25
vertex 1.65534965143204 0.880592148218361 0.25
vertex 1.82685899878347 0.422150682297055 0.25
endloop
endfacet
facet normal 0.0 0.0 1.0
outer loop
vertex 1.73205080756888 0.999999999999999 0.25
vertex 1.82685899878347 0.422150682297055 0.25
vertex 1.93185165257814 0.517638090205041 0.25
endloop
endfacet
facet normal 0.0 0.0 1.0
outer loop
vertex 1.93185165257814 0.517638090205041 0.25
vertex 1.82685899878347 0.422150682297055 0.25
vertex 1.87387092439504 -0.0650596549858068 0.25
endloop
endfacet
facet normal 0.0 0.0 1.0
outer loop
vertex 1.93185165257814 0.517638090205041 0.25
vertex 1.87387092439504 -0.0650596549858068 0.25
vertex 1.93185165257814 -0.517638090205043 0.25
endloop
endfacet
facet normal 0.0 0.0 1.0
outer loop
vertex 1.93185165257814 0.517638090205041 0.25
vertex 1.93185165257814 -0.517638090205043 0.25
vertex 2.0 -3.67394039744206e-016 0.25
endloop
endfacet
facet normal -0.258819045102521 0.965925826289068 0.0
outer loop
vertex -0.517638090205041 1.93185165257814 0.25
vertex 0.0 2.0 0.0
vertex -0.517638090205041 1.93185165257814 0.0
endloop
endfacet
facet normal 2.13866637495526e-016 1.0 0.0
outer loop
vertex 0.0 2.0 0.0
vertex -0.517638090205041 1.93185165257814 0.25
vertex 0.0 2.0 0.25
endloop
endfacet
facet normal 2.13866637495526e-016 1.0 0.0
outer loop
vertex 0.0 2.0 0.25
vertex 0.517638090205043 1.93185165257814 0.0
vertex 0.0 2.0 0.0
endloop
endfacet
facet normal 0.258819045102521 0.965925826289068 0.0
outer loop
vertex 0.517638090205043 1.93185165257814 0.0
vertex 0.0 2.0 0.25
vertex 0.517638090205043 1.93185165257814 0.25
endloop
endfacet
facet normal 0.258819045102521 0.965925826289068 0.0
outer loop
vertex 0.517638090205043 1.93185165257814 0.25
vertex 1.0 1.73205080756888 0.0
vertex 0.517638090205043 1.93185165257814 0.0
endloop
endfacet
facet normal 0.5 0.866025403784438 0.0
outer loop
vertex 1.0 1.73205080756888 0.0
vertex 0.517638090205043 1.93185165257814 0.25
vertex 1.0 1.73205080756888 0.25
endloop
endfacet
facet normal 0.5 0.866025403784438 0.0
outer loop
vertex 1.0 1.73205080756888 0.25
vertex 1.4142135623731 1.41421356237309 0.0
vertex 1.0 1.73205080756888 0.0
endloop
endfacet
facet normal 0.707106781186548 0.707106781186547 0.0
outer loop
vertex 1.4142135623731 1.41421356237309 0.0
vertex 1.0 1.73205080756888 0.25
vertex 1.4142135623731 1.41421356237309 0.25
endloop
endfacet
facet normal 0.707106781186548 0.707106781186547 0.0
outer loop
vertex 1.4142135623731 1.41421356237309 0.0
vertex 1.73205080756888 0.999999999999999 0.25
vertex 1.73205080756888 0.999999999999999 0.0
endloop
endfacet
facet normal 0.866025403784439 0.5 0.0
outer loop
vertex 1.73205080756888 0.999999999999999 0.25
vertex 1.4142135623731 1.41421356237309 0.0
vertex 1.4142135623731 1.41421356237309 0.25
endloop
endfacet
facet normal 0.866025403784439 0.5 0.0
outer loop
vertex 1.73205080756888 0.999999999999999 0.0
vertex 1.93185165257814 0.517638090205041 0.25
vertex 1.93185165257814 0.517638090205041 0.0
endloop
endfacet
facet normal 0.965925826289068 0.25881904510252 0.0
outer loop
vertex 1.93185165257814 0.517638090205041 0.25
vertex 1.73205080756888 0.999999999999999 0.0
vertex 1.73205080756888 0.999999999999999 0.25
endloop
endfacet
facet normal 0.965925826289068 0.25881904510252 0.0
outer loop
vertex 1.93185165257814 0.517638090205041 0.0
vertex 2.0 -3.67394039744206e-016 0.25
vertex 2.0 -3.67394039744206e-016 0.0
endloop
endfacet
facet normal 1.0 -4.36644384886698e-016 0.0
outer loop
vertex 2.0 -3.67394039744206e-016 0.25
vertex 1.93185165257814 0.517638090205041 0.0
vertex 1.93185165257814 0.517638090205041 0.25
endloop
endfacet
facet normal 1.0 -4.36644384886698e-016 0.0
outer loop
vertex 2.0 -3.67394039744206e-016 0.0
vertex 1.93185165257814 -0.517638090205043 0.25
vertex 1.93185165257814 -0.517638090205043 0.0
endloop
endfacet
facet normal 0.965925826289068 -0.258819045102521 0.0
outer loop
vertex 1.93185165257814 -0.517638090205043 0.25
vertex 2.0 -3.67394039744206e-016 0.0
vertex 2.0 -3.67394039744206e-016 0.25
endloop
endfacet
facet normal 0.965925826289068 -0.258819045102521 0.0
outer loop
vertex 1.93185165257814 -0.517638090205043 0.0
vertex 1.73205080756888 -1.0 0.25
vertex 1.73205080756888 -1.0 0.0
endloop
endfacet
facet normal 0.866025403784438 -0.500000000000001 0.0
outer loop
vertex 1.73205080756888 -1.0 0.25
vertex 1.93185165257814 -0.517638090205043 0.0
vertex 1.93185165257814 -0.517638090205043 0.25
endloop
endfacet
facet normal 0.866025403784438 -0.500000000000001 0.0
outer loop
vertex 1.73205080756888 -1.0 0.0
vertex 1.41421356237309 -1.4142135623731 0.25
vertex 1.41421356237309 -1.4142135623731 0.0
endloop
endfacet
facet normal 0.707106781186547 -0.707106781186548 0.0
outer loop
vertex 1.41421356237309 -1.4142135623731 0.25
vertex 1.73205080756888 -1.0 0.0
vertex 1.73205080756888 -1.0 0.25
endloop
endfacet
facet normal 0.707106781186547 -0.707106781186548 0.0
outer loop
vertex 1.41421356237309 -1.4142135623731 0.25
vertex 0.999999999999999 -1.73205080756888 0.0
vertex 1.41421356237309 -1.4142135623731 0.0
endloop
endfacet
facet normal 0.5 -0.866025403784439 0.0
outer loop
vertex 0.999999999999999 -1.73205080756888 0.0
vertex 1.41421356237309 -1.4142135623731 0.25
vertex 0.999999999999999 -1.73205080756888 0.25
endloop
endfacet
facet normal 0.5 -0.866025403784439 0.0
outer loop
vertex 0.999999999999999 -1.73205080756888 0.25
vertex 0.517638090205041 -1.93185165257814 0.0
vertex 0.999999999999999 -1.73205080756888 0.0
endloop
endfacet
facet normal 0.25881904510252 -0.965925826289068 0.0
outer loop
vertex 0.517638090205041 -1.93185165257814 0.0
vertex 0.999999999999999 -1.73205080756888 0.25
vertex 0.517638090205041 -1.93185165257814 0.25
endloop
endfacet
facet normal 0.25881904510252 -0.965925826289068 0.0
outer loop
vertex 0.517638090205041 -1.93185165257814 0.25
vertex -2.44929359829471e-016 -2.0 0.0
vertex 0.517638090205041 -1.93185165257814 0.0
endloop
endfacet
facet normal -3.20799956243289e-016 -1.0 0.0
outer loop
vertex -2.44929359829471e-016 -2.0 0.0
vertex 0.517638090205041 -1.93185165257814 0.25
vertex -2.44929359829471e-016 -2.0 0.25
endloop
endfacet
facet normal -3.20799956243289e-016 -1.0 0.0
outer loop
vertex -2.44929359829471e-016 -2.0 0.25
vertex -0.517638090205042 -1.93185165257814 0.0
vertex -2.44929359829471e-016 -2.0 0.0
endloop
endfacet
facet normal -0.258819045102521 -0.965925826289068 0.0
outer loop
vertex -0.517638090205042 -1.93185165257814 0.0
vertex -2.44929359829471e-016 -2.0 0.25
vertex -0.517638090205042 -1.93185165257814 0.25
endloop
endfacet
facet normal -0.258819045102521 -0.965925826289068 0.0
outer loop
vertex -0.517638090205042 -1.93185165257814 0.25
vertex -1.0 -1.73205080756888 0.0
vertex -0.517638090205042 -1.93185165257814 0.0
endloop
endfacet
facet normal -0.5 -0.866025403784439 0.0
outer loop
vertex -1.0 -1.73205080756888 0.0
vertex -0.517638090205042 -1.93185165257814 0.25
vertex -1.0 -1.73205080756888 0.25
endloop
endfacet
facet normal -0.5 -0.866025403784439 0.0
outer loop
vertex -1.0 -1.73205080756888 0.25
vertex -1.4142135623731 -1.41421356237309 0.0
vertex -1.0 -1.73205080756888 0.0
endloop
endfacet
facet normal -0.707106781186548 -0.707106781186547 0.0
outer loop
vertex -1.4142135623731 -1.41421356237309 0.0
vertex -1.0 -1.73205080756888 0.25
vertex -1.4142135623731 -1.41421356237309 0.25
endloop
endfacet
facet normal -0.866025403784439 -0.5 0.0
outer loop
vertex -1.73205080756888 -1.0 0.25
vertex -1.4142135623731 -1.41421356237309 0.0
vertex -1.4142135623731 -1.41421356237309 0.25
endloop
endfacet
facet normal -0.707106781186548 -0.707106781186547 0.0
outer loop
vertex -1.4142135623731 -1.41421356237309 0.0
vertex -1.73205080756888 -1.0 0.25
vertex -1.73205080756888 -1.0 0.0
endloop
endfacet
facet normal -0.965925826289068 -0.258819045102521 0.0
outer loop
vertex -1.93185165257814 -0.517638090205041 0.25
vertex -1.73205080756888 -1.0 0.0
vertex -1.73205080756888 -1.0 0.25
endloop
endfacet
facet normal -0.866025403784439 -0.5 0.0
outer loop
vertex -1.73205080756888 -1.0 0.0
vertex -1.93185165257814 -0.517638090205041 0.25
vertex -1.93185165257814 -0.517638090205041 0.0
endloop
endfacet
facet normal -1.0 1.51488868225997e-016 0.0
outer loop
vertex -2.0 1.22464679914735e-016 0.25
vertex -1.93185165257814 -0.517638090205041 0.0
vertex -1.93185165257814 -0.517638090205041 0.25
endloop
endfacet
facet normal -0.965925826289068 -0.258819045102521 0.0
outer loop
vertex -1.93185165257814 -0.517638090205041 0.0
vertex -2.0 1.22464679914735e-016 0.25
vertex -2.0 1.22464679914735e-016 0.0
endloop
endfacet
facet normal -0.965925826289068 0.258819045102521 0.0
outer loop
vertex -1.93185165257814 0.517638090205042 0.25
vertex -2.0 1.22464679914735e-016 0.0
vertex -2.0 1.22464679914735e-016 0.25
endloop
endfacet
facet normal -1.0 1.51488868225997e-016 0.0
outer loop
vertex -2.0 1.22464679914735e-016 0.0
vertex -1.93185165257814 0.517638090205042 0.25
vertex -1.93185165257814 0.517638090205042 0.0
endloop
endfacet
facet normal -0.866025403784439 0.5 0.0
outer loop
vertex -1.73205080756888 1.0 0.25
vertex -1.93185165257814 0.517638090205042 0.0
vertex -1.93185165257814 0.517638090205042 0.25
endloop
endfacet
facet normal -0.965925826289068 0.258819045102521 0.0
outer loop
vertex -1.93185165257814 0.517638090205042 0.0
vertex -1.73205080756888 1.0 0.25
vertex -1.73205080756888 1.0 0.0
endloop
endfacet
facet normal -0.707106781186547 0.707106781186548 0.0
outer loop
vertex -1.41421356237309 1.4142135623731 0.25
vertex -1.73205080756888 1.0 0.0
vertex -1.73205080756888 1.0 0.25
endloop
endfacet
facet normal -0.866025403784439 0.5 0.0
outer loop
vertex -1.73205080756888 1.0 0.0
vertex -1.41421356237309 1.4142135623731 0.25
vertex -1.41421356237309 1.4142135623731 0.0
endloop
endfacet
facet normal -0.707106781186547 0.707106781186548 0.0
outer loop
vertex -1.41421356237309 1.4142135623731 0.25
vertex -1.0 1.73205080756888 0.0
vertex -1.41421356237309 1.4142135623731 0.0
endloop
endfacet
facet normal -0.5 0.866025403784439 0.0
outer loop
vertex -1.0 1.73205080756888 0.0
vertex -1.41421356237309 1.4142135623731 0.25
vertex -1.0 1.73205080756888 0.25
endloop
endfacet
facet normal -0.5 0.866025403784439 0.0
outer loop
vertex -1.0 1.73205080756888 0.25
vertex -0.517638090205041 1.93185165257814 0.0
vertex -1.0 1.73205080756888 0.0
endloop
endfacet
facet normal -0.258819045102521 0.965925826289068 0.0
outer loop
vertex -0.517638090205041 1.93185165257814 0.0
vertex -1.0 1.73205080756888 0.25
vertex -0.517638090205041 1.93185165257814 0.25
endloop
endfacet
facet normal -0.0 -0.0 1.0
outer loop
vertex -1.65534965143204 -0.880592148218362 0.25
vertex -1.58409369443152 -0.362315011091583 0.25
vertex -1.6238910359101 0.0600241908801198 0.25
endloop
endfacet
facet normal -0.0 -0.0 1.0
outer loop
vertex -1.58409369443152 -0.362315011091583 0.25
vertex -1.65534965143204 -0.880592148218362 0.25
vertex -1.37103096093016 -1.27902271448592 0.25
endloop
endfacet
facet normal -0.0 -0.0 1.0
outer loop
vertex -1.58409369443152 -0.362315011091583 0.25
vertex -1.37103096093016 -1.27902271448592 0.25
vertex -1.43634298551604 -0.759963043811262 0.25
endloop
endfacet
facet normal -0.0 -0.0 1.0
outer loop
vertex -1.43634298551604 -0.759963043811262 0.25
vertex -1.37103096093016 -1.27902271448592 0.25
vertex -1.19070787580665 -1.10582085099351 0.25
endloop
endfacet
facet normal -0.0 -0.0 1.0
outer loop
vertex -1.19070787580665 -1.10582085099351 0.25
vertex -1.37103096093016 -1.27902271448592 0.25
vertex -0.99327877617668 -1.59028999644623 0.25
endloop
endfacet
facet normal -0.0 -0.0 1.0
outer loop
vertex -1.19070787580665 -1.10582085099351 0.25
vertex -0.99327877617668 -1.59028999644623 0.25
vertex -0.863927992098842 -1.37631879463592 0.25
endloop
endfacet
facet normal -0.0 -0.0 1.0
outer loop
vertex -0.863927992098842 -1.37631879463592 0.25
vertex -0.99327877617668 -1.59028999644623 0.25
vertex -0.54783628429755 -1.79318164322721 0.25
endloop
endfacet
facet normal -0.0 -0.0 1.0
outer loop
vertex -0.863927992098842 -1.37631879463592 0.25
vertex -0.54783628429755 -1.79318164322721 0.25
vertex -0.478272843438009 -1.55302288689823 0.25
endloop
endfacet
facet normal -0.0 -0.0 1.0
outer loop
vertex -0.478272843438009 -1.55302288689823 0.25
vertex -0.54783628429755 -1.79318164322721 0.25
vertex -0.0650596549858066 -1.87387092439504 0.25
endloop
endfacet
facet normal -0.0 -0.0 1.0
outer loop
vertex -0.478272843438009 -1.55302288689823 0.25
vertex -0.0650596549858066 -1.87387092439504 0.25
vertex -0.06002419088012 -1.6238910359101 0.25
endloop
endfacet
facet normal -0.0 -0.0 1.0
outer loop
vertex -0.06002419088012 -1.6238910359101 0.25
vertex -0.0650596549858066 -1.87387092439504 0.25
vertex 0.422150682297056 -1.82685899878347 0.25
endloop
endfacet
facet normal -0.0 -0.0 1.0
outer loop
vertex -0.06002419088012 -1.6238910359101 0.25
vertex 0.422150682297056 -1.82685899878347 0.25
vertex 0.362315011091583 -1.58409369443152 0.25
endloop
endfacet
facet normal -0.0 -0.0 1.0
outer loop
vertex 0.362315011091583 -1.58409369443152 0.25
vertex 0.422150682297056 -1.82685899878347 0.25
vertex 0.759963043811261 -1.43634298551604 0.25
endloop
endfacet
facet normal -0.0 -0.0 1.0
outer loop
vertex 0.759963043811261 -1.43634298551604 0.25
vertex 0.422150682297056 -1.82685899878347 0.25
vertex 0.880592148218361 -1.65534965143204 0.25
endloop
endfacet
facet normal -0.0 -0.0 1.0
outer loop
vertex 0.759963043811261 -1.43634298551604 0.25
vertex 0.880592148218361 -1.65534965143204 0.25
vertex 1.10582085099351 -1.19070787580665 0.25
endloop
endfacet
facet normal -0.0 -0.0 1.0
outer loop
vertex 1.10582085099351 -1.19070787580665 0.25
vertex 0.880592148218361 -1.65534965143204 0.25
vertex 1.27902271448592 -1.37103096093016 0.25
endloop
endfacet
facet normal -0.0 -0.0 1.0
outer loop
vertex 1.10582085099351 -1.19070787580665 0.25
vertex 1.27902271448592 -1.37103096093016 0.25
vertex 1.37631879463592 -0.863927992098842 0.25
endloop
endfacet
facet normal -0.0 -0.0 1.0
outer loop
vertex 1.37631879463592 -0.863927992098842 0.25
vertex 1.27902271448592 -1.37103096093016 0.25
vertex 1.59028999644623 -0.993278776176681 0.25
endloop
endfacet
facet normal -0.0 -0.0 1.0
outer loop
vertex 1.37631879463592 -0.863927992098842 0.25
vertex 1.59028999644623 -0.993278776176681 0.25
vertex 1.55302288689823 -0.478272843438009 0.25
endloop
endfacet
facet normal -0.0 -0.0 1.0
outer loop
vertex 1.55302288689823 -0.478272843438009 0.25
vertex 1.59028999644623 -0.993278776176681 0.25
vertex 1.6238910359101 -0.0600241908801204 0.25
endloop
endfacet
facet normal -0.0 -0.0 1.0
outer loop
vertex 1.6238910359101 -0.0600241908801204 0.25
vertex 1.59028999644623 -0.993278776176681 0.25
vertex 1.79318164322722 -0.54783628429755 0.25
endloop
endfacet
facet normal -0.0 -0.0 1.0
outer loop
vertex 1.6238910359101 -0.0600241908801204 0.25
vertex 1.79318164322722 -0.54783628429755 0.25
vertex 1.65534965143204 0.880592148218361 0.25
endloop
endfacet
facet normal -0.0 -0.0 1.0
outer loop
vertex 1.65534965143204 0.880592148218361 0.25
vertex 1.79318164322722 -0.54783628429755 0.25
vertex 1.82685899878347 0.422150682297055 0.25
endloop
endfacet
facet normal -0.0 -0.0 1.0
outer loop
vertex 1.82685899878347 0.422150682297055 0.25
vertex 1.79318164322722 -0.54783628429755 0.25
vertex 1.87387092439504 -0.0650596549858068 0.25
endloop
endfacet
facet normal -0.0 -0.0 1.0
outer loop
vertex -1.82685899878347 -0.422150682297056 0.25
vertex -1.79318164322722 0.54783628429755 0.25
vertex -1.87387092439504 0.0650596549858058 0.25
endloop
endfacet
facet normal -0.0 -0.0 1.0
outer loop
vertex -1.79318164322722 0.54783628429755 0.25
vertex -1.82685899878347 -0.422150682297056 0.25
vertex -1.65534965143204 -0.880592148218362 0.25
endloop
endfacet
facet normal -0.0 -0.0 1.0
outer loop
vertex -1.79318164322722 0.54783628429755 0.25
vertex -1.65534965143204 -0.880592148218362 0.25
vertex -1.6238910359101 0.0600241908801198 0.25
endloop
endfacet
facet normal -0.0 -0.0 1.0
outer loop
vertex -1.79318164322722 0.54783628429755 0.25
vertex -1.6238910359101 0.0600241908801198 0.25
vertex -1.59028999644623 0.99327877617668 0.25
endloop
endfacet
facet normal -0.0 -0.0 1.0
outer loop
vertex -1.59028999644623 0.99327877617668 0.25
vertex -1.6238910359101 0.0600241908801198 0.25
vertex -1.55302288689823 0.478272843438008 0.25
endloop
endfacet
facet normal -0.0 -0.0 1.0
outer loop
vertex -1.59028999644623 0.99327877617668 0.25
vertex -1.55302288689823 0.478272843438008 0.25
vertex -1.27902271448592 1.37103096093016 0.25
endloop
endfacet
facet normal -0.0 -0.0 1.0
outer loop
vertex -1.27902271448592 1.37103096093016 0.25
vertex -1.55302288689823 0.478272843438008 0.25
vertex -1.37631879463592 0.863927992098842 0.25
endloop
endfacet
facet normal -0.0 -0.0 1.0
outer loop
vertex -1.27902271448592 1.37103096093016 0.25
vertex -1.37631879463592 0.863927992098842 0.25
vertex -1.10582085099351 1.19070787580665 0.25
endloop
endfacet
facet normal -0.0 -0.0 1.0
outer loop
vertex -1.27902271448592 1.37103096093016 0.25
vertex -1.10582085099351 1.19070787580665 0.25
vertex -0.880592148218362 1.65534965143204 0.25
endloop
endfacet
facet normal -0.0 -0.0 1.0
outer loop
vertex -0.880592148218362 1.65534965143204 0.25
vertex -1.10582085099351 1.19070787580665 0.25
vertex -0.759963043811262 1.43634298551604 0.25
endloop
endfacet
facet normal -0.0 -0.0 1.0
outer loop
vertex -0.880592148218362 1.65534965143204 0.25
vertex -0.759963043811262 1.43634298551604 0.25
vertex -0.422150682297056 1.82685899878347 0.25
endloop
endfacet
facet normal -0.0 -0.0 1.0
outer loop
vertex -0.422150682297056 1.82685899878347 0.25
vertex -0.759963043811262 1.43634298551604 0.25
vertex -0.362315011091583 1.58409369443152 0.25
endloop
endfacet
facet normal -0.0 -0.0 1.0
outer loop
vertex -0.422150682297056 1.82685899878347 0.25
vertex -0.362315011091583 1.58409369443152 0.25
vertex 0.0650596549858056 1.87387092439504 0.25
endloop
endfacet
facet normal -0.0 -0.0 1.0
outer loop
vertex 0.0650596549858056 1.87387092439504 0.25
vertex -0.362315011091583 1.58409369443152 0.25
vertex 0.0600241908801206 1.6238910359101 0.25
endloop
endfacet
facet normal -0.0 -0.0 1.0
outer loop
vertex 0.0650596549858056 1.87387092439504 0.25
vertex 0.0600241908801206 1.6238910359101 0.25
vertex 0.478272843438009 1.55302288689823 0.25
endloop
endfacet
facet normal -0.0 -0.0 1.0
outer loop
vertex 0.0650596549858056 1.87387092439504 0.25
vertex 0.478272843438009 1.55302288689823 0.25
vertex 0.54783628429755 1.79318164322721 0.25
endloop
endfacet
facet normal -0.0 -0.0 1.0
outer loop
vertex 0.54783628429755 1.79318164322721 0.25
vertex 0.478272843438009 1.55302288689823 0.25
vertex 0.863927992098842 1.37631879463592 0.25
endloop
endfacet
facet normal -0.0 -0.0 1.0
outer loop
vertex 0.54783628429755 1.79318164322721 0.25
vertex 0.863927992098842 1.37631879463592 0.25
vertex 0.993278776176681 1.59028999644623 0.25
endloop
endfacet
facet normal -0.0 -0.0 1.0
outer loop
vertex 0.993278776176681 1.59028999644623 0.25
vertex 0.863927992098842 1.37631879463592 0.25
vertex 1.19070787580665 1.10582085099351 0.25
endloop
endfacet
facet normal -0.0 -0.0 1.0
outer loop
vertex 0.993278776176681 1.59028999644623 0.25
vertex 1.19070787580665 1.10582085099351 0.25
vertex 1.37103096093016 1.27902271448592 0.25
endloop
endfacet
facet normal -0.0 -0.0 1.0
outer loop
vertex 1.37103096093016 1.27902271448592 0.25
vertex 1.19070787580665 1.10582085099351 0.25
vertex 1.43634298551604 0.759963043811261 0.25
endloop
endfacet
facet normal -0.0 -0.0 1.0
outer loop
vertex 1.37103096093016 1.27902271448592 0.25
vertex 1.43634298551604 0.759963043811261 0.25
vertex 1.65534965143204 0.880592148218361 0.25
endloop
endfacet
facet normal -0.0 -0.0 1.0
outer loop
vertex 1.65534965143204 0.880592148218361 0.25
vertex 1.43634298551604 0.759963043811261 0.25
vertex 1.58409369443152 0.362315011091583 0.25
endloop
endfacet
facet normal -0.0 -0.0 1.0
outer loop
vertex 1.65534965143204 0.880592148218361 0.25
vertex 1.58409369443152 0.362315011091583 0.25
vertex 1.6238910359101 -0.0600241908801204 0.25
endloop
endfacet
facet normal 0.0 0.0 1.0
outer loop
vertex -1.58409369443152 -0.362315011091583 0.5
vertex -1.55302288689823 0.478272843438008 0.5
vertex -1.6238910359101 0.0600241908801198 0.5
endloop
endfacet
facet normal 0.0 0.0 1.0
outer loop
vertex -1.55302288689823 0.478272843438008 0.5
vertex -1.58409369443152 -0.362315011091583 0.5
vertex -1.43634298551604 -0.759963043811262 0.5
endloop
endfacet
facet normal 0.0 0.0 1.0
outer loop
vertex -1.55302288689823 0.478272843438008 0.5
vertex -1.43634298551604 -0.759963043811262 0.5
vertex -1.37631879463592 0.863927992098842 0.5
endloop
endfacet
facet normal 0.0 0.0 1.0
outer loop
vertex -1.37631879463592 0.863927992098842 0.5
vertex -1.43634298551604 -0.759963043811262 0.5
vertex -1.19070787580665 -1.10582085099351 0.5
endloop
endfacet
facet normal 0.0 0.0 1.0
outer loop
vertex -1.37631879463592 0.863927992098842 0.5
vertex -1.19070787580665 -1.10582085099351 0.5
vertex -1.10582085099351 1.19070787580665 0.5
endloop
endfacet
facet normal 0.0 0.0 1.0
outer loop
vertex -1.10582085099351 1.19070787580665 0.5
vertex -1.19070787580665 -1.10582085099351 0.5
vertex -0.863927992098842 -1.37631879463592 0.5
endloop
endfacet
facet normal 0.0 0.0 1.0
outer loop
vertex -1.10582085099351 1.19070787580665 0.5
vertex -0.863927992098842 -1.37631879463592 0.5
vertex -0.759963043811262 1.43634298551604 0.5
endloop
endfacet
facet normal 0.0 0.0 1.0
outer loop
vertex -0.759963043811262 1.43634298551604 0.5
vertex -0.863927992098842 -1.37631879463592 0.5
vertex -0.478272843438009 -1.55302288689823 0.5
endloop
endfacet
facet normal 0.0 0.0 1.0
outer loop
vertex -0.759963043811262 1.43634298551604 0.5
vertex -0.478272843438009 -1.55302288689823 0.5
vertex -0.362315011091583 1.58409369443152 0.5
endloop
endfacet
facet normal 0.0 0.0 1.0
outer loop
vertex -0.362315011091583 1.58409369443152 0.5
vertex -0.478272843438009 -1.55302288689823 0.5
vertex -0.06002419088012 -1.6238910359101 0.5
endloop
endfacet
facet normal 0.0 0.0 1.0
outer loop
vertex -0.362315011091583 1.58409369443152 0.5
vertex -0.06002419088012 -1.6238910359101 0.5
vertex 0.0600241908801206 1.6238910359101 0.5
endloop
endfacet
facet normal 0.0 0.0 1.0
outer loop
vertex 0.0600241908801206 1.6238910359101 0.5
vertex -0.06002419088012 -1.6238910359101 0.5
vertex 0.362315011091583 -1.58409369443152 0.5
endloop
endfacet
facet normal 0.0 0.0 1.0
outer loop
vertex 0.0600241908801206 1.6238910359101 0.5
vertex 0.362315011091583 -1.58409369443152 0.5
vertex 0.478272843438009 1.55302288689823 0.5
endloop
endfacet
facet normal 0.0 0.0 1.0
outer loop
vertex 0.478272843438009 1.55302288689823 0.5
vertex 0.362315011091583 -1.58409369443152 0.5
vertex 0.759963043811261 -1.43634298551604 0.5
endloop
endfacet
facet normal 0.0 0.0 1.0
outer loop
vertex 0.478272843438009 1.55302288689823 0.5
vertex 0.759963043811261 -1.43634298551604 0.5
vertex 0.863927992098842 1.37631879463592 0.5
endloop
endfacet
facet normal 0.0 0.0 1.0
outer loop
vertex 0.863927992098842 1.37631879463592 0.5
vertex 0.759963043811261 -1.43634298551604 0.5
vertex 1.10582085099351 -1.19070787580665 0.5
endloop
endfacet
facet normal 0.0 0.0 1.0
outer loop
vertex 0.863927992098842 1.37631879463592 0.5
vertex 1.10582085099351 -1.19070787580665 0.5
vertex 1.19070787580665 1.10582085099351 0.5
endloop
endfacet
facet normal 0.0 0.0 1.0
outer loop
vertex 1.19070787580665 1.10582085099351 0.5
vertex 1.10582085099351 -1.19070787580665 0.5
vertex 1.37631879463592 -0.863927992098842 0.5
endloop
endfacet
facet normal 0.0 0.0 1.0
outer loop
vertex 1.19070787580665 1.10582085099351 0.5
vertex 1.37631879463592 -0.863927992098842 0.5
vertex 1.43634298551604 0.759963043811261 0.5
endloop
endfacet
facet normal 0.0 0.0 1.0
outer loop
vertex 1.43634298551604 0.759963043811261 0.5
vertex 1.37631879463592 -0.863927992098842 0.5
vertex 1.55302288689823 -0.478272843438009 0.5
endloop
endfacet
facet normal 0.0 0.0 1.0
outer loop
vertex 1.43634298551604 0.759963043811261 0.5
vertex 1.55302288689823 -0.478272843438009 0.5
vertex 1.58409369443152 0.362315011091583 0.5
endloop
endfacet
facet normal 0.0 0.0 1.0
outer loop
vertex 1.58409369443152 0.362315011091583 0.5
vertex 1.55302288689823 -0.478272843438009 0.5
vertex 1.6238910359101 -0.0600241908801204 0.5
endloop
endfacet
facet normal -0.680505139072931 0.732743308188707 0.0
outer loop
vertex -1.10582085099351 1.19070787580665 0.5
vertex -1.37631879463592 0.863927992098842 0.25
vertex -1.37631879463592 0.863927992098842 0.5
endloop
endfacet
facet normal -0.846965412083641 0.531647995137748 0.0
outer loop
vertex -1.37631879463592 0.863927992098842 0.25
vertex -1.10582085099351 1.19070787580665 0.5
vertex -1.10582085099351 1.19070787580665 0.25
endloop
endfacet
facet normal -0.846965412083641 0.531647995137748 0.0
outer loop
vertex -1.37631879463592 0.863927992098842 0.5
vertex -1.55302288689823 0.478272843438008 0.25
vertex -1.55302288689823 0.478272843438008 0.5
endloop
endfacet
facet normal -0.955706391937374 0.294321749808005 0.0
outer loop
vertex -1.55302288689823 0.478272843438008 0.25
vertex -1.37631879463592 0.863927992098842 0.5
vertex -1.37631879463592 0.863927992098842 0.25
endloop
endfacet
facet normal -0.955706391937374 0.294321749808005 0.0
outer loop
vertex -1.55302288689823 0.478272843438008 0.5
vertex -1.6238910359101 0.0600241908801198 0.25
vertex -1.6238910359101 0.0600241908801198 0.5
endloop
endfacet
facet normal -0.999317560560063 0.0369379636185354 0.0
outer loop
vertex -1.6238910359101 0.0600241908801198 0.25
vertex -1.55302288689823 0.478272843438008 0.5
vertex -1.55302288689823 0.478272843438008 0.25
endloop
endfacet
facet normal -0.999317560560063 0.0369379636185354 0.0
outer loop
vertex -1.6238910359101 0.0600241908801198 0.5
vertex -1.58409369443152 -0.362315011091583 0.25
vertex -1.58409369443152 -0.362315011091583 0.5
endloop
endfacet
facet normal -0.974826888880936 -0.222963083748667 0.0
outer loop
vertex -1.58409369443152 -0.362315011091583 0.25
vertex -1.6238910359101 0.0600241908801198 0.5
vertex -1.6238910359101 0.0600241908801198 0.25
endloop
endfacet
facet normal -0.974826888880936 -0.222963083748667 0.0
outer loop
vertex -1.58409369443152 -0.362315011091583 0.5
vertex -1.43634298551604 -0.759963043811262 0.25
vertex -1.43634298551604 -0.759963043811262 0.5
endloop
endfacet
facet normal -0.883903375702177 -0.467669565422315 0.0
outer loop
vertex -1.43634298551604 -0.759963043811262 0.25
vertex -1.58409369443152 -0.362315011091583 0.5
vertex -1.58409369443152 -0.362315011091583 0.25
endloop
endfacet
facet normal -0.883903375702177 -0.467669565422315 0.0
outer loop
vertex -1.43634298551604 -0.759963043811262 0.5
vertex -1.19070787580665 -1.10582085099351 0.25
vertex -1.19070787580665 -1.10582085099351 0.5
endloop
endfacet
facet normal -0.732743308188707 -0.680505139072931 0.0
outer loop
vertex -1.19070787580665 -1.10582085099351 0.25
vertex -1.43634298551604 -0.759963043811262 0.5
vertex -1.43634298551604 -0.759963043811262 0.25
endloop
endfacet
facet normal -0.531647995137749 -0.846965412083641 0.0
outer loop
vertex -0.863927992098842 -1.37631879463592 0.5
vertex -1.19070787580665 -1.10582085099351 0.25
vertex -0.863927992098842 -1.37631879463592 0.25
endloop
endfacet
facet normal -0.732743308188707 -0.680505139072931 0.0
outer loop
vertex -1.19070787580665 -1.10582085099351 0.25
vertex -0.863927992098842 -1.37631879463592 0.5
vertex -1.19070787580665 -1.10582085099351 0.5
endloop
endfacet
facet normal -0.294321749808005 -0.955706391937374 0.0
outer loop
vertex -0.478272843438009 -1.55302288689823 0.5
vertex -0.863927992098842 -1.37631879463592 0.25
vertex -0.478272843438009 -1.55302288689823 0.25
endloop
endfacet
facet normal -0.531647995137749 -0.846965412083641 0.0
outer loop
vertex -0.863927992098842 -1.37631879463592 0.25
vertex -0.478272843438009 -1.55302288689823 0.5
vertex -0.863927992098842 -1.37631879463592 0.5
endloop
endfacet
facet normal -0.0369379636185353 -0.999317560560063 0.0
outer loop
vertex -0.06002419088012 -1.6238910359101 0.5
vertex -0.478272843438009 -1.55302288689823 0.25
vertex -0.06002419088012 -1.6238910359101 0.25
endloop
endfacet
facet normal -0.294321749808005 -0.955706391937374 0.0
outer loop
vertex -0.478272843438009 -1.55302288689823 0.25
vertex -0.06002419088012 -1.6238910359101 0.5
vertex -0.478272843438009 -1.55302288689823 0.5
endloop
endfacet
facet normal 0.222963083748667 -0.974826888880936 0.0
outer loop
vertex 0.362315011091583 -1.58409369443152 0.5
vertex -0.06002419088012 -1.6238910359101 0.25
vertex 0.362315011091583 -1.58409369443152 0.25
endloop
endfacet
facet normal -0.0369379636185353 -0.999317560560063 0.0
outer loop
vertex -0.06002419088012 -1.6238910359101 0.25
vertex 0.362315011091583 -1.58409369443152 0.5
vertex -0.06002419088012 -1.6238910359101 0.5
endloop
endfacet
facet normal 0.467669565422314 -0.883903375702177 0.0
outer loop
vertex 0.759963043811261 -1.43634298551604 0.5
vertex 0.362315011091583 -1.58409369443152 0.25
vertex 0.759963043811261 -1.43634298551604 0.25
endloop
endfacet
facet normal 0.222963083748667 -0.974826888880936 0.0
outer loop
vertex 0.362315011091583 -1.58409369443152 0.25
vertex 0.759963043811261 -1.43634298551604 0.5
vertex 0.362315011091583 -1.58409369443152 0.5
endloop
endfacet
facet normal 0.680505139072931 -0.732743308188708 0.0
outer loop
vertex 1.10582085099351 -1.19070787580665 0.5
vertex 0.759963043811261 -1.43634298551604 0.25
vertex 1.10582085099351 -1.19070787580665 0.25
endloop
endfacet
facet normal 0.467669565422314 -0.883903375702177 0.0
outer loop
vertex 0.759963043811261 -1.43634298551604 0.25
vertex 1.10582085099351 -1.19070787580665 0.5
vertex 0.759963043811261 -1.43634298551604 0.5
endloop
endfacet
facet normal 0.846965412083641 -0.531647995137749 0.0
outer loop
vertex 1.37631879463592 -0.863927992098842 0.25
vertex 1.10582085099351 -1.19070787580665 0.5
vertex 1.10582085099351 -1.19070787580665 0.25
endloop
endfacet
facet normal 0.680505139072931 -0.732743308188708 0.0
outer loop
vertex 1.10582085099351 -1.19070787580665 0.5
vertex 1.37631879463592 -0.863927992098842 0.25
vertex 1.37631879463592 -0.863927992098842 0.5
endloop
endfacet
facet normal 0.955706391937374 -0.294321749808005 0.0
outer loop
vertex 1.55302288689823 -0.478272843438009 0.25
vertex 1.37631879463592 -0.863927992098842 0.5
vertex 1.37631879463592 -0.863927992098842 0.25
endloop
endfacet
facet normal 0.846965412083641 -0.531647995137749 0.0
outer loop
vertex 1.37631879463592 -0.863927992098842 0.5
vertex 1.55302288689823 -0.478272843438009 0.25
vertex 1.55302288689823 -0.478272843438009 0.5
endloop
endfacet
facet normal 0.999317560560063 -0.0369379636185354 0.0
outer loop
vertex 1.6238910359101 -0.0600241908801204 0.25
vertex 1.55302288689823 -0.478272843438009 0.5
vertex 1.55302288689823 -0.478272843438009 0.25
endloop
endfacet
facet normal 0.955706391937374 -0.294321749808005 0.0
outer loop
vertex 1.55302288689823 -0.478272843438009 0.5
vertex 1.6238910359101 -0.0600241908801204 0.25
vertex 1.6238910359101 -0.0600241908801204 0.5
endloop
endfacet
facet normal 0.974826888880936 0.222963083748667 0.0
outer loop
vertex 1.58409369443152 0.362315011091583 0.25
vertex 1.6238910359101 -0.0600241908801204 0.5
vertex 1.6238910359101 -0.0600241908801204 0.25
endloop
endfacet
facet normal 0.999317560560063 -0.0369379636185354 0.0
outer loop
vertex 1.6238910359101 -0.0600241908801204 0.5
vertex 1.58409369443152 0.362315011091583 0.25
vertex 1.58409369443152 0.362315011091583 0.5
endloop
endfacet
facet normal 0.883903375702177 0.467669565422314 0.0
outer loop
vertex 1.43634298551604 0.759963043811261 0.25
vertex 1.58409369443152 0.362315011091583 0.5
vertex 1.58409369443152 0.362315011091583 0.25
endloop
endfacet
facet normal 0.974826888880936 0.222963083748667 0.0
outer loop
vertex 1.58409369443152 0.362315011091583 0.5
vertex 1.43634298551604 0.759963043811261 0.25
vertex 1.43634298551604 0.759963043811261 0.5
endloop
endfacet
facet normal 0.732743308188708 0.68050513907293 0.0
outer loop
vertex 1.19070787580665 1.10582085099351 0.25
vertex 1.43634298551604 0.759963043811261 0.5
vertex 1.43634298551604 0.759963043811261 0.25
endloop
endfacet
facet normal 0.883903375702177 0.467669565422314 0.0
outer loop
vertex 1.43634298551604 0.759963043811261 0.5
vertex 1.19070787580665 1.10582085099351 0.25
vertex 1.19070787580665 1.10582085099351 0.5
endloop
endfacet
facet normal 0.531647995137749 0.846965412083641 0.0
outer loop
vertex 0.863927992098842 1.37631879463592 0.5
vertex 1.19070787580665 1.10582085099351 0.25
vertex 0.863927992098842 1.37631879463592 0.25
endloop
endfacet
facet normal 0.732743308188708 0.68050513907293 0.0
outer loop
vertex 1.19070787580665 1.10582085099351 0.25
vertex 0.863927992098842 1.37631879463592 0.5
vertex 1.19070787580665 1.10582085099351 0.5
endloop
endfacet
facet normal 0.294321749808006 0.955706391937374 0.0
outer loop
vertex 0.478272843438009 1.55302288689823 0.5
vertex 0.863927992098842 1.37631879463592 0.25
vertex 0.478272843438009 1.55302288689823 0.25
endloop
endfacet
facet normal 0.531647995137749 0.846965412083641 0.0
outer loop
vertex 0.863927992098842 1.37631879463592 0.25
vertex 0.478272843438009 1.55302288689823 0.5
vertex 0.863927992098842 1.37631879463592 0.5
endloop
endfacet
facet normal 0.0369379636185354 0.999317560560063 0.0
outer loop
vertex 0.0600241908801206 1.6238910359101 0.5
vertex 0.478272843438009 1.55302288689823 0.25
vertex 0.0600241908801206 1.6238910359101 0.25
endloop
endfacet
facet normal 0.294321749808006 0.955706391937374 0.0
outer loop
vertex 0.478272843438009 1.55302288689823 0.25
vertex 0.0600241908801206 1.6238910359101 0.5
vertex 0.478272843438009 1.55302288689823 0.5
endloop
endfacet
facet normal -0.222963083748667 0.974826888880936 0.0
outer loop
vertex -0.362315011091583 1.58409369443152 0.5
vertex 0.0600241908801206 1.6238910359101 0.25
vertex -0.362315011091583 1.58409369443152 0.25
endloop
endfacet
facet normal 0.0369379636185354 0.999317560560063 0.0
outer loop
vertex 0.0600241908801206 1.6238910359101 0.25
vertex -0.362315011091583 1.58409369443152 0.5
vertex 0.0600241908801206 1.6238910359101 0.5
endloop
endfacet
facet normal -0.467669565422315 0.883903375702177 0.0
outer loop
vertex -0.759963043811262 1.43634298551604 0.5
vertex -0.362315011091583 1.58409369443152 0.25
vertex -0.759963043811262 1.43634298551604 0.25
endloop
endfacet
facet normal -0.222963083748667 0.974826888880936 0.0
outer loop
vertex -0.362315011091583 1.58409369443152 0.25
vertex -0.759963043811262 1.43634298551604 0.5
vertex -0.362315011091583 1.58409369443152 0.5
endloop
endfacet
facet normal -0.680505139072931 0.732743308188707 0.0
outer loop
vertex -1.10582085099351 1.19070787580665 0.5
vertex -0.759963043811262 1.43634298551604 0.25
vertex -1.10582085099351 1.19070787580665 0.25
endloop
endfacet
facet normal -0.467669565422315 0.883903375702177 0.0
outer loop
vertex -0.759963043811262 1.43634298551604 0.25
vertex -1.10582085099351 1.19070787580665 0.5
vertex -0.759963043811262 1.43634298551604 0.5
endloop
endfacet
endsolid CAP FINAL
