solid FEButton
facet normal 0.0 0.0 -1.0
outer loop
vertex 6.46989477299818 34.0326774687317 0.0
vertex 6.46989477299817 21.6093633038107 0.0
vertex 5.65211460393582 27.8210203862712 0.0
endloop
endfacet
facet normal 0.0 0.0 -1.0
outer loop
vertex 6.46989477299817 21.6093633038107 0.0
vertex 6.46989477299818 34.0326774687317 0.0
vertex 8.86750491310928 15.8210203862712 0.0
endloop
endfacet
facet normal 0.0 0.0 -1.0
outer loop
vertex 8.86750491310928 15.8210203862712 0.0
vertex 6.46989477299818 34.0326774687317 0.0
vertex 8.86750491310929 39.8210203862712 0.0
endloop
endfacet
facet normal 0.0 0.0 -1.0
outer loop
vertex 8.86750491310928 15.8210203862712 0.0
vertex 8.86750491310929 39.8210203862712 0.0
vertex 12.6815518554587 10.850457637794 0.0
endloop
endfacet
facet normal 0.0 0.0 -1.0
outer loop
vertex 12.6815518554587 10.850457637794 0.0
vertex 8.86750491310929 39.8210203862712 0.0
vertex 12.6815518554587 44.7915831347483 0.0
endloop
endfacet
facet normal 0.0 0.0 -1.0
outer loop
vertex 12.6815518554587 10.850457637794 0.0
vertex 12.6815518554587 44.7915831347483 0.0
vertex 17.6521146039358 7.03641069544462 0.0
endloop
endfacet
facet normal 0.0 0.0 -1.0
outer loop
vertex 17.6521146039358 7.03641069544462 0.0
vertex 12.6815518554587 44.7915831347483 0.0
vertex 17.6521146039358 48.6056300770977 0.0
endloop
endfacet
facet normal 0.0 0.0 -1.0
outer loop
vertex 17.6521146039358 7.03641069544462 0.0
vertex 17.6521146039358 48.6056300770977 0.0
vertex 23.4404575214753 4.63880055533351 0.0
endloop
endfacet
facet normal 0.0 0.0 -1.0
outer loop
vertex 23.4404575214753 4.63880055533351 0.0
vertex 17.6521146039358 48.6056300770977 0.0
vertex 23.4404575214753 51.0032402172088 0.0
endloop
endfacet
facet normal 0.0 0.0 -1.0
outer loop
vertex 23.4404575214753 4.63880055533351 0.0
vertex 23.4404575214753 51.0032402172088 0.0
vertex 29.6521146039358 3.82102038627115 0.0
endloop
endfacet
facet normal 0.0 0.0 -1.0
outer loop
vertex 29.6521146039358 3.82102038627115 0.0
vertex 23.4404575214753 51.0032402172088 0.0
vertex 29.6521146039358 51.8210203862712 0.0
endloop
endfacet
facet normal 0.0 0.0 -1.0
outer loop
vertex 29.6521146039358 3.82102038627115 0.0
vertex 29.6521146039358 51.8210203862712 0.0
vertex 35.8637716863963 4.6388005553335 0.0
endloop
endfacet
facet normal 0.0 0.0 -1.0
outer loop
vertex 35.8637716863963 4.6388005553335 0.0
vertex 29.6521146039358 51.8210203862712 0.0
vertex 35.8637716863963 51.0032402172088 0.0
endloop
endfacet
facet normal 0.0 0.0 -1.0
outer loop
vertex 35.8637716863963 4.6388005553335 0.0
vertex 35.8637716863963 51.0032402172088 0.0
vertex 41.6521146039358 7.03641069544461 0.0
endloop
endfacet
facet normal 0.0 0.0 -1.0
outer loop
vertex 41.6521146039358 7.03641069544461 0.0
vertex 35.8637716863963 51.0032402172088 0.0
vertex 41.6521146039358 48.6056300770977 0.0
endloop
endfacet
facet normal 0.0 0.0 -1.0
outer loop
vertex 41.6521146039358 7.03641069544461 0.0
vertex 41.6521146039358 48.6056300770977 0.0
vertex 46.622677352413 10.850457637794 0.0
endloop
endfacet
facet normal 0.0 0.0 -1.0
outer loop
vertex 46.622677352413 10.850457637794 0.0
vertex 41.6521146039358 48.6056300770977 0.0
vertex 46.622677352413 44.7915831347483 0.0
endloop
endfacet
facet normal 0.0 0.0 -1.0
outer loop
vertex 46.622677352413 10.850457637794 0.0
vertex 46.622677352413 44.7915831347483 0.0
vertex 50.4367242947623 15.8210203862711 0.0
endloop
endfacet
facet normal 0.0 0.0 -1.0
outer loop
vertex 50.4367242947623 15.8210203862711 0.0
vertex 46.622677352413 44.7915831347483 0.0
vertex 50.4367242947623 39.8210203862711 0.0
endloop
endfacet
facet normal 0.0 0.0 -1.0
outer loop
vertex 50.4367242947623 15.8210203862711 0.0
vertex 50.4367242947623 39.8210203862711 0.0
vertex 52.8343344348735 21.6093633038106 0.0
endloop
endfacet
facet normal 0.0 0.0 -1.0
outer loop
vertex 52.8343344348735 21.6093633038106 0.0
vertex 50.4367242947623 39.8210203862711 0.0
vertex 52.8343344348735 34.0326774687316 0.0
endloop
endfacet
facet normal 0.0 0.0 -1.0
outer loop
vertex 52.8343344348735 21.6093633038106 0.0
vertex 52.8343344348735 34.0326774687316 0.0
vertex 53.6521146039358 27.8210203862711 0.0
endloop
endfacet
facet normal -0.0 -0.0 1.0
outer loop
vertex 6.46989477299817 21.6093633038107 5.0
vertex 6.46989477299818 34.0326774687317 5.0
vertex 5.65211460393582 27.8210203862712 5.0
endloop
endfacet
facet normal -0.0 -0.0 1.0
outer loop
vertex 6.46989477299818 34.0326774687317 5.0
vertex 6.46989477299817 21.6093633038107 5.0
vertex 8.86750491310928 15.8210203862712 5.0
endloop
endfacet
facet normal -0.0 -0.0 1.0
outer loop
vertex 6.46989477299818 34.0326774687317 5.0
vertex 8.86750491310928 15.8210203862712 5.0
vertex 8.86750491310929 39.8210203862712 5.0
endloop
endfacet
facet normal -0.0 -0.0 1.0
outer loop
vertex 8.86750491310929 39.8210203862712 5.0
vertex 8.86750491310928 15.8210203862712 5.0
vertex 12.6815518554587 10.850457637794 5.0
endloop
endfacet
facet normal -0.0 -0.0 1.0
outer loop
vertex 8.86750491310929 39.8210203862712 5.0
vertex 12.6815518554587 10.850457637794 5.0
vertex 12.6815518554587 44.7915831347483 5.0
endloop
endfacet
facet normal -0.0 -0.0 1.0
outer loop
vertex 12.6815518554587 44.7915831347483 5.0
vertex 12.6815518554587 10.850457637794 5.0
vertex 17.6521146039358 7.03641069544462 5.0
endloop
endfacet
facet normal -0.0 -0.0 1.0
outer loop
vertex 12.6815518554587 44.7915831347483 5.0
vertex 17.6521146039358 7.03641069544462 5.0
vertex 17.6521146039358 48.6056300770977 5.0
endloop
endfacet
facet normal -0.0 -0.0 1.0
outer loop
vertex 17.6521146039358 48.6056300770977 5.0
vertex 17.6521146039358 7.03641069544462 5.0
vertex 23.4404575214753 4.63880055533351 5.0
endloop
endfacet
facet normal -0.0 -0.0 1.0
outer loop
vertex 17.6521146039358 48.6056300770977 5.0
vertex 23.4404575214753 4.63880055533351 5.0
vertex 23.4404575214753 51.0032402172088 5.0
endloop
endfacet
facet normal -0.0 -0.0 1.0
outer loop
vertex 23.4404575214753 51.0032402172088 5.0
vertex 23.4404575214753 4.63880055533351 5.0
vertex 29.6521146039358 3.82102038627115 5.0
endloop
endfacet
facet normal -0.0 -0.0 1.0
outer loop
vertex 23.4404575214753 51.0032402172088 5.0
vertex 29.6521146039358 3.82102038627115 5.0
vertex 29.6521146039358 51.8210203862712 5.0
endloop
endfacet
facet normal -0.0 -0.0 1.0
outer loop
vertex 29.6521146039358 51.8210203862712 5.0
vertex 29.6521146039358 3.82102038627115 5.0
vertex 35.8637716863963 4.6388005553335 5.0
endloop
endfacet
facet normal -0.0 -0.0 1.0
outer loop
vertex 29.6521146039358 51.8210203862712 5.0
vertex 35.8637716863963 4.6388005553335 5.0
vertex 35.8637716863963 51.0032402172088 5.0
endloop
endfacet
facet normal -0.0 -0.0 1.0
outer loop
vertex 35.8637716863963 51.0032402172088 5.0
vertex 35.8637716863963 4.6388005553335 5.0
vertex 41.6521146039358 7.03641069544461 5.0
endloop
endfacet
facet normal -0.0 -0.0 1.0
outer loop
vertex 35.8637716863963 51.0032402172088 5.0
vertex 41.6521146039358 7.03641069544461 5.0
vertex 41.6521146039358 48.6056300770977 5.0
endloop
endfacet
facet normal -0.0 -0.0 1.0
outer loop
vertex 41.6521146039358 48.6056300770977 5.0
vertex 41.6521146039358 7.03641069544461 5.0
vertex 46.622677352413 10.850457637794 5.0
endloop
endfacet
facet normal -0.0 -0.0 1.0
outer loop
vertex 41.6521146039358 48.6056300770977 5.0
vertex 46.622677352413 10.850457637794 5.0
vertex 46.622677352413 44.7915831347483 5.0
endloop
endfacet
facet normal -0.0 -0.0 1.0
outer loop
vertex 46.622677352413 44.7915831347483 5.0
vertex 46.622677352413 10.850457637794 5.0
vertex 50.4367242947623 15.8210203862711 5.0
endloop
endfacet
facet normal -0.0 -0.0 1.0
outer loop
vertex 46.622677352413 44.7915831347483 5.0
vertex 50.4367242947623 15.8210203862711 5.0
vertex 50.4367242947623 39.8210203862711 5.0
endloop
endfacet
facet normal -0.0 -0.0 1.0
outer loop
vertex 50.4367242947623 39.8210203862711 5.0
vertex 50.4367242947623 15.8210203862711 5.0
vertex 52.8343344348735 21.6093633038106 5.0
endloop
endfacet
facet normal -0.0 -0.0 1.0
outer loop
vertex 50.4367242947623 39.8210203862711 5.0
vertex 52.8343344348735 21.6093633038106 5.0
vertex 52.8343344348735 34.0326774687316 5.0
endloop
endfacet
facet normal -0.0 -0.0 1.0
outer loop
vertex 52.8343344348735 34.0326774687316 5.0
vertex 52.8343344348735 21.6093633038106 5.0
vertex 53.6521146039358 27.8210203862711 5.0
endloop
endfacet
facet normal 0.99144486137381 -0.130526192220051 0.0
outer loop
vertex 53.6521146039358 27.8210203862711 0.0
vertex 52.8343344348735 21.6093633038106 5.0
vertex 52.8343344348735 21.6093633038106 0.0
endloop
endfacet
facet normal 0.99144486137381 -0.130526192220051 0.0
outer loop
vertex 52.8343344348735 21.6093633038106 5.0
vertex 53.6521146039358 27.8210203862711 0.0
vertex 53.6521146039358 27.8210203862711 5.0
endloop
endfacet
facet normal 0.923879532511286 -0.382683432365091 0.0
outer loop
vertex 52.8343344348735 21.6093633038106 0.0
vertex 50.4367242947623 15.8210203862711 5.0
vertex 50.4367242947623 15.8210203862711 0.0
endloop
endfacet
facet normal 0.923879532511286 -0.382683432365091 0.0
outer loop
vertex 50.4367242947623 15.8210203862711 5.0
vertex 52.8343344348735 21.6093633038106 0.0
vertex 52.8343344348735 21.6093633038106 5.0
endloop
endfacet
facet normal 0.793353340291235 -0.608761429008721 0.0
outer loop
vertex 50.4367242947623 15.8210203862711 0.0
vertex 46.622677352413 10.850457637794 5.0
vertex 46.622677352413 10.850457637794 0.0
endloop
endfacet
facet normal 0.793353340291235 -0.608761429008721 0.0
outer loop
vertex 46.622677352413 10.850457637794 5.0
vertex 50.4367242947623 15.8210203862711 0.0
vertex 50.4367242947623 15.8210203862711 5.0
endloop
endfacet
facet normal 0.60876142900872 -0.793353340291236 0.0
outer loop
vertex 46.622677352413 10.850457637794 5.0
vertex 41.6521146039358 7.03641069544461 0.0
vertex 46.622677352413 10.850457637794 0.0
endloop
endfacet
facet normal 0.60876142900872 -0.793353340291236 0.0
outer loop
vertex 41.6521146039358 7.03641069544461 0.0
vertex 46.622677352413 10.850457637794 5.0
vertex 41.6521146039358 7.03641069544461 5.0
endloop
endfacet
facet normal 0.382683432365089 -0.923879532511287 0.0
outer loop
vertex 41.6521146039358 7.03641069544461 5.0
vertex 35.8637716863963 4.6388005553335 0.0
vertex 41.6521146039358 7.03641069544461 0.0
endloop
endfacet
facet normal 0.382683432365089 -0.923879532511287 0.0
outer loop
vertex 35.8637716863963 4.6388005553335 0.0
vertex 41.6521146039358 7.03641069544461 5.0
vertex 35.8637716863963 4.6388005553335 5.0
endloop
endfacet
facet normal 0.130526192220051 -0.991444861373811 0.0
outer loop
vertex 35.8637716863963 4.6388005553335 5.0
vertex 29.6521146039358 3.82102038627115 0.0
vertex 35.8637716863963 4.6388005553335 0.0
endloop
endfacet
facet normal 0.130526192220051 -0.991444861373811 0.0
outer loop
vertex 29.6521146039358 3.82102038627115 0.0
vertex 35.8637716863963 4.6388005553335 5.0
vertex 29.6521146039358 3.82102038627115 5.0
endloop
endfacet
facet normal -0.130526192220052 -0.99144486137381 -0.0
outer loop
vertex 29.6521146039358 3.82102038627115 5.0
vertex 23.4404575214753 4.63880055533351 0.0
vertex 29.6521146039358 3.82102038627115 0.0
endloop
endfacet
facet normal -0.130526192220052 -0.99144486137381 -0.0
outer loop
vertex 23.4404575214753 4.63880055533351 0.0
vertex 29.6521146039358 3.82102038627115 5.0
vertex 23.4404575214753 4.63880055533351 5.0
endloop
endfacet
facet normal -0.38268343236509 -0.923879532511287 -0.0
outer loop
vertex 23.4404575214753 4.63880055533351 5.0
vertex 17.6521146039358 7.03641069544462 0.0
vertex 23.4404575214753 4.63880055533351 0.0
endloop
endfacet
facet normal -0.38268343236509 -0.923879532511287 -0.0
outer loop
vertex 17.6521146039358 7.03641069544462 0.0
vertex 23.4404575214753 4.63880055533351 5.0
vertex 17.6521146039358 7.03641069544462 5.0
endloop
endfacet
facet normal -0.608761429008721 -0.793353340291235 -0.0
outer loop
vertex 17.6521146039358 7.03641069544462 5.0
vertex 12.6815518554587 10.850457637794 0.0
vertex 17.6521146039358 7.03641069544462 0.0
endloop
endfacet
facet normal -0.608761429008721 -0.793353340291235 -0.0
outer loop
vertex 12.6815518554587 10.850457637794 0.0
vertex 17.6521146039358 7.03641069544462 5.0
vertex 12.6815518554587 10.850457637794 5.0
endloop
endfacet
facet normal -0.793353340291236 -0.60876142900872 -0.0
outer loop
vertex 8.86750491310928 15.8210203862712 5.0
vertex 12.6815518554587 10.850457637794 0.0
vertex 12.6815518554587 10.850457637794 5.0
endloop
endfacet
facet normal -0.793353340291236 -0.60876142900872 -0.0
outer loop
vertex 12.6815518554587 10.850457637794 0.0
vertex 8.86750491310928 15.8210203862712 5.0
vertex 8.86750491310928 15.8210203862712 0.0
endloop
endfacet
facet normal -0.923879532511287 -0.382683432365089 -0.0
outer loop
vertex 6.46989477299817 21.6093633038107 5.0
vertex 8.86750491310928 15.8210203862712 0.0
vertex 8.86750491310928 15.8210203862712 5.0
endloop
endfacet
facet normal -0.923879532511287 -0.382683432365089 -0.0
outer loop
vertex 8.86750491310928 15.8210203862712 0.0
vertex 6.46989477299817 21.6093633038107 5.0
vertex 6.46989477299817 21.6093633038107 0.0
endloop
endfacet
facet normal -0.991444861373811 -0.130526192220051 -0.0
outer loop
vertex 5.65211460393582 27.8210203862712 5.0
vertex 6.46989477299817 21.6093633038107 0.0
vertex 6.46989477299817 21.6093633038107 5.0
endloop
endfacet
facet normal -0.991444861373811 -0.130526192220051 -0.0
outer loop
vertex 6.46989477299817 21.6093633038107 0.0
vertex 5.65211460393582 27.8210203862712 5.0
vertex 5.65211460393582 27.8210203862712 0.0
endloop
endfacet
facet normal -0.99144486137381 0.130526192220052 0.0
outer loop
vertex 6.46989477299818 34.0326774687317 5.0
vertex 5.65211460393582 27.8210203862712 0.0
vertex 5.65211460393582 27.8210203862712 5.0
endloop
endfacet
facet normal -0.99144486137381 0.130526192220052 0.0
outer loop
vertex 5.65211460393582 27.8210203862712 0.0
vertex 6.46989477299818 34.0326774687317 5.0
vertex 6.46989477299818 34.0326774687317 0.0
endloop
endfacet
facet normal -0.923879532511287 0.38268343236509 0.0
outer loop
vertex 8.86750491310929 39.8210203862712 5.0
vertex 6.46989477299818 34.0326774687317 0.0
vertex 6.46989477299818 34.0326774687317 5.0
endloop
endfacet
facet normal -0.923879532511287 0.38268343236509 0.0
outer loop
vertex 6.46989477299818 34.0326774687317 0.0
vertex 8.86750491310929 39.8210203862712 5.0
vertex 8.86750491310929 39.8210203862712 0.0
endloop
endfacet
facet normal -0.793353340291235 0.608761429008721 0.0
outer loop
vertex 12.6815518554587 44.7915831347483 5.0
vertex 8.86750491310929 39.8210203862712 0.0
vertex 8.86750491310929 39.8210203862712 5.0
endloop
endfacet
facet normal -0.793353340291235 0.608761429008721 0.0
outer loop
vertex 8.86750491310929 39.8210203862712 0.0
vertex 12.6815518554587 44.7915831347483 5.0
vertex 12.6815518554587 44.7915831347483 0.0
endloop
endfacet
facet normal -0.60876142900872 0.793353340291236 0.0
outer loop
vertex 12.6815518554587 44.7915831347483 5.0
vertex 17.6521146039358 48.6056300770977 0.0
vertex 12.6815518554587 44.7915831347483 0.0
endloop
endfacet
facet normal -0.60876142900872 0.793353340291236 0.0
outer loop
vertex 17.6521146039358 48.6056300770977 0.0
vertex 12.6815518554587 44.7915831347483 5.0
vertex 17.6521146039358 48.6056300770977 5.0
endloop
endfacet
facet normal -0.38268343236509 0.923879532511287 0.0
outer loop
vertex 17.6521146039358 48.6056300770977 5.0
vertex 23.4404575214753 51.0032402172088 0.0
vertex 17.6521146039358 48.6056300770977 0.0
endloop
endfacet
facet normal -0.38268343236509 0.923879532511287 0.0
outer loop
vertex 23.4404575214753 51.0032402172088 0.0
vertex 17.6521146039358 48.6056300770977 5.0
vertex 23.4404575214753 51.0032402172088 5.0
endloop
endfacet
facet normal -0.130526192220052 0.99144486137381 0.0
outer loop
vertex 23.4404575214753 51.0032402172088 5.0
vertex 29.6521146039358 51.8210203862712 0.0
vertex 23.4404575214753 51.0032402172088 0.0
endloop
endfacet
facet normal -0.130526192220052 0.99144486137381 0.0
outer loop
vertex 29.6521146039358 51.8210203862712 0.0
vertex 23.4404575214753 51.0032402172088 5.0
vertex 29.6521146039358 51.8210203862712 5.0
endloop
endfacet
facet normal 0.130526192220052 0.99144486137381 0.0
outer loop
vertex 29.6521146039358 51.8210203862712 5.0
vertex 35.8637716863963 51.0032402172088 0.0
vertex 29.6521146039358 51.8210203862712 0.0
endloop
endfacet
facet normal 0.130526192220052 0.99144486137381 0.0
outer loop
vertex 35.8637716863963 51.0032402172088 0.0
vertex 29.6521146039358 51.8210203862712 5.0
vertex 35.8637716863963 51.0032402172088 5.0
endloop
endfacet
facet normal 0.38268343236509 0.923879532511287 0.0
outer loop
vertex 35.8637716863963 51.0032402172088 5.0
vertex 41.6521146039358 48.6056300770977 0.0
vertex 35.8637716863963 51.0032402172088 0.0
endloop
endfacet
facet normal 0.38268343236509 0.923879532511287 0.0
outer loop
vertex 41.6521146039358 48.6056300770977 0.0
vertex 35.8637716863963 51.0032402172088 5.0
vertex 41.6521146039358 48.6056300770977 5.0
endloop
endfacet
facet normal 0.608761429008721 0.793353340291235 0.0
outer loop
vertex 41.6521146039358 48.6056300770977 5.0
vertex 46.622677352413 44.7915831347483 0.0
vertex 41.6521146039358 48.6056300770977 0.0
endloop
endfacet
facet normal 0.608761429008721 0.793353340291235 0.0
outer loop
vertex 46.622677352413 44.7915831347483 0.0
vertex 41.6521146039358 48.6056300770977 5.0
vertex 46.622677352413 44.7915831347483 5.0
endloop
endfacet
facet normal 0.793353340291235 0.608761429008721 0.0
outer loop
vertex 46.622677352413 44.7915831347483 0.0
vertex 50.4367242947623 39.8210203862711 5.0
vertex 50.4367242947623 39.8210203862711 0.0
endloop
endfacet
facet normal 0.793353340291235 0.608761429008721 0.0
outer loop
vertex 50.4367242947623 39.8210203862711 5.0
vertex 46.622677352413 44.7915831347483 0.0
vertex 46.622677352413 44.7915831347483 5.0
endloop
endfacet
facet normal 0.923879532511287 0.382683432365089 0.0
outer loop
vertex 50.4367242947623 39.8210203862711 0.0
vertex 52.8343344348735 34.0326774687316 5.0
vertex 52.8343344348735 34.0326774687316 0.0
endloop
endfacet
facet normal 0.923879532511287 0.382683432365089 0.0
outer loop
vertex 52.8343344348735 34.0326774687316 5.0
vertex 50.4367242947623 39.8210203862711 0.0
vertex 50.4367242947623 39.8210203862711 5.0
endloop
endfacet
facet normal 0.99144486137381 0.130526192220052 0.0
outer loop
vertex 52.8343344348735 34.0326774687316 0.0
vertex 53.6521146039358 27.8210203862711 5.0
vertex 53.6521146039358 27.8210203862711 0.0
endloop
endfacet
facet normal 0.99144486137381 0.130526192220052 0.0
outer loop
vertex 53.6521146039358 27.8210203862711 5.0
vertex 52.8343344348735 34.0326774687316 0.0
vertex 52.8343344348735 34.0326774687316 5.0
endloop
endfacet
facet normal -0.0 -0.0 -1.0
outer loop
vertex 29.7652560510431 32.6022619480973 5.0
vertex 21.1429190594356 32.0522296692077 5.0
vertex 21.1429190594356 32.6022619480973 5.0
endloop
endfacet
facet normal -0.0 -0.0 -1.0
outer loop
vertex 21.1429190594356 32.0522296692077 5.0
vertex 29.7652560510431 32.6022619480973 5.0
vertex 21.7045717385834 31.9592664671418 5.0
endloop
endfacet
facet normal -0.0 -0.0 -1.0
outer loop
vertex 21.7045717385834 31.9592664671418 5.0
vertex 29.7652560510431 32.6022619480973 5.0
vertex 22.2662244177313 31.7810869965156 5.0
endloop
endfacet
facet normal -0.0 -0.0 -1.0
outer loop
vertex 22.2662244177313 31.7810869965156 5.0
vertex 29.7652560510431 32.6022619480973 5.0
vertex 24.3578964642129 31.9902542011638 5.0
endloop
endfacet
facet normal -0.0 -0.0 -1.0
outer loop
vertex 22.2662244177313 31.7810869965156 5.0
vertex 24.3578964642129 31.9902542011638 5.0
vertex 22.6225833589837 31.4595892560379 5.0
endloop
endfacet
facet normal -0.0 -0.0 -1.0
outer loop
vertex 22.6225833589837 31.4595892560379 5.0
vertex 24.3578964642129 31.9902542011638 5.0
vertex 22.707799627544 31.0063936459669 5.0
endloop
endfacet
facet normal -0.0 -0.0 -1.0
outer loop
vertex 22.707799627544 31.0063936459669 5.0
vertex 24.3578964642129 31.9902542011638 5.0
vertex 22.707799627544 23.0735337363477 5.0
endloop
endfacet
facet normal -0.0 -0.0 -1.0
outer loop
vertex 24.3578964642129 31.9902542011638 5.0
vertex 29.7652560510431 32.6022619480973 5.0
vertex 26.2016666385189 31.9902542011638 5.0
endloop
endfacet
facet normal -0.0 -0.0 -1.0
outer loop
vertex 26.2016666385189 31.9902542011638 5.0
vertex 29.7652560510431 32.6022619480973 5.0
vertex 26.9492457217984 31.9747603341528 5.0
endloop
endfacet
facet normal -0.0 -0.0 -1.0
outer loop
vertex 26.9492457217984 31.9747603341528 5.0
vertex 29.7652560510431 32.6022619480973 5.0
vertex 27.5186453344517 31.9282787331199 5.0
endloop
endfacet
facet normal -0.0 -0.0 -1.0
outer loop
vertex 27.5186453344517 31.9282787331199 5.0
vertex 29.7652560510431 32.6022619480973 5.0
vertex 28.0018603118565 31.7016809280844 5.0
endloop
endfacet
facet normal -0.0 -0.0 -1.0
outer loop
vertex 28.0018603118565 31.7016809280844 5.0
vertex 29.7652560510431 32.6022619480973 5.0
vertex 28.5063793564014 31.1613323160766 5.0
endloop
endfacet
facet normal -0.0 -0.0 -1.0
outer loop
vertex 28.5063793564014 31.1613323160766 5.0
vertex 29.7652560510431 32.6022619480973 5.0
vertex 28.9334290658914 30.4854123677228 5.0
endloop
endfacet
facet normal -0.0 -0.0 -1.0
outer loop
vertex 28.9334290658914 30.4854123677228 5.0
vertex 29.7652560510431 32.6022619480973 5.0
vertex 29.1842360381315 29.8521005536492 5.0
endloop
endfacet
facet normal -0.0 -0.0 -1.0
outer loop
vertex 29.1842360381315 29.8521005536492 5.0
vertex 29.7652560510431 32.6022619480973 5.0
vertex 29.7652560510431 29.8521005536492 5.0
endloop
endfacet
facet normal -0.0 -0.0 -1.0
outer loop
vertex 25.6206466256073 27.5745021030359 5.0
vertex 24.3578964642129 26.9470004890915 5.0
vertex 24.3578964642129 27.5745021030359 5.0
endloop
endfacet
facet normal -0.0 -0.0 -1.0
outer loop
vertex 24.3578964642129 26.9470004890915 5.0
vertex 25.6206466256073 27.5745021030359 5.0
vertex 25.6206466256073 26.9470004890915 5.0
endloop
endfacet
facet normal -0.0 -0.0 -1.0
outer loop
vertex 25.6206466256073 26.9470004890915 5.0
vertex 25.6206466256073 27.5745021030359 5.0
vertex 26.5115439787384 27.694579572371 5.0
endloop
endfacet
facet normal -0.0 -0.0 -1.0
outer loop
vertex 25.6206466256073 26.9470004890915 5.0
vertex 26.5115439787384 27.694579572371 5.0
vertex 26.4689358444582 26.8424168867674 5.0
endloop
endfacet
facet normal -0.0 -0.0 -1.0
outer loop
vertex 26.4689358444582 26.8424168867674 5.0
vertex 26.5115439787384 27.694579572371 5.0
vertex 26.7914019516241 26.6923200500986 5.0
endloop
endfacet
facet normal -0.0 -0.0 -1.0
outer loop
vertex 26.7914019516241 26.6923200500986 5.0
vertex 26.5115439787384 27.694579572371 5.0
vertex 27.0538293241225 28.0625589138816 5.0
endloop
endfacet
facet normal -0.0 -0.0 -1.0
outer loop
vertex 26.7914019516241 26.6923200500986 5.0
vertex 27.0538293241225 28.0625589138816 5.0
vertex 27.0538293241225 26.4511967447403 5.0
endloop
endfacet
facet normal -0.0 -0.0 -1.0
outer loop
vertex 27.0538293241225 26.4511967447403 5.0
vertex 27.0538293241225 28.0625589138816 5.0
vertex 27.3365923970728 28.5932238590075 5.0
endloop
endfacet
facet normal -0.0 -0.0 -1.0
outer loop
vertex 27.0538293241225 26.4511967447403 5.0
vertex 27.3365923970728 28.5932238590075 5.0
vertex 27.3443393305783 25.8236951307958 5.0
endloop
endfacet
facet normal -0.0 -0.0 -1.0
outer loop
vertex 27.3443393305783 25.8236951307958 5.0
vertex 27.3365923970728 28.5932238590075 5.0
vertex 27.5031514674407 29.3640437428035 5.0
endloop
endfacet
facet normal -0.0 -0.0 -1.0
outer loop
vertex 27.3443393305783 25.8236951307958 5.0
vertex 27.5031514674407 29.3640437428035 5.0
vertex 27.5031514674407 25.049001780247 5.0
endloop
endfacet
facet normal -0.0 -0.0 -1.0
outer loop
vertex 27.5031514674407 25.049001780247 5.0
vertex 27.5031514674407 29.3640437428035 5.0
vertex 28.0919184138578 29.3640437428035 5.0
endloop
endfacet
facet normal -0.0 -0.0 -1.0
outer loop
vertex 27.5031514674407 25.049001780247 5.0
vertex 28.0919184138578 29.3640437428035 5.0
vertex 28.0919184138578 25.049001780247 5.0
endloop
endfacet
facet normal -0.0 -0.0 -1.0
outer loop
vertex 21.7626737398746 22.2097506504859 5.0
vertex 21.1429190594356 21.6093633038106 5.0
vertex 21.1429190594356 22.1593955827002 5.0
endloop
endfacet
facet normal -0.0 -0.0 -1.0
outer loop
vertex 21.1429190594356 21.6093633038106 5.0
vertex 21.7626737398746 22.2097506504859 5.0
vertex 25.9072831653103 21.6093633038106 5.0
endloop
endfacet
facet normal -0.0 -0.0 -1.0
outer loop
vertex 25.9072831653103 21.6093633038106 5.0
vertex 21.7626737398746 22.2097506504859 5.0
vertex 22.2662244177313 22.298840385799 5.0
endloop
endfacet
facet normal -0.0 -0.0 -1.0
outer loop
vertex 25.9072831653103 21.6093633038106 5.0
vertex 22.2662244177313 22.298840385799 5.0
vertex 22.60321602522 22.5970973257603 5.0
endloop
endfacet
facet normal -0.0 -0.0 -1.0
outer loop
vertex 25.9072831653103 21.6093633038106 5.0
vertex 22.60321602522 22.5970973257603 5.0
vertex 22.707799627544 23.0735337363477 5.0
endloop
endfacet
facet normal -0.0 -0.0 -1.0
outer loop
vertex 25.9072831653103 21.6093633038106 5.0
vertex 22.707799627544 23.0735337363477 5.0
vertex 24.8149655410366 22.3763097208539 5.0
endloop
endfacet
facet normal -0.0 -0.0 -1.0
outer loop
vertex 24.8149655410366 22.3763097208539 5.0
vertex 22.707799627544 23.0735337363477 5.0
vertex 24.4586065997842 22.7016809280844 5.0
endloop
endfacet
facet normal -0.0 -0.0 -1.0
outer loop
vertex 24.4586065997842 22.7016809280844 5.0
vertex 22.707799627544 23.0735337363477 5.0
vertex 24.3578964642129 23.1587500049081 5.0
endloop
endfacet
facet normal -0.0 -0.0 -1.0
outer loop
vertex 24.3578964642129 23.1587500049081 5.0
vertex 22.707799627544 23.0735337363477 5.0
vertex 24.3578964642129 31.9902542011638 5.0
endloop
endfacet
facet normal -0.0 -0.0 -1.0
outer loop
vertex 24.3578964642129 23.1587500049081 5.0
vertex 24.3578964642129 31.9902542011638 5.0
vertex 24.3578964642129 27.5745021030359 5.0
endloop
endfacet
facet normal -0.0 -0.0 -1.0
outer loop
vertex 24.3578964642129 23.1587500049081 5.0
vertex 24.3578964642129 27.5745021030359 5.0
vertex 24.3578964642129 26.9470004890915 5.0
endloop
endfacet
facet normal -0.0 -0.0 -1.0
outer loop
vertex 25.9072831653103 21.6093633038106 5.0
vertex 24.8149655410366 22.3763097208539 5.0
vertex 25.3185162188933 22.2446118512606 5.0
endloop
endfacet
facet normal -0.0 -0.0 -1.0
outer loop
vertex 25.9072831653103 21.6093633038106 5.0
vertex 25.3185162188933 22.2446118512606 5.0
vertex 25.9072831653103 22.1593955827002 5.0
endloop
endfacet
facet normal -0.0 -0.0 -1.0
outer loop
vertex 39.1545394596938 32.6022619480973 5.0
vertex 30.6484064706686 32.0522296692077 5.0
vertex 30.6484064706686 32.6022619480973 5.0
endloop
endfacet
facet normal -0.0 -0.0 -1.0
outer loop
vertex 30.6484064706686 32.0522296692077 5.0
vertex 39.1545394596938 32.6022619480973 5.0
vertex 31.2100591498165 31.9592664671418 5.0
endloop
endfacet
facet normal -0.0 -0.0 -1.0
outer loop
vertex 31.2100591498165 31.9592664671418 5.0
vertex 39.1545394596938 32.6022619480973 5.0
vertex 31.7717118289643 31.7810869965156 5.0
endloop
endfacet
facet normal -0.0 -0.0 -1.0
outer loop
vertex 31.7717118289643 31.7810869965156 5.0
vertex 39.1545394596938 32.6022619480973 5.0
vertex 33.8633838754459 31.9902542011638 5.0
endloop
endfacet
facet normal -0.0 -0.0 -1.0
outer loop
vertex 31.7717118289643 31.7810869965156 5.0
vertex 33.8633838754459 31.9902542011638 5.0
vertex 32.1280707702167 31.4595892560379 5.0
endloop
endfacet
facet normal -0.0 -0.0 -1.0
outer loop
vertex 32.1280707702167 31.4595892560379 5.0
vertex 33.8633838754459 31.9902542011638 5.0
vertex 32.2132870387771 31.0063936459669 5.0
endloop
endfacet
facet normal -0.0 -0.0 -1.0
outer loop
vertex 32.2132870387771 31.0063936459669 5.0
vertex 33.8633838754459 31.9902542011638 5.0
vertex 32.2132870387771 23.1045214703697 5.0
endloop
endfacet
facet normal -0.0 -0.0 -1.0
outer loop
vertex 33.8633838754459 31.9902542011638 5.0
vertex 39.1545394596938 32.6022619480973 5.0
vertex 35.5909500471696 31.9902542011638 5.0
endloop
endfacet
facet normal -0.0 -0.0 -1.0
outer loop
vertex 35.5909500471696 31.9902542011638 5.0
vertex 39.1545394596938 32.6022619480973 5.0
vertex 36.3501495307074 31.9747603341528 5.0
endloop
endfacet
facet normal -0.0 -0.0 -1.0
outer loop
vertex 36.3501495307074 31.9747603341528 5.0
vertex 39.1545394596938 32.6022619480973 5.0
vertex 36.9234226101134 31.9282787331199 5.0
endloop
endfacet
facet normal -0.0 -0.0 -1.0
outer loop
vertex 36.9234226101134 31.9282787331199 5.0
vertex 39.1545394596938 32.6022619480973 5.0
vertex 37.4008273873891 31.7162064284071 5.0
endloop
endfacet
facet normal -0.0 -0.0 -1.0
outer loop
vertex 37.4008273873891 31.7162064284071 5.0
vertex 39.1545394596938 32.6022619480973 5.0
vertex 37.9034096985576 31.2039404503568 5.0
endloop
endfacet
facet normal -0.0 -0.0 -1.0
outer loop
vertex 37.9034096985576 31.2039404503568 5.0
vertex 39.1545394596938 32.6022619480973 5.0
vertex 38.3285226746712 30.5599766027131 5.0
endloop
endfacet
facet normal -0.0 -0.0 -1.0
outer loop
vertex 38.3285226746712 30.5599766027131 5.0
vertex 39.1545394596938 32.6022619480973 5.0
vertex 38.5735194467823 29.9528106892206 5.0
endloop
endfacet
facet normal -0.0 -0.0 -1.0
outer loop
vertex 38.5735194467823 29.9528106892206 5.0
vertex 39.1545394596938 32.6022619480973 5.0
vertex 39.1545394596938 29.9528106892206 5.0
endloop
endfacet
facet normal -0.0 -0.0 -1.0
outer loop
vertex 35.1028932363239 27.6209837040689 5.0
vertex 33.8633838754459 26.9934820901244 5.0
vertex 33.8633838754459 27.6209837040689 5.0
endloop
endfacet
facet normal -0.0 -0.0 -1.0
outer loop
vertex 33.8633838754459 26.9934820901244 5.0
vertex 35.1028932363239 27.6209837040689 5.0
vertex 35.1028932363239 26.9934820901244 5.0
endloop
endfacet
facet normal -0.0 -0.0 -1.0
outer loop
vertex 35.1028932363239 26.9934820901244 5.0
vertex 35.1028932363239 27.6209837040689 5.0
vertex 35.9744232556912 27.7333142398984 5.0
endloop
endfacet
facet normal -0.0 -0.0 -1.0
outer loop
vertex 35.1028932363239 26.9934820901244 5.0
vertex 35.9744232556912 27.7333142398984 5.0
vertex 35.9124477876473 26.9005188880585 5.0
endloop
endfacet
facet normal -0.0 -0.0 -1.0
outer loop
vertex 35.9124477876473 26.9005188880585 5.0
vertex 35.9744232556912 27.7333142398984 5.0
vertex 36.2019894274149 26.7552638848306 5.0
endloop
endfacet
facet normal -0.0 -0.0 -1.0
outer loop
vertex 36.2019894274149 26.7552638848306 5.0
vertex 35.9744232556912 27.7333142398984 5.0
vertex 36.4586065997842 28.1090405149146 5.0
endloop
endfacet
facet normal -0.0 -0.0 -1.0
outer loop
vertex 36.2019894274149 26.7552638848306 5.0
vertex 36.4586065997842 28.1090405149146 5.0
vertex 36.4586065997842 26.5054252792787 5.0
endloop
endfacet
facet normal -0.0 -0.0 -1.0
outer loop
vertex 36.4586065997842 26.5054252792787 5.0
vertex 36.4586065997842 28.1090405149146 5.0
vertex 36.74911660624 28.7094278615898 5.0
endloop
endfacet
facet normal -0.0 -0.0 -1.0
outer loop
vertex 36.4586065997842 26.5054252792787 5.0
vertex 36.74911660624 28.7094278615898 5.0
vertex 36.7413696727345 25.9050379326034 5.0
endloop
endfacet
facet normal -0.0 -0.0 -1.0
outer loop
vertex 36.7413696727345 25.9050379326034 5.0
vertex 36.74911660624 28.7094278615898 5.0
vertex 36.9079287431025 25.1187241817964 5.0
endloop
endfacet
facet normal -0.0 -0.0 -1.0
outer loop
vertex 36.9079287431025 25.1187241817964 5.0
vertex 36.74911660624 28.7094278615898 5.0
vertex 36.9079287431025 29.4182722773419 5.0
endloop
endfacet
facet normal -0.0 -0.0 -1.0
outer loop
vertex 36.9079287431025 25.1187241817964 5.0
vertex 36.9079287431025 29.4182722773419 5.0
vertex 37.488948756014 29.4182722773419 5.0
endloop
endfacet
facet normal -0.0 -0.0 -1.0
outer loop
vertex 36.9079287431025 25.1187241817964 5.0
vertex 37.488948756014 29.4182722773419 5.0
vertex 37.488948756014 25.1187241817964 5.0
endloop
endfacet
facet normal -0.0 -0.0 -1.0
outer loop
vertex 31.2681611511076 22.2252445174969 5.0
vertex 30.6484064706686 21.6093633038106 5.0
vertex 30.6484064706686 22.1593955827002 5.0
endloop
endfacet
facet normal -0.0 -0.0 -1.0
outer loop
vertex 30.6484064706686 21.6093633038106 5.0
vertex 31.2681611511076 22.2252445174969 5.0
vertex 39.7742941401328 21.6093633038106 5.0
endloop
endfacet
facet normal -0.0 -0.0 -1.0
outer loop
vertex 39.7742941401328 21.6093633038106 5.0
vertex 31.2681611511076 22.2252445174969 5.0
vertex 31.7717118289643 22.329828119821 5.0
endloop
endfacet
facet normal -0.0 -0.0 -1.0
outer loop
vertex 39.7742941401328 21.6093633038106 5.0
vertex 31.7717118289643 22.329828119821 5.0
vertex 32.1164503699585 22.631958526535 5.0
endloop
endfacet
facet normal -0.0 -0.0 -1.0
outer loop
vertex 39.7742941401328 21.6093633038106 5.0
vertex 32.1164503699585 22.631958526535 5.0
vertex 34.754281228577 22.2872199855408 5.0
endloop
endfacet
facet normal -0.0 -0.0 -1.0
outer loop
vertex 34.754281228577 22.2872199855408 5.0
vertex 32.1164503699585 22.631958526535 5.0
vertex 32.2132870387771 23.1045214703697 5.0
endloop
endfacet
facet normal -0.0 -0.0 -1.0
outer loop
vertex 34.754281228577 22.2872199855408 5.0
vertex 32.2132870387771 23.1045214703697 5.0
vertex 34.2042489496874 22.4770198564252 5.0
endloop
endfacet
facet normal -0.0 -0.0 -1.0
outer loop
vertex 34.2042489496874 22.4770198564252 5.0
vertex 32.2132870387771 23.1045214703697 5.0
vertex 34.035753145943 22.6590727938042 5.0
endloop
endfacet
facet normal -0.0 -0.0 -1.0
outer loop
vertex 34.035753145943 22.6590727938042 5.0
vertex 32.2132870387771 23.1045214703697 5.0
vertex 33.9331062769953 22.9108481327325 5.0
endloop
endfacet
facet normal -0.0 -0.0 -1.0
outer loop
vertex 33.9331062769953 22.9108481327325 5.0
vertex 32.2132870387771 23.1045214703697 5.0
vertex 33.8633838754459 23.6932884167867 5.0
endloop
endfacet
facet normal -0.0 -0.0 -1.0
outer loop
vertex 33.8633838754459 23.6932884167867 5.0
vertex 32.2132870387771 23.1045214703697 5.0
vertex 33.8633838754459 31.9902542011638 5.0
endloop
endfacet
facet normal -0.0 -0.0 -1.0
outer loop
vertex 33.8633838754459 23.6932884167867 5.0
vertex 33.8633838754459 31.9902542011638 5.0
vertex 33.8633838754459 27.6209837040689 5.0
endloop
endfacet
facet normal -0.0 -0.0 -1.0
outer loop
vertex 33.8633838754459 23.6932884167867 5.0
vertex 33.8633838754459 27.6209837040689 5.0
vertex 33.8633838754459 26.9934820901244 5.0
endloop
endfacet
facet normal -0.0 -0.0 -1.0
outer loop
vertex 39.7742941401328 21.6093633038106 5.0
vertex 34.754281228577 22.2872199855408 5.0
vertex 35.7458887172794 22.2446118512606 5.0
endloop
endfacet
facet normal -0.0 -0.0 -1.0
outer loop
vertex 39.7742941401328 21.6093633038106 5.0
vertex 35.7458887172794 22.2446118512606 5.0
vertex 36.4198719322568 22.2446118512606 5.0
endloop
endfacet
facet normal -0.0 -0.0 -1.0
outer loop
vertex 39.7742941401328 21.6093633038106 5.0
vertex 36.4198719322568 22.2446118512606 5.0
vertex 37.1248428812561 22.2755995852825 5.0
endloop
endfacet
facet normal -0.0 -0.0 -1.0
outer loop
vertex 39.7742941401328 21.6093633038106 5.0
vertex 37.1248428812561 22.2755995852825 5.0
vertex 37.7329771614369 22.3879301211121 5.0
endloop
endfacet
facet normal -0.0 -0.0 -1.0
outer loop
vertex 39.7742941401328 21.6093633038106 5.0
vertex 37.7329771614369 22.3879301211121 5.0
vertex 38.1784258380024 22.6087177260185 5.0
endloop
endfacet
facet normal -0.0 -0.0 -1.0
outer loop
vertex 39.7742941401328 21.6093633038106 5.0
vertex 38.1784258380024 22.6087177260185 5.0
vertex 38.5435000794485 23.0764388364123 5.0
endloop
endfacet
facet normal -0.0 -0.0 -1.0
outer loop
vertex 39.7742941401328 21.6093633038106 5.0
vertex 38.5435000794485 23.0764388364123 5.0
vertex 38.9260049212819 23.7358965510669 5.0
endloop
endfacet
facet normal -0.0 -0.0 -1.0
outer loop
vertex 39.7742941401328 21.6093633038106 5.0
vertex 38.9260049212819 23.7358965510669 5.0
vertex 39.4256821323859 24.8475815091044 5.0
endloop
endfacet
facet normal -0.0 -0.0 -1.0
outer loop
vertex 39.7742941401328 21.6093633038106 5.0
vertex 39.4256821323859 24.8475815091044 5.0
vertex 39.983461344781 24.8475815091044 5.0
endloop
endfacet
facet normal 0.0 0.0 1.0
outer loop
vertex 25.9072831653103 21.6093633038106 8.0
vertex 21.1429190594356 22.1593955827002 8.0
vertex 21.1429190594356 21.6093633038106 8.0
endloop
endfacet
facet normal 0.0 0.0 1.0
outer loop
vertex 21.1429190594356 22.1593955827002 8.0
vertex 25.9072831653103 21.6093633038106 8.0
vertex 21.7626737398746 22.2097506504859 8.0
endloop
endfacet
facet normal 0.0 0.0 1.0
outer loop
vertex 21.7626737398746 22.2097506504859 8.0
vertex 25.9072831653103 21.6093633038106 8.0
vertex 22.2662244177313 22.298840385799 8.0
endloop
endfacet
facet normal 0.0 0.0 1.0
outer loop
vertex 22.2662244177313 22.298840385799 8.0
vertex 25.9072831653103 21.6093633038106 8.0
vertex 22.60321602522 22.5970973257603 8.0
endloop
endfacet
facet normal 0.0 0.0 1.0
outer loop
vertex 22.60321602522 22.5970973257603 8.0
vertex 25.9072831653103 21.6093633038106 8.0
vertex 22.707799627544 23.0735337363477 8.0
endloop
endfacet
facet normal 0.0 0.0 1.0
outer loop
vertex 22.707799627544 23.0735337363477 8.0
vertex 25.9072831653103 21.6093633038106 8.0
vertex 24.8149655410366 22.3763097208539 8.0
endloop
endfacet
facet normal 0.0 0.0 1.0
outer loop
vertex 22.707799627544 23.0735337363477 8.0
vertex 24.8149655410366 22.3763097208539 8.0
vertex 24.4586065997842 22.7016809280844 8.0
endloop
endfacet
facet normal 0.0 0.0 1.0
outer loop
vertex 22.707799627544 23.0735337363477 8.0
vertex 24.4586065997842 22.7016809280844 8.0
vertex 24.3578964642129 23.1587500049081 8.0
endloop
endfacet
facet normal 0.0 0.0 1.0
outer loop
vertex 22.707799627544 23.0735337363477 8.0
vertex 24.3578964642129 23.1587500049081 8.0
vertex 22.707799627544 31.0063936459669 8.0
endloop
endfacet
facet normal 0.0 0.0 1.0
outer loop
vertex 24.8149655410366 22.3763097208539 8.0
vertex 25.9072831653103 21.6093633038106 8.0
vertex 25.3185162188933 22.2446118512606 8.0
endloop
endfacet
facet normal 0.0 0.0 1.0
outer loop
vertex 25.3185162188933 22.2446118512606 8.0
vertex 25.9072831653103 21.6093633038106 8.0
vertex 25.9072831653103 22.1593955827002 8.0
endloop
endfacet
facet normal 0.0 0.0 1.0
outer loop
vertex 25.6206466256073 26.9470004890915 8.0
vertex 24.3578964642129 27.5745021030359 8.0
vertex 24.3578964642129 26.9470004890915 8.0
endloop
endfacet
facet normal 0.0 0.0 1.0
outer loop
vertex 24.3578964642129 27.5745021030359 8.0
vertex 25.6206466256073 26.9470004890915 8.0
vertex 25.6206466256073 27.5745021030359 8.0
endloop
endfacet
facet normal 0.0 0.0 1.0
outer loop
vertex 25.6206466256073 27.5745021030359 8.0
vertex 25.6206466256073 26.9470004890915 8.0
vertex 26.4689358444582 26.8424168867674 8.0
endloop
endfacet
facet normal 0.0 0.0 1.0
outer loop
vertex 25.6206466256073 27.5745021030359 8.0
vertex 26.4689358444582 26.8424168867674 8.0
vertex 26.5115439787384 27.694579572371 8.0
endloop
endfacet
facet normal 0.0 0.0 1.0
outer loop
vertex 26.5115439787384 27.694579572371 8.0
vertex 26.4689358444582 26.8424168867674 8.0
vertex 26.7914019516241 26.6923200500986 8.0
endloop
endfacet
facet normal 0.0 0.0 1.0
outer loop
vertex 26.5115439787384 27.694579572371 8.0
vertex 26.7914019516241 26.6923200500986 8.0
vertex 27.0538293241225 28.0625589138816 8.0
endloop
endfacet
facet normal 0.0 0.0 1.0
outer loop
vertex 27.0538293241225 28.0625589138816 8.0
vertex 26.7914019516241 26.6923200500986 8.0
vertex 27.0538293241225 26.4511967447403 8.0
endloop
endfacet
facet normal 0.0 0.0 1.0
outer loop
vertex 27.0538293241225 28.0625589138816 8.0
vertex 27.0538293241225 26.4511967447403 8.0
vertex 27.3443393305783 25.8236951307958 8.0
endloop
endfacet
facet normal 0.0 0.0 1.0
outer loop
vertex 27.0538293241225 28.0625589138816 8.0
vertex 27.3443393305783 25.8236951307958 8.0
vertex 27.3365923970728 28.5932238590075 8.0
endloop
endfacet
facet normal 0.0 0.0 1.0
outer loop
vertex 27.3365923970728 28.5932238590075 8.0
vertex 27.3443393305783 25.8236951307958 8.0
vertex 27.5031514674407 29.3640437428035 8.0
endloop
endfacet
facet normal 0.0 0.0 1.0
outer loop
vertex 27.5031514674407 29.3640437428035 8.0
vertex 27.3443393305783 25.8236951307958 8.0
vertex 27.5031514674407 25.049001780247 8.0
endloop
endfacet
facet normal 0.0 0.0 1.0
outer loop
vertex 27.5031514674407 29.3640437428035 8.0
vertex 27.5031514674407 25.049001780247 8.0
vertex 28.0919184138578 25.049001780247 8.0
endloop
endfacet
facet normal 0.0 0.0 1.0
outer loop
vertex 27.5031514674407 29.3640437428035 8.0
vertex 28.0919184138578 25.049001780247 8.0
vertex 28.0919184138578 29.3640437428035 8.0
endloop
endfacet
facet normal 0.0 0.0 1.0
outer loop
vertex 21.7045717385834 31.9592664671418 8.0
vertex 21.1429190594356 32.6022619480973 8.0
vertex 21.1429190594356 32.0522296692077 8.0
endloop
endfacet
facet normal 0.0 0.0 1.0
outer loop
vertex 21.1429190594356 32.6022619480973 8.0
vertex 21.7045717385834 31.9592664671418 8.0
vertex 29.7652560510431 32.6022619480973 8.0
endloop
endfacet
facet normal 0.0 0.0 1.0
outer loop
vertex 29.7652560510431 32.6022619480973 8.0
vertex 21.7045717385834 31.9592664671418 8.0
vertex 22.2662244177313 31.7810869965156 8.0
endloop
endfacet
facet normal 0.0 0.0 1.0
outer loop
vertex 29.7652560510431 32.6022619480973 8.0
vertex 22.2662244177313 31.7810869965156 8.0
vertex 24.3578964642129 31.9902542011638 8.0
endloop
endfacet
facet normal 0.0 0.0 1.0
outer loop
vertex 24.3578964642129 31.9902542011638 8.0
vertex 22.2662244177313 31.7810869965156 8.0
vertex 22.6225833589837 31.4595892560379 8.0
endloop
endfacet
facet normal 0.0 0.0 1.0
outer loop
vertex 24.3578964642129 31.9902542011638 8.0
vertex 22.6225833589837 31.4595892560379 8.0
vertex 22.707799627544 31.0063936459669 8.0
endloop
endfacet
facet normal 0.0 0.0 1.0
outer loop
vertex 24.3578964642129 31.9902542011638 8.0
vertex 22.707799627544 31.0063936459669 8.0
vertex 24.3578964642129 23.1587500049081 8.0
endloop
endfacet
facet normal 0.0 0.0 1.0
outer loop
vertex 24.3578964642129 31.9902542011638 8.0
vertex 24.3578964642129 23.1587500049081 8.0
vertex 24.3578964642129 26.9470004890915 8.0
endloop
endfacet
facet normal 0.0 0.0 1.0
outer loop
vertex 24.3578964642129 31.9902542011638 8.0
vertex 24.3578964642129 26.9470004890915 8.0
vertex 24.3578964642129 27.5745021030359 8.0
endloop
endfacet
facet normal 0.0 0.0 1.0
outer loop
vertex 29.7652560510431 32.6022619480973 8.0
vertex 24.3578964642129 31.9902542011638 8.0
vertex 26.2016666385189 31.9902542011638 8.0
endloop
endfacet
facet normal 0.0 0.0 1.0
outer loop
vertex 29.7652560510431 32.6022619480973 8.0
vertex 26.2016666385189 31.9902542011638 8.0
vertex 26.9492457217984 31.9747603341528 8.0
endloop
endfacet
facet normal 0.0 0.0 1.0
outer loop
vertex 29.7652560510431 32.6022619480973 8.0
vertex 26.9492457217984 31.9747603341528 8.0
vertex 27.5186453344517 31.9282787331199 8.0
endloop
endfacet
facet normal 0.0 0.0 1.0
outer loop
vertex 29.7652560510431 32.6022619480973 8.0
vertex 27.5186453344517 31.9282787331199 8.0
vertex 28.0018603118565 31.7016809280844 8.0
endloop
endfacet
facet normal 0.0 0.0 1.0
outer loop
vertex 29.7652560510431 32.6022619480973 8.0
vertex 28.0018603118565 31.7016809280844 8.0
vertex 28.5063793564014 31.1613323160766 8.0
endloop
endfacet
facet normal 0.0 0.0 1.0
outer loop
vertex 29.7652560510431 32.6022619480973 8.0
vertex 28.5063793564014 31.1613323160766 8.0
vertex 28.9334290658914 30.4854123677228 8.0
endloop
endfacet
facet normal 0.0 0.0 1.0
outer loop
vertex 29.7652560510431 32.6022619480973 8.0
vertex 28.9334290658914 30.4854123677228 8.0
vertex 29.1842360381315 29.8521005536492 8.0
endloop
endfacet
facet normal 0.0 0.0 1.0
outer loop
vertex 29.7652560510431 32.6022619480973 8.0
vertex 29.1842360381315 29.8521005536492 8.0
vertex 29.7652560510431 29.8521005536492 8.0
endloop
endfacet
facet normal 0.0 -1.0 0.0
outer loop
vertex 29.7652560510431 29.8521005536492 8.0
vertex 29.1842360381315 29.8521005536492 5.0
vertex 29.7652560510431 29.8521005536492 5.0
endloop
endfacet
facet normal 0.0 -1.0 0.0
outer loop
vertex 29.1842360381315 29.8521005536492 5.0
vertex 29.7652560510431 29.8521005536492 8.0
vertex 29.1842360381315 29.8521005536492 8.0
endloop
endfacet
facet normal -0.929745787703718 -0.36820207800499 0.0
outer loop
vertex 28.9334290658914 30.4854123677228 8.0
vertex 29.1842360381315 29.8521005536492 5.0
vertex 29.1842360381315 29.8521005536492 8.0
endloop
endfacet
facet normal -0.929745787703718 -0.36820207800499 0.0
outer loop
vertex 29.1842360381315 29.8521005536492 5.0
vertex 28.9334290658914 30.4854123677228 8.0
vertex 28.9334290658914 30.4854123677228 5.0
endloop
endfacet
facet normal -0.845402550545571 -0.534129691677072 0.0
outer loop
vertex 28.5063793564014 31.1613323160766 8.0
vertex 28.9334290658914 30.4854123677228 5.0
vertex 28.9334290658914 30.4854123677228 8.0
endloop
endfacet
facet normal -0.845402550545571 -0.534129691677072 0.0
outer loop
vertex 28.9334290658914 30.4854123677228 5.0
vertex 28.5063793564014 31.1613323160766 8.0
vertex 28.5063793564014 31.1613323160766 5.0
endloop
endfacet
facet normal -0.730924575908008 -0.682458250982211 0.0
outer loop
vertex 28.0018603118565 31.7016809280844 8.0
vertex 28.5063793564014 31.1613323160766 5.0
vertex 28.5063793564014 31.1613323160766 8.0
endloop
endfacet
facet normal -0.730924575908008 -0.682458250982211 0.0
outer loop
vertex 28.5063793564014 31.1613323160766 5.0
vertex 28.0018603118565 31.7016809280844 8.0
vertex 28.0018603118565 31.7016809280844 5.0
endloop
endfacet
facet normal -0.424573329907625 -0.90539355394831 0.0
outer loop
vertex 28.0018603118565 31.7016809280844 8.0
vertex 27.5186453344517 31.9282787331199 5.0
vertex 28.0018603118565 31.7016809280844 5.0
endloop
endfacet
facet normal -0.424573329907625 -0.90539355394831 0.0
outer loop
vertex 27.5186453344517 31.9282787331199 5.0
vertex 28.0018603118565 31.7016809280844 8.0
vertex 27.5186453344517 31.9282787331199 8.0
endloop
endfacet
facet normal -0.0813620094549088 -0.996684615822608 0.0
outer loop
vertex 27.5186453344517 31.9282787331199 8.0
vertex 26.9492457217984 31.9747603341528 5.0
vertex 27.5186453344517 31.9282787331199 5.0
endloop
endfacet
facet normal -0.0813620094549088 -0.996684615822608 0.0
outer loop
vertex 26.9492457217984 31.9747603341528 5.0
vertex 27.5186453344517 31.9282787331199 8.0
vertex 26.9492457217984 31.9747603341528 8.0
endloop
endfacet
facet normal -0.0207209388248427 -0.999785298298698 0.0
outer loop
vertex 26.9492457217984 31.9747603341528 8.0
vertex 26.2016666385189 31.9902542011638 5.0
vertex 26.9492457217984 31.9747603341528 5.0
endloop
endfacet
facet normal -0.0103610255598012 -0.999946323134072 0.0
outer loop
vertex 26.2016666385189 31.9902542011638 5.0
vertex 26.9492457217984 31.9747603341528 8.0
vertex 26.2016666385189 31.9902542011638 8.0
endloop
endfacet
facet normal -0.0103610255598012 -0.999946323134072 0.0
outer loop
vertex 26.2016666385189 31.9902542011638 8.0
vertex 24.3578964642129 31.9902542011638 5.0
vertex 26.2016666385189 31.9902542011638 5.0
endloop
endfacet
facet normal 0.0 -1.0 0.0
outer loop
vertex 24.3578964642129 31.9902542011638 5.0
vertex 26.2016666385189 31.9902542011638 8.0
vertex 24.3578964642129 31.9902542011638 8.0
endloop
endfacet
facet normal 1.0 0.0 0.0
outer loop
vertex 24.3578964642129 31.9902542011638 5.0
vertex 24.3578964642129 27.5745021030359 8.0
vertex 24.3578964642129 27.5745021030359 5.0
endloop
endfacet
facet normal 1.0 0.0 0.0
outer loop
vertex 24.3578964642129 27.5745021030359 8.0
vertex 24.3578964642129 31.9902542011638 5.0
vertex 24.3578964642129 31.9902542011638 8.0
endloop
endfacet
facet normal 0.0 1.0 0.0
outer loop
vertex 24.3578964642129 27.5745021030359 8.0
vertex 25.6206466256073 27.5745021030359 5.0
vertex 24.3578964642129 27.5745021030359 5.0
endloop
endfacet
facet normal -0.0669375226451604 0.99775716888536 0.0
outer loop
vertex 25.6206466256073 27.5745021030359 5.0
vertex 24.3578964642129 27.5745021030359 8.0
vertex 25.6206466256073 27.5745021030359 8.0
endloop
endfacet
facet normal -0.0669375226451604 0.99775716888536 0.0
outer loop
vertex 25.6206466256073 27.5745021030359 8.0
vertex 26.5115439787384 27.694579572371 5.0
vertex 25.6206466256073 27.5745021030359 5.0
endloop
endfacet
facet normal -0.13357478617327 0.991038736124257 0.0
outer loop
vertex 26.5115439787384 27.694579572371 5.0
vertex 25.6206466256073 27.5745021030359 8.0
vertex 26.5115439787384 27.694579572371 8.0
endloop
endfacet
facet normal -0.561501418337265 0.827475774391758 0.0
outer loop
vertex 26.5115439787384 27.694579572371 8.0
vertex 27.0538293241225 28.0625589138816 5.0
vertex 26.5115439787384 27.694579572371 5.0
endloop
endfacet
facet normal -0.561501418337265 0.827475774391758 0.0
outer loop
vertex 27.0538293241225 28.0625589138816 5.0
vertex 26.5115439787384 27.694579572371 8.0
vertex 27.0538293241225 28.0625589138816 8.0
endloop
endfacet
facet normal -0.882531198480715 0.470253850285346 0.0
outer loop
vertex 27.3365923970728 28.5932238590075 8.0
vertex 27.0538293241225 28.0625589138816 5.0
vertex 27.0538293241225 28.0625589138816 8.0
endloop
endfacet
facet normal -0.882531198480715 0.470253850285346 0.0
outer loop
vertex 27.0538293241225 28.0625589138816 5.0
vertex 27.3365923970728 28.5932238590075 8.0
vertex 27.3365923970728 28.5932238590075 5.0
endloop
endfacet
facet normal -0.977441578101077 0.211205969137419 0.0
outer loop
vertex 27.5031514674407 29.3640437428035 8.0
vertex 27.3365923970728 28.5932238590075 5.0
vertex 27.3365923970728 28.5932238590075 8.0
endloop
endfacet
facet normal -0.977441578101077 0.211205969137419 0.0
outer loop
vertex 27.3365923970728 28.5932238590075 5.0
vertex 27.5031514674407 29.3640437428035 8.0
vertex 27.5031514674407 29.3640437428035 5.0
endloop
endfacet
facet normal 0.0 1.0 0.0
outer loop
vertex 27.5031514674407 29.3640437428035 8.0
vertex 28.0919184138578 29.3640437428035 5.0
vertex 27.5031514674407 29.3640437428035 5.0
endloop
endfacet
facet normal 0.0 1.0 0.0
outer loop
vertex 28.0919184138578 29.3640437428035 5.0
vertex 27.5031514674407 29.3640437428035 8.0
vertex 28.0919184138578 29.3640437428035 8.0
endloop
endfacet
facet normal 1.0 0.0 0.0
outer loop
vertex 28.0919184138578 29.3640437428035 5.0
vertex 28.0919184138578 25.049001780247 8.0
vertex 28.0919184138578 25.049001780247 5.0
endloop
endfacet
facet normal 1.0 0.0 0.0
outer loop
vertex 28.0919184138578 25.049001780247 8.0
vertex 28.0919184138578 29.3640437428035 5.0
vertex 28.0919184138578 29.3640437428035 8.0
endloop
endfacet
facet normal 0.0 -1.0 0.0
outer loop
vertex 28.0919184138578 25.049001780247 8.0
vertex 27.5031514674407 25.049001780247 5.0
vertex 28.0919184138578 25.049001780247 5.0
endloop
endfacet
facet normal 0.0 -1.0 0.0
outer loop
vertex 27.5031514674407 25.049001780247 5.0
vertex 28.0919184138578 25.049001780247 8.0
vertex 27.5031514674407 25.049001780247 8.0
endloop
endfacet
facet normal -0.97962741568593 -0.200823620215617 0.0
outer loop
vertex 27.3443393305783 25.8236951307958 8.0
vertex 27.5031514674407 25.049001780247 5.0
vertex 27.5031514674407 25.049001780247 8.0
endloop
endfacet
facet normal -0.97962741568593 -0.200823620215617 0.0
outer loop
vertex 27.5031514674407 25.049001780247 5.0
vertex 27.3443393305783 25.8236951307958 8.0
vertex 27.3443393305783 25.8236951307958 5.0
endloop
endfacet
facet normal -0.907466907119841 -0.420123568111038 0.0
outer loop
vertex 27.0538293241225 26.4511967447403 8.0
vertex 27.3443393305783 25.8236951307958 5.0
vertex 27.3443393305783 25.8236951307958 8.0
endloop
endfacet
facet normal -0.907466907119841 -0.420123568111038 0.0
outer loop
vertex 27.3443393305783 25.8236951307958 5.0
vertex 27.0538293241225 26.4511967447403 8.0
vertex 27.0538293241225 26.4511967447403 5.0
endloop
endfacet
facet normal -0.676585471800276 -0.73636410786295 0.0
outer loop
vertex 27.0538293241225 26.4511967447403 8.0
vertex 26.7914019516241 26.6923200500986 5.0
vertex 27.0538293241225 26.4511967447403 5.0
endloop
endfacet
facet normal -0.676585471800276 -0.73636410786295 0.0
outer loop
vertex 26.7914019516241 26.6923200500986 5.0
vertex 27.0538293241225 26.4511967447403 8.0
vertex 26.7914019516241 26.6923200500986 8.0
endloop
endfacet
facet normal -0.421991000174031 -0.906600019728723 0.0
outer loop
vertex 26.7914019516241 26.6923200500986 8.0
vertex 26.4689358444582 26.8424168867674 5.0
vertex 26.7914019516241 26.6923200500986 5.0
endloop
endfacet
facet normal -0.421991000174031 -0.906600019728723 0.0
outer loop
vertex 26.4689358444582 26.8424168867674 5.0
vertex 26.7914019516241 26.6923200500986 8.0
vertex 26.4689358444582 26.8424168867674 8.0
endloop
endfacet
facet normal -0.122361242096783 -0.992485630340577 0.0
outer loop
vertex 26.4689358444582 26.8424168867674 8.0
vertex 25.6206466256073 26.9470004890915 5.0
vertex 26.4689358444582 26.8424168867674 5.0
endloop
endfacet
facet normal -0.0612958793860688 -0.99811963970773 0.0
outer loop
vertex 25.6206466256073 26.9470004890915 5.0
vertex 26.4689358444582 26.8424168867674 8.0
vertex 25.6206466256073 26.9470004890915 8.0
endloop
endfacet
facet normal -0.0612958793860688 -0.99811963970773 0.0
outer loop
vertex 25.6206466256073 26.9470004890915 8.0
vertex 24.3578964642129 26.9470004890915 5.0
vertex 25.6206466256073 26.9470004890915 5.0
endloop
endfacet
facet normal 0.0 -1.0 0.0
outer loop
vertex 24.3578964642129 26.9470004890915 5.0
vertex 25.6206466256073 26.9470004890915 8.0
vertex 24.3578964642129 26.9470004890915 8.0
endloop
endfacet
facet normal 1.0 0.0 0.0
outer loop
vertex 24.3578964642129 26.9470004890915 5.0
vertex 24.3578964642129 23.1587500049081 8.0
vertex 24.3578964642129 23.1587500049081 5.0
endloop
endfacet
facet normal 0.994126488066482 0.10822442295805 0.0
outer loop
vertex 24.3578964642129 23.1587500049081 8.0
vertex 24.3578964642129 26.9470004890915 5.0
vertex 24.3578964642129 26.9470004890915 8.0
endloop
endfacet
facet normal 0.994126488066482 0.10822442295805 0.0
outer loop
vertex 24.3578964642129 23.1587500049081 5.0
vertex 24.4586065997842 22.7016809280844 8.0
vertex 24.4586065997842 22.7016809280844 5.0
endloop
endfacet
facet normal 0.976574948550794 0.215177531036616 0.0
outer loop
vertex 24.4586065997842 22.7016809280844 8.0
vertex 24.3578964642129 23.1587500049081 5.0
vertex 24.3578964642129 23.1587500049081 8.0
endloop
endfacet
facet normal 0.674269364021332 0.738485493928126 0.0
outer loop
vertex 24.4586065997842 22.7016809280844 8.0
vertex 24.8149655410366 22.3763097208539 5.0
vertex 24.4586065997842 22.7016809280844 5.0
endloop
endfacet
facet normal 0.674269364021332 0.738485493928126 0.0
outer loop
vertex 24.8149655410366 22.3763097208539 5.0
vertex 24.4586065997842 22.7016809280844 8.0
vertex 24.8149655410366 22.3763097208539 8.0
endloop
endfacet
facet normal 0.253027744393526 0.967459022681128 0.0
outer loop
vertex 24.8149655410366 22.3763097208539 8.0
vertex 25.3185162188933 22.2446118512606 5.0
vertex 24.8149655410366 22.3763097208539 5.0
endloop
endfacet
facet normal 0.253027744393526 0.967459022681128 0.0
outer loop
vertex 25.3185162188933 22.2446118512606 5.0
vertex 24.8149655410366 22.3763097208539 8.0
vertex 25.3185162188933 22.2446118512606 8.0
endloop
endfacet
facet normal 0.143244224732731 0.989687370880683 0.0
outer loop
vertex 25.3185162188933 22.2446118512606 8.0
vertex 25.9072831653103 22.1593955827002 5.0
vertex 25.3185162188933 22.2446118512606 5.0
endloop
endfacet
facet normal 0.143244224732731 0.989687370880683 0.0
outer loop
vertex 25.9072831653103 22.1593955827002 5.0
vertex 25.3185162188933 22.2446118512606 8.0
vertex 25.9072831653103 22.1593955827002 8.0
endloop
endfacet
facet normal 1.0 0.0 0.0
outer loop
vertex 25.9072831653103 22.1593955827002 5.0
vertex 25.9072831653103 21.6093633038106 8.0
vertex 25.9072831653103 21.6093633038106 5.0
endloop
endfacet
facet normal 1.0 0.0 0.0
outer loop
vertex 25.9072831653103 21.6093633038106 8.0
vertex 25.9072831653103 22.1593955827002 5.0
vertex 25.9072831653103 22.1593955827002 8.0
endloop
endfacet
facet normal 0.0 -1.0 0.0
outer loop
vertex 25.9072831653103 21.6093633038106 8.0
vertex 21.1429190594356 21.6093633038106 5.0
vertex 25.9072831653103 21.6093633038106 5.0
endloop
endfacet
facet normal 0.0 -1.0 0.0
outer loop
vertex 21.1429190594356 21.6093633038106 5.0
vertex 25.9072831653103 21.6093633038106 8.0
vertex 21.1429190594356 21.6093633038106 8.0
endloop
endfacet
facet normal -1.0 0.0 0.0
outer loop
vertex 21.1429190594356 22.1593955827002 8.0
vertex 21.1429190594356 21.6093633038106 5.0
vertex 21.1429190594356 21.6093633038106 8.0
endloop
endfacet
facet normal -1.0 0.0 0.0
outer loop
vertex 21.1429190594356 21.6093633038106 5.0
vertex 21.1429190594356 22.1593955827002 8.0
vertex 21.1429190594356 22.1593955827002 5.0
endloop
endfacet
facet normal -0.0809831321077375 0.996715472095232 0.0
outer loop
vertex 21.1429190594356 22.1593955827002 8.0
vertex 21.7626737398746 22.2097506504859 5.0
vertex 21.1429190594356 22.1593955827002 5.0
endloop
endfacet
facet normal -0.0809831321077375 0.996715472095232 0.0
outer loop
vertex 21.7626737398746 22.2097506504859 5.0
vertex 21.1429190594356 22.1593955827002 8.0
vertex 21.7626737398746 22.2097506504859 8.0
endloop
endfacet
facet normal -0.174217429273892 0.984707208939386 0.0
outer loop
vertex 21.7626737398746 22.2097506504859 8.0
vertex 22.2662244177313 22.298840385799 5.0
vertex 21.7626737398746 22.2097506504859 5.0
endloop
endfacet
facet normal -0.174217429273892 0.984707208939386 0.0
outer loop
vertex 22.2662244177313 22.298840385799 5.0
vertex 21.7626737398746 22.2097506504859 8.0
vertex 22.2662244177313 22.298840385799 8.0
endloop
endfacet
facet normal -0.662759578804919 0.748832251376987 0.0
outer loop
vertex 22.2662244177313 22.298840385799 8.0
vertex 22.60321602522 22.5970973257603 5.0
vertex 22.2662244177313 22.298840385799 5.0
endloop
endfacet
facet normal -0.662759578804919 0.748832251376987 0.0
outer loop
vertex 22.60321602522 22.5970973257603 5.0
vertex 22.2662244177313 22.298840385799 8.0
vertex 22.60321602522 22.5970973257603 8.0
endloop
endfacet
facet normal -0.994169086014015 0.107832408922634 0.0
outer loop
vertex 22.707799627544 23.0735337363477 8.0
vertex 22.60321602522 22.5970973257603 5.0
vertex 22.60321602522 22.5970973257603 8.0
endloop
endfacet
facet normal -0.976744343171884 0.214407294842608 0.0
outer loop
vertex 22.60321602522 22.5970973257603 5.0
vertex 22.707799627544 23.0735337363477 8.0
vertex 22.707799627544 23.0735337363477 5.0
endloop
endfacet
facet normal -0.995684931084614 -0.0927982651294106 0.0
outer loop
vertex 22.707799627544 31.0063936459669 8.0
vertex 22.707799627544 23.0735337363477 5.0
vertex 22.707799627544 23.0735337363477 8.0
endloop
endfacet
facet normal -0.994169086014015 0.107832408922634 0.0
outer loop
vertex 22.707799627544 23.0735337363477 5.0
vertex 22.707799627544 31.0063936459669 8.0
vertex 22.707799627544 31.0063936459669 5.0
endloop
endfacet
facet normal -0.982776963977943 -0.184795668440298 0.0
outer loop
vertex 22.6225833589837 31.4595892560379 8.0
vertex 22.707799627544 31.0063936459669 5.0
vertex 22.707799627544 31.0063936459669 8.0
endloop
endfacet
facet normal -0.995684931084614 -0.0927982651294106 0.0
outer loop
vertex 22.707799627544 31.0063936459669 5.0
vertex 22.6225833589837 31.4595892560379 8.0
vertex 22.6225833589837 31.4595892560379 5.0
endloop
endfacet
facet normal -0.669856024139719 -0.742491014709086 0.0
outer loop
vertex 22.6225833589837 31.4595892560379 8.0
vertex 22.2662244177313 31.7810869965156 5.0
vertex 22.6225833589837 31.4595892560379 5.0
endloop
endfacet
facet normal -0.669856024139719 -0.742491014709086 0.0
outer loop
vertex 22.2662244177313 31.7810869965156 5.0
vertex 22.6225833589837 31.4595892560379 8.0
vertex 22.2662244177313 31.7810869965156 8.0
endloop
endfacet
facet normal -0.302389544293434 -0.953184433098867 0.0
outer loop
vertex 22.2662244177313 31.7810869965156 8.0
vertex 21.7045717385834 31.9592664671418 5.0
vertex 22.2662244177313 31.7810869965156 5.0
endloop
endfacet
facet normal -0.302389544293434 -0.953184433098867 0.0
outer loop
vertex 21.7045717385834 31.9592664671418 5.0
vertex 22.2662244177313 31.7810869965156 8.0
vertex 21.7045717385834 31.9592664671418 8.0
endloop
endfacet
facet normal -0.163295536240031 -0.986577198116843 0.0
outer loop
vertex 21.7045717385834 31.9592664671418 8.0
vertex 21.1429190594356 32.0522296692077 5.0
vertex 21.7045717385834 31.9592664671418 5.0
endloop
endfacet
facet normal -0.163295536240031 -0.986577198116843 0.0
outer loop
vertex 21.1429190594356 32.0522296692077 5.0
vertex 21.7045717385834 31.9592664671418 8.0
vertex 21.1429190594356 32.0522296692077 8.0
endloop
endfacet
facet normal -1.0 0.0 0.0
outer loop
vertex 21.1429190594356 32.6022619480973 8.0
vertex 21.1429190594356 32.0522296692077 5.0
vertex 21.1429190594356 32.0522296692077 8.0
endloop
endfacet
facet normal -1.0 0.0 0.0
outer loop
vertex 21.1429190594356 32.0522296692077 5.0
vertex 21.1429190594356 32.6022619480973 8.0
vertex 21.1429190594356 32.6022619480973 5.0
endloop
endfacet
facet normal 0.0 1.0 0.0
outer loop
vertex 21.1429190594356 32.6022619480973 8.0
vertex 29.7652560510431 32.6022619480973 5.0
vertex 21.1429190594356 32.6022619480973 5.0
endloop
endfacet
facet normal 0.0 1.0 0.0
outer loop
vertex 29.7652560510431 32.6022619480973 5.0
vertex 21.1429190594356 32.6022619480973 8.0
vertex 29.7652560510431 32.6022619480973 8.0
endloop
endfacet
facet normal 1.0 0.0 0.0
outer loop
vertex 29.7652560510431 32.6022619480973 5.0
vertex 29.7652560510431 29.8521005536492 8.0
vertex 29.7652560510431 29.8521005536492 5.0
endloop
endfacet
facet normal 1.0 0.0 0.0
outer loop
vertex 29.7652560510431 29.8521005536492 8.0
vertex 29.7652560510431 32.6022619480973 5.0
vertex 29.7652560510431 32.6022619480973 8.0
endloop
endfacet
facet normal 0.0 0.0 1.0
outer loop
vertex 39.7742941401328 21.6093633038106 8.0
vertex 30.6484064706686 22.1593955827002 8.0
vertex 30.6484064706686 21.6093633038106 8.0
endloop
endfacet
facet normal 0.0 0.0 1.0
outer loop
vertex 30.6484064706686 22.1593955827002 8.0
vertex 39.7742941401328 21.6093633038106 8.0
vertex 31.2681611511076 22.2252445174969 8.0
endloop
endfacet
facet normal 0.0 0.0 1.0
outer loop
vertex 31.2681611511076 22.2252445174969 8.0
vertex 39.7742941401328 21.6093633038106 8.0
vertex 31.7717118289643 22.329828119821 8.0
endloop
endfacet
facet normal 0.0 0.0 1.0
outer loop
vertex 31.7717118289643 22.329828119821 8.0
vertex 39.7742941401328 21.6093633038106 8.0
vertex 32.1164503699585 22.631958526535 8.0
endloop
endfacet
facet normal 0.0 0.0 1.0
outer loop
vertex 32.1164503699585 22.631958526535 8.0
vertex 39.7742941401328 21.6093633038106 8.0
vertex 34.754281228577 22.2872199855408 8.0
endloop
endfacet
facet normal 0.0 0.0 1.0
outer loop
vertex 32.1164503699585 22.631958526535 8.0
vertex 34.754281228577 22.2872199855408 8.0
vertex 32.2132870387771 23.1045214703697 8.0
endloop
endfacet
facet normal 0.0 0.0 1.0
outer loop
vertex 32.2132870387771 23.1045214703697 8.0
vertex 34.754281228577 22.2872199855408 8.0
vertex 34.2042489496874 22.4770198564252 8.0
endloop
endfacet
facet normal 0.0 0.0 1.0
outer loop
vertex 32.2132870387771 23.1045214703697 8.0
vertex 34.2042489496874 22.4770198564252 8.0
vertex 34.035753145943 22.6590727938042 8.0
endloop
endfacet
facet normal 0.0 0.0 1.0
outer loop
vertex 32.2132870387771 23.1045214703697 8.0
vertex 34.035753145943 22.6590727938042 8.0
vertex 33.9331062769953 22.9108481327325 8.0
endloop
endfacet
facet normal 0.0 0.0 1.0
outer loop
vertex 32.2132870387771 23.1045214703697 8.0
vertex 33.9331062769953 22.9108481327325 8.0
vertex 32.2132870387771 31.0063936459669 8.0
endloop
endfacet
facet normal 0.0 0.0 1.0
outer loop
vertex 32.2132870387771 31.0063936459669 8.0
vertex 33.9331062769953 22.9108481327325 8.0
vertex 33.8633838754459 23.6932884167867 8.0
endloop
endfacet
facet normal 0.0 0.0 1.0
outer loop
vertex 34.754281228577 22.2872199855408 8.0
vertex 39.7742941401328 21.6093633038106 8.0
vertex 35.7458887172794 22.2446118512606 8.0
endloop
endfacet
facet normal 0.0 0.0 1.0
outer loop
vertex 35.7458887172794 22.2446118512606 8.0
vertex 39.7742941401328 21.6093633038106 8.0
vertex 36.4198719322568 22.2446118512606 8.0
endloop
endfacet
facet normal 0.0 0.0 1.0
outer loop
vertex 36.4198719322568 22.2446118512606 8.0
vertex 39.7742941401328 21.6093633038106 8.0
vertex 37.1248428812561 22.2755995852825 8.0
endloop
endfacet
facet normal 0.0 0.0 1.0
outer loop
vertex 37.1248428812561 22.2755995852825 8.0
vertex 39.7742941401328 21.6093633038106 8.0
vertex 37.7329771614369 22.3879301211121 8.0
endloop
endfacet
facet normal 0.0 0.0 1.0
outer loop
vertex 37.7329771614369 22.3879301211121 8.0
vertex 39.7742941401328 21.6093633038106 8.0
vertex 38.1784258380024 22.6087177260185 8.0
endloop
endfacet
facet normal 0.0 0.0 1.0
outer loop
vertex 38.1784258380024 22.6087177260185 8.0
vertex 39.7742941401328 21.6093633038106 8.0
vertex 38.5435000794485 23.0764388364123 8.0
endloop
endfacet
facet normal 0.0 0.0 1.0
outer loop
vertex 38.5435000794485 23.0764388364123 8.0
vertex 39.7742941401328 21.6093633038106 8.0
vertex 38.9260049212819 23.7358965510669 8.0
endloop
endfacet
facet normal 0.0 0.0 1.0
outer loop
vertex 38.9260049212819 23.7358965510669 8.0
vertex 39.7742941401328 21.6093633038106 8.0
vertex 39.4256821323859 24.8475815091044 8.0
endloop
endfacet
facet normal 0.0 0.0 1.0
outer loop
vertex 39.4256821323859 24.8475815091044 8.0
vertex 39.7742941401328 21.6093633038106 8.0
vertex 39.983461344781 24.8475815091044 8.0
endloop
endfacet
facet normal 0.0 0.0 1.0
outer loop
vertex 35.1028932363239 26.9934820901244 8.0
vertex 33.8633838754459 27.6209837040689 8.0
vertex 33.8633838754459 26.9934820901244 8.0
endloop
endfacet
facet normal 0.0 0.0 1.0
outer loop
vertex 33.8633838754459 27.6209837040689 8.0
vertex 35.1028932363239 26.9934820901244 8.0
vertex 35.1028932363239 27.6209837040689 8.0
endloop
endfacet
facet normal 0.0 0.0 1.0
outer loop
vertex 35.1028932363239 27.6209837040689 8.0
vertex 35.1028932363239 26.9934820901244 8.0
vertex 35.9124477876473 26.9005188880585 8.0
endloop
endfacet
facet normal 0.0 0.0 1.0
outer loop
vertex 35.1028932363239 27.6209837040689 8.0
vertex 35.9124477876473 26.9005188880585 8.0
vertex 35.9744232556912 27.7333142398984 8.0
endloop
endfacet
facet normal 0.0 0.0 1.0
outer loop
vertex 35.9744232556912 27.7333142398984 8.0
vertex 35.9124477876473 26.9005188880585 8.0
vertex 36.2019894274149 26.7552638848306 8.0
endloop
endfacet
facet normal 0.0 0.0 1.0
outer loop
vertex 35.9744232556912 27.7333142398984 8.0
vertex 36.2019894274149 26.7552638848306 8.0
vertex 36.4586065997842 28.1090405149146 8.0
endloop
endfacet
facet normal 0.0 0.0 1.0
outer loop
vertex 36.4586065997842 28.1090405149146 8.0
vertex 36.2019894274149 26.7552638848306 8.0
vertex 36.4586065997842 26.5054252792787 8.0
endloop
endfacet
facet normal 0.0 0.0 1.0
outer loop
vertex 36.4586065997842 28.1090405149146 8.0
vertex 36.4586065997842 26.5054252792787 8.0
vertex 36.7413696727345 25.9050379326034 8.0
endloop
endfacet
facet normal 0.0 0.0 1.0
outer loop
vertex 36.4586065997842 28.1090405149146 8.0
vertex 36.7413696727345 25.9050379326034 8.0
vertex 36.74911660624 28.7094278615898 8.0
endloop
endfacet
facet normal 0.0 0.0 1.0
outer loop
vertex 36.74911660624 28.7094278615898 8.0
vertex 36.7413696727345 25.9050379326034 8.0
vertex 36.9079287431025 25.1187241817964 8.0
endloop
endfacet
facet normal 0.0 0.0 1.0
outer loop
vertex 36.74911660624 28.7094278615898 8.0
vertex 36.9079287431025 25.1187241817964 8.0
vertex 36.9079287431025 29.4182722773419 8.0
endloop
endfacet
facet normal 0.0 0.0 1.0
outer loop
vertex 36.9079287431025 29.4182722773419 8.0
vertex 36.9079287431025 25.1187241817964 8.0
vertex 37.488948756014 25.1187241817964 8.0
endloop
endfacet
facet normal 0.0 0.0 1.0
outer loop
vertex 36.9079287431025 29.4182722773419 8.0
vertex 37.488948756014 25.1187241817964 8.0
vertex 37.488948756014 29.4182722773419 8.0
endloop
endfacet
facet normal 0.0 0.0 1.0
outer loop
vertex 31.2100591498165 31.9592664671418 8.0
vertex 30.6484064706686 32.6022619480973 8.0
vertex 30.6484064706686 32.0522296692077 8.0
endloop
endfacet
facet normal 0.0 0.0 1.0
outer loop
vertex 30.6484064706686 32.6022619480973 8.0
vertex 31.2100591498165 31.9592664671418 8.0
vertex 39.1545394596938 32.6022619480973 8.0
endloop
endfacet
facet normal 0.0 0.0 1.0
outer loop
vertex 39.1545394596938 32.6022619480973 8.0
vertex 31.2100591498165 31.9592664671418 8.0
vertex 31.7717118289643 31.7810869965156 8.0
endloop
endfacet
facet normal 0.0 0.0 1.0
outer loop
vertex 39.1545394596938 32.6022619480973 8.0
vertex 31.7717118289643 31.7810869965156 8.0
vertex 33.8633838754459 31.9902542011638 8.0
endloop
endfacet
facet normal 0.0 0.0 1.0
outer loop
vertex 33.8633838754459 31.9902542011638 8.0
vertex 31.7717118289643 31.7810869965156 8.0
vertex 32.1280707702167 31.4595892560379 8.0
endloop
endfacet
facet normal 0.0 0.0 1.0
outer loop
vertex 33.8633838754459 31.9902542011638 8.0
vertex 32.1280707702167 31.4595892560379 8.0
vertex 32.2132870387771 31.0063936459669 8.0
endloop
endfacet
facet normal 0.0 0.0 1.0
outer loop
vertex 33.8633838754459 31.9902542011638 8.0
vertex 32.2132870387771 31.0063936459669 8.0
vertex 33.8633838754459 23.6932884167867 8.0
endloop
endfacet
facet normal 0.0 0.0 1.0
outer loop
vertex 33.8633838754459 31.9902542011638 8.0
vertex 33.8633838754459 23.6932884167867 8.0
vertex 33.8633838754459 26.9934820901244 8.0
endloop
endfacet
facet normal 0.0 0.0 1.0
outer loop
vertex 33.8633838754459 31.9902542011638 8.0
vertex 33.8633838754459 26.9934820901244 8.0
vertex 33.8633838754459 27.6209837040689 8.0
endloop
endfacet
facet normal 0.0 0.0 1.0
outer loop
vertex 39.1545394596938 32.6022619480973 8.0
vertex 33.8633838754459 31.9902542011638 8.0
vertex 35.5909500471696 31.9902542011638 8.0
endloop
endfacet
facet normal 0.0 0.0 1.0
outer loop
vertex 39.1545394596938 32.6022619480973 8.0
vertex 35.5909500471696 31.9902542011638 8.0
vertex 36.3501495307074 31.9747603341528 8.0
endloop
endfacet
facet normal 0.0 0.0 1.0
outer loop
vertex 39.1545394596938 32.6022619480973 8.0
vertex 36.3501495307074 31.9747603341528 8.0
vertex 36.9234226101134 31.9282787331199 8.0
endloop
endfacet
facet normal 0.0 0.0 1.0
outer loop
vertex 39.1545394596938 32.6022619480973 8.0
vertex 36.9234226101134 31.9282787331199 8.0
vertex 37.4008273873891 31.7162064284071 8.0
endloop
endfacet
facet normal 0.0 0.0 1.0
outer loop
vertex 39.1545394596938 32.6022619480973 8.0
vertex 37.4008273873891 31.7162064284071 8.0
vertex 37.9034096985576 31.2039404503568 8.0
endloop
endfacet
facet normal 0.0 0.0 1.0
outer loop
vertex 39.1545394596938 32.6022619480973 8.0
vertex 37.9034096985576 31.2039404503568 8.0
vertex 38.3285226746712 30.5599766027131 8.0
endloop
endfacet
facet normal 0.0 0.0 1.0
outer loop
vertex 39.1545394596938 32.6022619480973 8.0
vertex 38.3285226746712 30.5599766027131 8.0
vertex 38.5735194467823 29.9528106892206 8.0
endloop
endfacet
facet normal 0.0 0.0 1.0
outer loop
vertex 39.1545394596938 32.6022619480973 8.0
vertex 38.5735194467823 29.9528106892206 8.0
vertex 39.1545394596938 29.9528106892206 8.0
endloop
endfacet
facet normal 0.997920358105858 -0.0644589704996612 0.0
outer loop
vertex 39.983461344781 24.8475815091044 5.0
vertex 39.7742941401328 21.6093633038106 8.0
vertex 39.7742941401328 21.6093633038106 5.0
endloop
endfacet
facet normal 0.997920358105858 -0.0644589704996612 0.0
outer loop
vertex 39.7742941401328 21.6093633038106 8.0
vertex 39.983461344781 24.8475815091044 5.0
vertex 39.983461344781 24.8475815091044 8.0
endloop
endfacet
facet normal 0.0 -1.0 0.0
outer loop
vertex 39.7742941401328 21.6093633038106 8.0
vertex 30.6484064706686 21.6093633038106 5.0
vertex 39.7742941401328 21.6093633038106 5.0
endloop
endfacet
facet normal 0.0 -1.0 0.0
outer loop
vertex 30.6484064706686 21.6093633038106 5.0
vertex 39.7742941401328 21.6093633038106 8.0
vertex 30.6484064706686 21.6093633038106 8.0
endloop
endfacet
facet normal -1.0 0.0 0.0
outer loop
vertex 30.6484064706686 22.1593955827002 8.0
vertex 30.6484064706686 21.6093633038106 5.0
vertex 30.6484064706686 21.6093633038106 8.0
endloop
endfacet
facet normal -1.0 0.0 0.0
outer loop
vertex 30.6484064706686 21.6093633038106 5.0
vertex 30.6484064706686 22.1593955827002 8.0
vertex 30.6484064706686 22.1593955827002 5.0
endloop
endfacet
facet normal -0.105655299056427 0.99440281464872 0.0
outer loop
vertex 30.6484064706686 22.1593955827002 8.0
vertex 31.2681611511076 22.2252445174969 5.0
vertex 30.6484064706686 22.1593955827002 5.0
endloop
endfacet
facet normal -0.105655299056427 0.99440281464872 0.0
outer loop
vertex 31.2681611511076 22.2252445174969 5.0
vertex 30.6484064706686 22.1593955827002 8.0
vertex 31.2681611511076 22.2252445174969 8.0
endloop
endfacet
facet normal -0.203352691658129 0.979105552428028 0.0
outer loop
vertex 31.2681611511076 22.2252445174969 8.0
vertex 31.7717118289643 22.329828119821 5.0
vertex 31.2681611511076 22.2252445174969 5.0
endloop
endfacet
facet normal -0.203352691658129 0.979105552428028 0.0
outer loop
vertex 31.7717118289643 22.329828119821 5.0
vertex 31.2681611511076 22.2252445174969 8.0
vertex 31.7717118289643 22.329828119821 8.0
endloop
endfacet
facet normal -0.659102632296394 0.752053003517681 0.0
outer loop
vertex 31.7717118289643 22.329828119821 8.0
vertex 32.1164503699585 22.631958526535 5.0
vertex 31.7717118289643 22.329828119821 5.0
endloop
endfacet
facet normal -0.659102632296394 0.752053003517681 0.0
outer loop
vertex 32.1164503699585 22.631958526535 5.0
vertex 31.7717118289643 22.329828119821 8.0
vertex 32.1164503699585 22.631958526535 8.0
endloop
endfacet
facet normal -0.994897786204674 0.100888032020843 0.0
outer loop
vertex 32.2132870387771 23.1045214703697 8.0
vertex 32.1164503699585 22.631958526535 5.0
vertex 32.1164503699585 22.631958526535 8.0
endloop
endfacet
facet normal -0.979643209989923 0.200746559424165 0.0
outer loop
vertex 32.1164503699585 22.631958526535 5.0
vertex 32.2132870387771 23.1045214703697 8.0
vertex 32.2132870387771 23.1045214703697 5.0
endloop
endfacet
facet normal -0.995684931084614 -0.092798265129411 0.0
outer loop
vertex 32.2132870387771 31.0063936459669 8.0
vertex 32.2132870387771 23.1045214703697 5.0
vertex 32.2132870387771 23.1045214703697 8.0
endloop
endfacet
facet normal -0.994897786204674 0.100888032020843 0.0
outer loop
vertex 32.2132870387771 23.1045214703697 5.0
vertex 32.2132870387771 31.0063936459669 8.0
vertex 32.2132870387771 31.0063936459669 5.0
endloop
endfacet
facet normal -0.982776963977943 -0.184795668440298 0.0
outer loop
vertex 32.1280707702167 31.4595892560379 8.0
vertex 32.2132870387771 31.0063936459669 5.0
vertex 32.2132870387771 31.0063936459669 8.0
endloop
endfacet
facet normal -0.995684931084614 -0.092798265129411 0.0
outer loop
vertex 32.2132870387771 31.0063936459669 5.0
vertex 32.1280707702167 31.4595892560379 8.0
vertex 32.1280707702167 31.4595892560379 5.0
endloop
endfacet
facet normal -0.669856024139719 -0.742491014709086 0.0
outer loop
vertex 32.1280707702167 31.4595892560379 8.0
vertex 31.7717118289643 31.7810869965156 5.0
vertex 32.1280707702167 31.4595892560379 5.0
endloop
endfacet
facet normal -0.669856024139719 -0.742491014709086 0.0
outer loop
vertex 31.7717118289643 31.7810869965156 5.0
vertex 32.1280707702167 31.4595892560379 8.0
vertex 31.7717118289643 31.7810869965156 8.0
endloop
endfacet
facet normal -0.302389544293434 -0.953184433098868 0.0
outer loop
vertex 31.7717118289643 31.7810869965156 8.0
vertex 31.2100591498165 31.9592664671418 5.0
vertex 31.7717118289643 31.7810869965156 5.0
endloop
endfacet
facet normal -0.302389544293434 -0.953184433098868 0.0
outer loop
vertex 31.2100591498165 31.9592664671418 5.0
vertex 31.7717118289643 31.7810869965156 8.0
vertex 31.2100591498165 31.9592664671418 8.0
endloop
endfacet
facet normal -0.163295536240031 -0.986577198116843 0.0
outer loop
vertex 31.2100591498165 31.9592664671418 8.0
vertex 30.6484064706686 32.0522296692077 5.0
vertex 31.2100591498165 31.9592664671418 5.0
endloop
endfacet
facet normal -0.163295536240031 -0.986577198116843 0.0
outer loop
vertex 30.6484064706686 32.0522296692077 5.0
vertex 31.2100591498165 31.9592664671418 8.0
vertex 30.6484064706686 32.0522296692077 8.0
endloop
endfacet
facet normal -1.0 0.0 0.0
outer loop
vertex 30.6484064706686 32.6022619480973 8.0
vertex 30.6484064706686 32.0522296692077 5.0
vertex 30.6484064706686 32.0522296692077 8.0
endloop
endfacet
facet normal -1.0 0.0 0.0
outer loop
vertex 30.6484064706686 32.0522296692077 5.0
vertex 30.6484064706686 32.6022619480973 8.0
vertex 30.6484064706686 32.6022619480973 5.0
endloop
endfacet
facet normal 0.0 1.0 0.0
outer loop
vertex 30.6484064706686 32.6022619480973 8.0
vertex 39.1545394596938 32.6022619480973 5.0
vertex 30.6484064706686 32.6022619480973 5.0
endloop
endfacet
facet normal 0.0 1.0 0.0
outer loop
vertex 39.1545394596938 32.6022619480973 5.0
vertex 30.6484064706686 32.6022619480973 8.0
vertex 39.1545394596938 32.6022619480973 8.0
endloop
endfacet
facet normal 1.0 0.0 0.0
outer loop
vertex 39.1545394596938 32.6022619480973 5.0
vertex 39.1545394596938 29.9528106892206 8.0
vertex 39.1545394596938 29.9528106892206 5.0
endloop
endfacet
facet normal 1.0 0.0 0.0
outer loop
vertex 39.1545394596938 29.9528106892206 8.0
vertex 39.1545394596938 32.6022619480973 5.0
vertex 39.1545394596938 32.6022619480973 8.0
endloop
endfacet
facet normal 0.0 -1.0 0.0
outer loop
vertex 39.1545394596938 29.9528106892206 8.0
vertex 38.5735194467823 29.9528106892206 5.0
vertex 39.1545394596938 29.9528106892206 5.0
endloop
endfacet
facet normal 0.0 -1.0 0.0
outer loop
vertex 38.5735194467823 29.9528106892206 5.0
vertex 39.1545394596938 29.9528106892206 8.0
vertex 38.5735194467823 29.9528106892206 8.0
endloop
endfacet
facet normal -0.927350432563125 -0.374194034192136 0.0
outer loop
vertex 38.3285226746712 30.5599766027131 8.0
vertex 38.5735194467823 29.9528106892206 5.0
vertex 38.5735194467823 29.9528106892206 8.0
endloop
endfacet
facet normal -0.927350432563125 -0.374194034192136 0.0
outer loop
vertex 38.5735194467823 29.9528106892206 5.0
vertex 38.3285226746712 30.5599766027131 8.0
vertex 38.3285226746712 30.5599766027131 5.0
endloop
endfacet
facet normal -0.834551706463894 -0.550929622763383 0.0
outer loop
vertex 37.9034096985576 31.2039404503568 8.0
vertex 38.3285226746712 30.5599766027131 5.0
vertex 38.3285226746712 30.5599766027131 8.0
endloop
endfacet
facet normal -0.834551706463894 -0.550929622763383 0.0
outer loop
vertex 38.3285226746712 30.5599766027131 5.0
vertex 37.9034096985576 31.2039404503568 8.0
vertex 37.9034096985576 31.2039404503568 5.0
endloop
endfacet
facet normal -0.713821487501772 -0.700327697567901 0.0
outer loop
vertex 37.4008273873891 31.7162064284071 8.0
vertex 37.9034096985576 31.2039404503568 5.0
vertex 37.9034096985576 31.2039404503568 8.0
endloop
endfacet
facet normal -0.713821487501772 -0.700327697567901 0.0
outer loop
vertex 37.9034096985576 31.2039404503568 5.0
vertex 37.4008273873891 31.7162064284071 8.0
vertex 37.4008273873891 31.7162064284071 5.0
endloop
endfacet
facet normal -0.405966463464771 -0.913887974831657 0.0
outer loop
vertex 37.4008273873891 31.7162064284071 8.0
vertex 36.9234226101134 31.9282787331199 5.0
vertex 37.4008273873891 31.7162064284071 5.0
endloop
endfacet
facet normal -0.405966463464771 -0.913887974831657 0.0
outer loop
vertex 36.9234226101134 31.9282787331199 5.0
vertex 37.4008273873891 31.7162064284071 8.0
vertex 36.9234226101134 31.9282787331199 8.0
endloop
endfacet
facet normal -0.0808158687660567 -0.996729048114676 0.0
outer loop
vertex 36.9234226101134 31.9282787331199 8.0
vertex 36.3501495307074 31.9747603341528 5.0
vertex 36.9234226101134 31.9282787331199 5.0
endloop
endfacet
facet normal -0.0808158687660567 -0.996729048114676 0.0
outer loop
vertex 36.3501495307074 31.9747603341528 5.0
vertex 36.9234226101134 31.9282787331199 8.0
vertex 36.3501495307074 31.9747603341528 8.0
endloop
endfacet
facet normal -0.0204039146625186 -0.999791818463446 0.0
outer loop
vertex 36.3501495307074 31.9747603341528 8.0
vertex 35.5909500471696 31.9902542011638 5.0
vertex 36.3501495307074 31.9747603341528 5.0
endloop
endfacet
facet normal -0.0102024883375026 -0.99994795326143 0.0
outer loop
vertex 35.5909500471696 31.9902542011638 5.0
vertex 36.3501495307074 31.9747603341528 8.0
vertex 35.5909500471696 31.9902542011638 8.0
endloop
endfacet
facet normal -0.0102024883375026 -0.99994795326143 0.0
outer loop
vertex 35.5909500471696 31.9902542011638 8.0
vertex 33.8633838754459 31.9902542011638 5.0
vertex 35.5909500471696 31.9902542011638 5.0
endloop
endfacet
facet normal 0.0 -1.0 0.0
outer loop
vertex 33.8633838754459 31.9902542011638 5.0
vertex 35.5909500471696 31.9902542011638 8.0
vertex 33.8633838754459 31.9902542011638 8.0
endloop
endfacet
facet normal 1.0 0.0 0.0
outer loop
vertex 33.8633838754459 31.9902542011638 5.0
vertex 33.8633838754459 27.6209837040689 8.0
vertex 33.8633838754459 27.6209837040689 5.0
endloop
endfacet
facet normal 1.0 0.0 0.0
outer loop
vertex 33.8633838754459 27.6209837040689 8.0
vertex 33.8633838754459 31.9902542011638 5.0
vertex 33.8633838754459 31.9902542011638 8.0
endloop
endfacet
facet normal 0.0 1.0 0.0
outer loop
vertex 33.8633838754459 27.6209837040689 8.0
vertex 35.1028932363239 27.6209837040689 5.0
vertex 33.8633838754459 27.6209837040689 5.0
endloop
endfacet
facet normal -0.0640472334285596 0.997946868270124 0.0
outer loop
vertex 35.1028932363239 27.6209837040689 5.0
vertex 33.8633838754459 27.6209837040689 8.0
vertex 35.1028932363239 27.6209837040689 8.0
endloop
endfacet
facet normal -0.0640472334285596 0.997946868270124 0.0
outer loop
vertex 35.1028932363239 27.6209837040689 8.0
vertex 35.9744232556912 27.7333142398984 5.0
vertex 35.1028932363239 27.6209837040689 5.0
endloop
endfacet
facet normal -0.127831472042793 0.991795903780295 0.0
outer loop
vertex 35.9744232556912 27.7333142398984 5.0
vertex 35.1028932363239 27.6209837040689 8.0
vertex 35.9744232556912 27.7333142398984 8.0
endloop
endfacet
facet normal -0.613065123433086 0.7900323755581 0.0
outer loop
vertex 35.9744232556912 27.7333142398984 8.0
vertex 36.4586065997842 28.1090405149146 5.0
vertex 35.9744232556912 27.7333142398984 5.0
endloop
endfacet
facet normal -0.613065123433086 0.7900323755581 0.0
outer loop
vertex 36.4586065997842 28.1090405149146 5.0
vertex 35.9744232556912 27.7333142398984 8.0
vertex 36.4586065997842 28.1090405149146 8.0
endloop
endfacet
facet normal -0.900159251415513 0.435560928104282 0.0
outer loop
vertex 36.74911660624 28.7094278615898 8.0
vertex 36.4586065997842 28.1090405149146 5.0
vertex 36.4586065997842 28.1090405149146 8.0
endloop
endfacet
facet normal -0.900159251415513 0.435560928104282 0.0
outer loop
vertex 36.4586065997842 28.1090405149146 5.0
vertex 36.74911660624 28.7094278615898 8.0
vertex 36.74911660624 28.7094278615898 5.0
endloop
endfacet
facet normal -0.975809193745789 0.218623917724464 0.0
outer loop
vertex 36.9079287431025 29.4182722773419 8.0
vertex 36.74911660624 28.7094278615898 5.0
vertex 36.74911660624 28.7094278615898 8.0
endloop
endfacet
facet normal -0.975809193745789 0.218623917724464 0.0
outer loop
vertex 36.74911660624 28.7094278615898 5.0
vertex 36.9079287431025 29.4182722773419 8.0
vertex 36.9079287431025 29.4182722773419 5.0
endloop
endfacet
facet normal 0.0 1.0 0.0
outer loop
vertex 36.9079287431025 29.4182722773419 8.0
vertex 37.488948756014 29.4182722773419 5.0
vertex 36.9079287431025 29.4182722773419 5.0
endloop
endfacet
facet normal 0.0 1.0 0.0
outer loop
vertex 37.488948756014 29.4182722773419 5.0
vertex 36.9079287431025 29.4182722773419 8.0
vertex 37.488948756014 29.4182722773419 8.0
endloop
endfacet
facet normal 1.0 0.0 0.0
outer loop
vertex 37.488948756014 29.4182722773419 5.0
vertex 37.488948756014 25.1187241817964 8.0
vertex 37.488948756014 25.1187241817964 5.0
endloop
endfacet
facet normal 1.0 0.0 0.0
outer loop
vertex 37.488948756014 25.1187241817964 8.0
vertex 37.488948756014 29.4182722773419 5.0
vertex 37.488948756014 29.4182722773419 8.0
endloop
endfacet
facet normal 0.0 -1.0 0.0
outer loop
vertex 37.488948756014 25.1187241817964 8.0
vertex 36.9079287431025 25.1187241817964 5.0
vertex 37.488948756014 25.1187241817964 5.0
endloop
endfacet
facet normal 0.0 -1.0 0.0
outer loop
vertex 36.9079287431025 25.1187241817964 5.0
vertex 37.488948756014 25.1187241817964 8.0
vertex 36.9079287431025 25.1187241817964 8.0
endloop
endfacet
facet normal -0.978293372088773 -0.207224704432597 0.0
outer loop
vertex 36.7413696727345 25.9050379326034 8.0
vertex 36.9079287431025 25.1187241817964 5.0
vertex 36.9079287431025 25.1187241817964 8.0
endloop
endfacet
facet normal -0.978293372088773 -0.207224704432597 0.0
outer loop
vertex 36.9079287431025 25.1187241817964 5.0
vertex 36.7413696727345 25.9050379326034 8.0
vertex 36.7413696727345 25.9050379326034 5.0
endloop
endfacet
facet normal -0.904686382362778 -0.426078102661178 0.0
outer loop
vertex 36.4586065997842 26.5054252792787 8.0
vertex 36.7413696727345 25.9050379326034 5.0
vertex 36.7413696727345 25.9050379326034 8.0
endloop
endfacet
facet normal -0.904686382362778 -0.426078102661178 0.0
outer loop
vertex 36.7413696727345 25.9050379326034 5.0
vertex 36.4586065997842 26.5054252792787 8.0
vertex 36.4586065997842 26.5054252792787 5.0
endloop
endfacet
facet normal -0.697580157411951 -0.716506750830107 0.0
outer loop
vertex 36.4586065997842 26.5054252792787 8.0
vertex 36.2019894274149 26.7552638848306 5.0
vertex 36.4586065997842 26.5054252792787 5.0
endloop
endfacet
facet normal -0.697580157411951 -0.716506750830107 0.0
outer loop
vertex 36.2019894274149 26.7552638848306 5.0
vertex 36.4586065997842 26.5054252792787 8.0
vertex 36.2019894274149 26.7552638848306 8.0
endloop
endfacet
facet normal -0.448408953056816 -0.89382851309325 0.0
outer loop
vertex 36.2019894274149 26.7552638848306 8.0
vertex 35.9124477876473 26.9005188880585 5.0
vertex 36.2019894274149 26.7552638848306 5.0
endloop
endfacet
facet normal -0.448408953056816 -0.89382851309325 0.0
outer loop
vertex 35.9124477876473 26.9005188880585 5.0
vertex 36.2019894274149 26.7552638848306 8.0
vertex 35.9124477876473 26.9005188880585 8.0
endloop
endfacet
facet normal -0.114082822106747 -0.993471242512918 0.0
outer loop
vertex 35.9124477876473 26.9005188880585 8.0
vertex 35.1028932363239 26.9934820901244 5.0
vertex 35.9124477876473 26.9005188880585 5.0
endloop
endfacet
facet normal -0.0571347420011781 -0.9983664764286 0.0
outer loop
vertex 35.1028932363239 26.9934820901244 5.0
vertex 35.9124477876473 26.9005188880585 8.0
vertex 35.1028932363239 26.9934820901244 8.0
endloop
endfacet
facet normal -0.0571347420011781 -0.9983664764286 0.0
outer loop
vertex 35.1028932363239 26.9934820901244 8.0
vertex 33.8633838754459 26.9934820901244 5.0
vertex 35.1028932363239 26.9934820901244 5.0
endloop
endfacet
facet normal 0.0 -1.0 0.0
outer loop
vertex 33.8633838754459 26.9934820901244 5.0
vertex 35.1028932363239 26.9934820901244 8.0
vertex 33.8633838754459 26.9934820901244 8.0
endloop
endfacet
facet normal 1.0 0.0 0.0
outer loop
vertex 33.8633838754459 26.9934820901244 5.0
vertex 33.8633838754459 23.6932884167867 8.0
vertex 33.8633838754459 23.6932884167867 5.0
endloop
endfacet
facet normal 0.99901283508994 0.0444224641995587 0.0
outer loop
vertex 33.8633838754459 23.6932884167867 8.0
vertex 33.8633838754459 26.9934820901244 5.0
vertex 33.8633838754459 26.9934820901244 8.0
endloop
endfacet
facet normal 0.99901283508994 0.0444224641995587 0.0
outer loop
vertex 33.8633838754459 23.6932884167867 5.0
vertex 33.9331062769953 22.9108481327325 8.0
vertex 33.9331062769953 22.9108481327325 5.0
endloop
endfacet
facet normal 0.996053289348878 0.0887572238033649 0.0
outer loop
vertex 33.9331062769953 22.9108481327325 8.0
vertex 33.8633838754459 23.6932884167867 5.0
vertex 33.8633838754459 23.6932884167867 8.0
endloop
endfacet
facet normal 0.926000151118853 0.377523138533073 0.0
outer loop
vertex 33.9331062769953 22.9108481327325 5.0
vertex 34.035753145943 22.6590727938042 8.0
vertex 34.035753145943 22.6590727938042 5.0
endloop
endfacet
facet normal 0.926000151118853 0.377523138533073 0.0
outer loop
vertex 34.035753145943 22.6590727938042 8.0
vertex 33.9331062769953 22.9108481327325 5.0
vertex 33.9331062769953 22.9108481327325 8.0
endloop
endfacet
facet normal 0.733904813668474 0.679252327544222 0.0
outer loop
vertex 34.035753145943 22.6590727938042 5.0
vertex 34.2042489496874 22.4770198564252 8.0
vertex 34.2042489496874 22.4770198564252 5.0
endloop
endfacet
facet normal 0.733904813668474 0.679252327544222 0.0
outer loop
vertex 34.2042489496874 22.4770198564252 8.0
vertex 34.035753145943 22.6590727938042 5.0
vertex 34.035753145943 22.6590727938042 8.0
endloop
endfacet
facet normal 0.326195834705496 0.945302214860827 0.0
outer loop
vertex 34.2042489496874 22.4770198564252 8.0
vertex 34.754281228577 22.2872199855408 5.0
vertex 34.2042489496874 22.4770198564252 5.0
endloop
endfacet
facet normal 0.326195834705496 0.945302214860827 0.0
outer loop
vertex 34.754281228577 22.2872199855408 5.0
vertex 34.2042489496874 22.4770198564252 8.0
vertex 34.754281228577 22.2872199855408 8.0
endloop
endfacet
facet normal 0.0429291379526629 0.999078119625608 0.0
outer loop
vertex 34.754281228577 22.2872199855408 8.0
vertex 35.7458887172794 22.2446118512606 5.0
vertex 34.754281228577 22.2872199855408 5.0
endloop
endfacet
facet normal 0.0214695176283927 0.999769503342047 0.0
outer loop
vertex 35.7458887172794 22.2446118512606 5.0
vertex 34.754281228577 22.2872199855408 8.0
vertex 35.7458887172794 22.2446118512606 8.0
endloop
endfacet
facet normal 0.0214695176283927 0.999769503342047 0.0
outer loop
vertex 35.7458887172794 22.2446118512606 8.0
vertex 36.4198719322568 22.2446118512606 5.0
vertex 35.7458887172794 22.2446118512606 5.0
endloop
endfacet
facet normal 0.0 1.0 0.0
outer loop
vertex 36.4198719322568 22.2446118512606 5.0
vertex 35.7458887172794 22.2446118512606 8.0
vertex 36.4198719322568 22.2446118512606 8.0
endloop
endfacet
facet normal -0.0439136409132972 0.999035330777515 0.0
outer loop
vertex 36.4198719322568 22.2446118512606 8.0
vertex 37.1248428812561 22.2755995852825 5.0
vertex 36.4198719322568 22.2446118512606 5.0
endloop
endfacet
facet normal -0.0439136409132972 0.999035330777515 0.0
outer loop
vertex 37.1248428812561 22.2755995852825 5.0
vertex 36.4198719322568 22.2446118512606 8.0
vertex 37.1248428812561 22.2755995852825 8.0
endloop
endfacet
facet normal -0.181640663723541 0.983364972572275 0.0
outer loop
vertex 37.1248428812561 22.2755995852825 8.0
vertex 37.7329771614369 22.3879301211121 5.0
vertex 37.1248428812561 22.2755995852825 5.0
endloop
endfacet
facet normal -0.181640663723541 0.983364972572275 0.0
outer loop
vertex 37.7329771614369 22.3879301211121 5.0
vertex 37.1248428812561 22.2755995852825 8.0
vertex 37.7329771614369 22.3879301211121 8.0
endloop
endfacet
facet normal -0.444094428697429 0.895979987722886 0.0
outer loop
vertex 37.7329771614369 22.3879301211121 8.0
vertex 38.1784258380024 22.6087177260185 5.0
vertex 37.7329771614369 22.3879301211121 5.0
endloop
endfacet
facet normal -0.444094428697429 0.895979987722886 0.0
outer loop
vertex 38.1784258380024 22.6087177260185 5.0
vertex 37.7329771614369 22.3879301211121 8.0
vertex 38.1784258380024 22.6087177260185 8.0
endloop
endfacet
facet normal -0.788296475636077 0.615295592784265 0.0
outer loop
vertex 38.5435000794485 23.0764388364123 8.0
vertex 38.1784258380024 22.6087177260185 5.0
vertex 38.1784258380024 22.6087177260185 8.0
endloop
endfacet
facet normal -0.788296475636077 0.615295592784265 0.0
outer loop
vertex 38.1784258380024 22.6087177260185 5.0
vertex 38.5435000794485 23.0764388364123 8.0
vertex 38.5435000794485 23.0764388364123 5.0
endloop
endfacet
facet normal -0.889743915209702 0.456460036966339 0.0
outer loop
vertex 38.9260049212819 23.7358965510669 8.0
vertex 38.5435000794485 23.0764388364123 5.0
vertex 38.5435000794485 23.0764388364123 8.0
endloop
endfacet
facet normal -0.865020163493328 0.50173709923622 0.0
outer loop
vertex 38.5435000794485 23.0764388364123 5.0
vertex 38.9260049212819 23.7358965510669 8.0
vertex 38.9260049212819 23.7358965510669 5.0
endloop
endfacet
facet normal -0.912099812561066 0.409968208433371 0.0
outer loop
vertex 39.4256821323859 24.8475815091044 8.0
vertex 38.9260049212819 23.7358965510669 5.0
vertex 38.9260049212819 23.7358965510669 8.0
endloop
endfacet
facet normal -0.889743915209702 0.456460036966339 0.0
outer loop
vertex 38.9260049212819 23.7358965510669 5.0
vertex 39.4256821323859 24.8475815091044 8.0
vertex 39.4256821323859 24.8475815091044 5.0
endloop
endfacet
facet normal 0.0 1.0 0.0
outer loop
vertex 39.4256821323859 24.8475815091044 8.0
vertex 39.983461344781 24.8475815091044 5.0
vertex 39.4256821323859 24.8475815091044 5.0
endloop
endfacet
facet normal 0.0 1.0 0.0
outer loop
vertex 39.983461344781 24.8475815091044 5.0
vertex 39.4256821323859 24.8475815091044 8.0
vertex 39.983461344781 24.8475815091044 8.0
endloop
endfacet
endsolid FEButton
