solid PrestoLogo
facet normal 0.0 0.0 -1.0
outer loop
vertex 321.405200867177 378.181268618519 84.1375
vertex 294.893716668499 279.422626025411 84.1375
vertex 259.941452736129 311.771967147015 84.1375
endloop
endfacet
facet normal 0.0 0.0 -1.0
outer loop
vertex 294.893716668499 279.422626025411 84.1375
vertex 321.405200867177 378.181268618519 84.1375
vertex 354.200842058107 343.50177656809 84.1375
endloop
endfacet
facet normal 0.0 0.0 1.0
outer loop
vertex 294.893716668499 279.422626025411 42.8625
vertex 321.405200867177 378.181268618519 42.8625
vertex 259.941452736129 311.771967147015 42.8625
endloop
endfacet
facet normal 0.0 0.0 1.0
outer loop
vertex 321.405200867177 378.181268618519 42.8625
vertex 294.893716668499 279.422626025411 42.8625
vertex 354.200842058107 343.50177656809 42.8625
endloop
endfacet
facet normal -0.726565510759565 -0.687097197327054 -0.0
outer loop
vertex 321.405200867177 378.181268618519 84.1375
vertex 354.200842058107 343.50177656809 42.8625
vertex 354.200842058107 343.50177656809 84.1375
endloop
endfacet
facet normal -0.726565510759565 -0.687097197327054 -0.0
outer loop
vertex 354.200842058107 343.50177656809 42.8625
vertex 321.405200867177 378.181268618519 84.1375
vertex 321.405200867177 378.181268618519 42.8625
endloop
endfacet
facet normal -0.733905804354237 0.679251257146544 -0.0
outer loop
vertex 354.200842058107 343.50177656809 84.1375
vertex 294.893716668499 279.422626025411 42.8625
vertex 294.893716668499 279.422626025411 84.1375
endloop
endfacet
facet normal -0.733905804354237 0.679251257146544 -0.0
outer loop
vertex 294.893716668499 279.422626025411 42.8625
vertex 354.200842058107 343.50177656809 84.1375
vertex 354.200842058107 343.50177656809 42.8625
endloop
endfacet
facet normal 0.679251257146545 0.733905804354236 0.0
outer loop
vertex 259.941452736129 311.771967147015 84.1375
vertex 294.893716668499 279.422626025411 42.8625
vertex 259.941452736129 311.771967147015 42.8625
endloop
endfacet
facet normal 0.679251257146545 0.733905804354236 0.0
outer loop
vertex 294.893716668499 279.422626025411 42.8625
vertex 259.941452736129 311.771967147015 84.1375
vertex 294.893716668499 279.422626025411 84.1375
endloop
endfacet
facet normal 0.733905804354237 -0.679251257146544 -0.0
outer loop
vertex 321.405200867177 378.181268618519 42.8625
vertex 259.941452736129 311.771967147015 84.1375
vertex 259.941452736129 311.771967147015 42.8625
endloop
endfacet
facet normal 0.733905804354237 -0.679251257146544 -0.0
outer loop
vertex 259.941452736129 311.771967147015 84.1375
vertex 321.405200867177 378.181268618519 42.8625
vertex 321.405200867177 378.181268618519 84.1375
endloop
endfacet
facet normal 0.0 0.0 -1.0
outer loop
vertex 316.971098765392 433.598045332679 44.45
vertex 316.971098765392 233.283100709911 44.45
vertex 212.905430006686 323.379369474499 44.45
endloop
endfacet
facet normal 0.0 0.0 -1.0
outer loop
vertex 316.971098765392 233.283100709911 44.45
vertex 316.971098765392 433.598045332679 44.45
vertex 412.394417151215 343.50177656809 44.45
endloop
endfacet
facet normal 0.654540563210824 0.756026885177807 -1.88703465832852e-016
outer loop
vertex 212.905430006686 323.379369474499 1.30914699273178e-029
vertex 316.971098765392 233.283100709911 1.29263291534364e-029
vertex 314.901644312016 235.07475906229 1.282310385377e-029
endloop
endfacet
facet normal 0.654540563210824 0.756026885177807 -1.88703465832852e-016
outer loop
vertex 316.971098765392 233.283100709911 1.29263291534364e-029
vertex 212.905430006686 323.379369474499 1.30914699273178e-029
vertex 316.971098765392 233.283100709911 44.45
endloop
endfacet
facet normal 0.654540563210824 0.756026885177807 -1.88703465832852e-016
outer loop
vertex 316.971098765392 233.283100709911 44.45
vertex 212.905430006686 323.379369474499 1.30914699273178e-029
vertex 212.905430006686 323.379369474499 44.45
endloop
endfacet
facet normal -1.0 0.0 1.14307458370263e-032
outer loop
vertex 2.00439499088843 618.717664444253 82.55
vertex 2.00439499088843 100.00855858336 4.00741339852274e-029
vertex 2.00439499088843 100.00855858336 82.55
endloop
endfacet
facet normal -1.0 0.0 1.14307458370263e-032
outer loop
vertex 2.00439499088843 100.00855858336 4.00741339852274e-029
vertex 2.00439499088843 618.717664444253 82.55
vertex 2.00439499088843 618.717664444253 4.00741339852274e-029
endloop
endfacet
facet normal 0.0 1.0 -1.4770336782882e-032
outer loop
vertex 2.00439499088843 618.717664444253 82.55
vertex 617.522690977118 618.717664444253 4.00741339852274e-029
vertex 2.00439499088843 618.717664444253 4.00741339852274e-029
endloop
endfacet
facet normal 0.0 1.0 -1.4770336782882e-032
outer loop
vertex 617.522690977118 618.717664444253 4.00741339852274e-029
vertex 2.00439499088843 618.717664444253 82.55
vertex 617.522690977118 618.717664444253 82.55
endloop
endfacet
facet normal 1.0 0.0 -1.14307458370263e-032
outer loop
vertex 617.522690977118 618.717664444253 4.00741339852274e-029
vertex 617.522690977118 1.37290467171368 82.55
vertex 617.522690977118 1.37290467171368 4.00741339852274e-029
endloop
endfacet
facet normal 1.0 0.0 -1.14307458370263e-032
outer loop
vertex 617.522690977118 1.37290467171368 82.55
vertex 617.522690977118 618.717664444253 4.00741339852274e-029
vertex 617.522690977118 618.717664444253 82.55
endloop
endfacet
facet normal 0.0 -1.0 1.4770336782882e-032
outer loop
vertex 617.522690977118 1.37290467171368 82.55
vertex 116.191690909448 1.37290467171368 4.00741339852274e-029
vertex 617.522690977118 1.37290467171368 4.00741339852274e-029
endloop
endfacet
facet normal 0.0 -1.0 1.4770336782882e-032
outer loop
vertex 116.191690909448 1.37290467171368 4.00741339852274e-029
vertex 617.522690977118 1.37290467171368 82.55
vertex 116.191690909448 1.37290467171368 82.55
endloop
endfacet
facet normal -0.756026885177807 0.654540563210824 0.0
outer loop
vertex 316.971098765392 233.283100709911 82.55
vertex 116.191690909448 1.37290467171368 4.00741339852274e-029
vertex 116.191690909448 1.37290467171368 82.55
endloop
endfacet
facet normal -0.756026885177807 0.654540563210824 0.0
outer loop
vertex 116.191690909448 1.37290467171368 4.00741339852274e-029
vertex 316.971098765392 233.283100709911 82.55
vertex 316.971098765392 233.283100709911 1.29263291534364e-029
endloop
endfacet
facet normal -0.756026885177807 0.654540563210824 0.0
outer loop
vertex 316.971098765392 233.283100709911 1.29263291534364e-029
vertex 316.971098765392 233.283100709911 82.55
vertex 316.971098765392 233.283100709911 44.45
endloop
endfacet
facet normal 0.72711110644758 -0.686519802249415 5.79191532097839e-017
outer loop
vertex 212.905430006686 323.379369474499 1.30914699273178e-029
vertex 2.00439499088843 100.00855858336 82.55
vertex 2.00439499088843 100.00855858336 4.00741339852274e-029
endloop
endfacet
facet normal 0.72711110644758 -0.686519802249415 5.79191532097839e-017
outer loop
vertex 2.00439499088843 100.00855858336 82.55
vertex 212.905430006686 323.379369474499 1.30914699273178e-029
vertex 212.905430006686 323.379369474499 82.55
endloop
endfacet
facet normal 0.72711110644758 -0.686519802249415 5.79191532097839e-017
outer loop
vertex 212.905430006686 323.379369474499 82.55
vertex 212.905430006686 323.379369474499 1.30914699273178e-029
vertex 212.905430006686 323.379369474499 44.45
endloop
endfacet
facet normal 0.704440254178626 -0.709763290324847 2.43116533133839e-033
outer loop
vertex 203.181985648001 487.590196140287 82.55
vertex 171.633007393061 456.277826842047 0.0
vertex 203.181985648001 487.590196140287 0.0
endloop
endfacet
facet normal 0.704440254178626 -0.709763290324847 2.43116533133839e-033
outer loop
vertex 171.633007393061 456.277826842047 0.0
vertex 203.181985648001 487.590196140287 82.55
vertex 171.633007393061 456.277826842047 82.55
endloop
endfacet
facet normal 0.709763290324848 0.704440254178625 -1.85179435737921e-032
outer loop
vertex 171.633007393061 456.277826842047 0.0
vertex 235.376044893049 392.053121108777 82.55
vertex 235.376044893049 392.053121108777 0.0
endloop
endfacet
facet normal 0.709763290324848 0.704440254178625 -1.85179435737921e-032
outer loop
vertex 235.376044893049 392.053121108777 82.55
vertex 171.633007393061 456.277826842047 0.0
vertex 171.633007393061 456.277826842047 82.55
endloop
endfacet
facet normal -0.704440254178625 0.709763290324848 -2.4311653313384e-033
outer loop
vertex 235.376044893049 392.053121108777 82.55
vertex 266.925023147989 423.365490407017 0.0
vertex 235.376044893049 392.053121108777 0.0
endloop
endfacet
facet normal -0.704440254178625 0.709763290324848 -2.4311653313384e-033
outer loop
vertex 266.925023147989 423.365490407017 0.0
vertex 235.376044893049 392.053121108777 82.55
vertex 266.925023147989 423.365490407017 82.55
endloop
endfacet
facet normal -0.709763290324847 -0.704440254178626 1.85179435737921e-032
outer loop
vertex 203.181985648001 487.590196140287 82.55
vertex 266.925023147989 423.365490407017 0.0
vertex 266.925023147989 423.365490407017 82.55
endloop
endfacet
facet normal -0.709763290324847 -0.704440254178626 1.85179435737921e-032
outer loop
vertex 266.925023147989 423.365490407017 0.0
vertex 203.181985648001 487.590196140287 82.55
vertex 203.181985648001 487.590196140287 0.0
endloop
endfacet
facet normal 1.0 0.0 -1.14307458370263e-032
outer loop
vertex 301.619923272894 554.519649113083 0.0
vertex 301.619923272894 464.032149113083 82.55
vertex 301.619923272894 464.032149113083 0.0
endloop
endfacet
facet normal 1.0 0.0 -1.14307458370263e-032
outer loop
vertex 301.619923272894 464.032149113083 82.55
vertex 301.619923272894 554.519649113083 0.0
vertex 301.619923272894 554.519649113083 82.55
endloop
endfacet
facet normal 0.0 1.0 -1.4770336782882e-032
outer loop
vertex 301.619923272894 464.032149113083 82.55
vertex 344.482423272894 464.032149113083 0.0
vertex 301.619923272894 464.032149113083 0.0
endloop
endfacet
facet normal 0.0 1.0 -1.4770336782882e-032
outer loop
vertex 344.482423272894 464.032149113083 0.0
vertex 301.619923272894 464.032149113083 82.55
vertex 344.482423272894 464.032149113083 82.55
endloop
endfacet
facet normal -1.0 0.0 1.14307458370263e-032
outer loop
vertex 344.482423272894 554.519649113083 82.55
vertex 344.482423272894 464.032149113083 0.0
vertex 344.482423272894 464.032149113083 82.55
endloop
endfacet
facet normal -1.0 0.0 1.14307458370263e-032
outer loop
vertex 344.482423272894 464.032149113083 0.0
vertex 344.482423272894 554.519649113083 82.55
vertex 344.482423272894 554.519649113083 0.0
endloop
endfacet
facet normal 0.0 -1.0 1.4770336782882e-032
outer loop
vertex 344.482423272894 554.519649113083 82.55
vertex 301.619923272894 554.519649113083 0.0
vertex 344.482423272894 554.519649113083 0.0
endloop
endfacet
facet normal 0.0 -1.0 1.4770336782882e-032
outer loop
vertex 301.619923272894 554.519649113083 0.0
vertex 344.482423272894 554.519649113083 82.55
vertex 301.619923272894 554.519649113083 82.55
endloop
endfacet
facet normal 0.689454192377281 -0.724329287419328 2.8176118775515e-033
outer loop
vertex 461.133811206037 511.478282299818 82.55
vertex 396.740937554459 450.185804597478 0.0
vertex 461.133811206037 511.478282299818 0.0
endloop
endfacet
facet normal 0.689454192377281 -0.724329287419328 2.8176118775515e-033
outer loop
vertex 396.740937554459 450.185804597478 0.0
vertex 461.133811206037 511.478282299818 82.55
vertex 396.740937554459 450.185804597478 82.55
endloop
endfacet
facet normal 0.724329287419328 0.689454192377281 -1.8463094604587e-032
outer loop
vertex 396.740937554459 450.185804597478 0.0
vertex 426.29266787523 419.139240515467 82.55
vertex 426.29266787523 419.139240515467 0.0
endloop
endfacet
facet normal 0.724329287419328 0.689454192377281 -1.8463094604587e-032
outer loop
vertex 426.29266787523 419.139240515467 82.55
vertex 396.740937554459 450.185804597478 0.0
vertex 396.740937554459 450.185804597478 82.55
endloop
endfacet
facet normal -0.68945419237728 0.724329287419329 -2.81761187755151e-033
outer loop
vertex 426.29266787523 419.139240515467 82.55
vertex 490.685541526808 480.431718217807 0.0
vertex 426.29266787523 419.139240515467 0.0
endloop
endfacet
facet normal -0.68945419237728 0.724329287419329 -2.81761187755151e-033
outer loop
vertex 490.685541526808 480.431718217807 0.0
vertex 426.29266787523 419.139240515467 82.55
vertex 490.685541526808 480.431718217807 82.55
endloop
endfacet
facet normal -0.724329287419329 -0.68945419237728 1.8463094604587e-032
outer loop
vertex 461.133811206037 511.478282299818 82.55
vertex 490.685541526808 480.431718217807 0.0
vertex 490.685541526808 480.431718217807 82.55
endloop
endfacet
facet normal -0.724329287419329 -0.68945419237728 1.8463094604587e-032
outer loop
vertex 490.685541526808 480.431718217807 0.0
vertex 461.133811206037 511.478282299818 82.55
vertex 461.133811206037 511.478282299818 0.0
endloop
endfacet
facet normal 1.0 0.0 -1.14307458370263e-032
outer loop
vertex 446.653197011492 364.724523595324 0.0
vertex 446.653197011492 320.274523595324 82.55
vertex 446.653197011492 320.274523595324 0.0
endloop
endfacet
facet normal 1.0 0.0 -1.14307458370263e-032
outer loop
vertex 446.653197011492 320.274523595324 82.55
vertex 446.653197011492 364.724523595324 0.0
vertex 446.653197011492 364.724523595324 82.55
endloop
endfacet
facet normal 0.0 1.0 -1.4770336782882e-032
outer loop
vertex 446.653197011492 320.274523595324 82.55
vertex 537.140697011492 320.274523595324 0.0
vertex 446.653197011492 320.274523595324 0.0
endloop
endfacet
facet normal 0.0 1.0 -1.4770336782882e-032
outer loop
vertex 537.140697011492 320.274523595324 0.0
vertex 446.653197011492 320.274523595324 82.55
vertex 537.140697011492 320.274523595324 82.55
endloop
endfacet
facet normal -1.0 0.0 1.14307458370263e-032
outer loop
vertex 537.140697011492 364.724523595324 82.55
vertex 537.140697011492 320.274523595324 0.0
vertex 537.140697011492 320.274523595324 82.55
endloop
endfacet
facet normal -1.0 0.0 1.14307458370263e-032
outer loop
vertex 537.140697011492 320.274523595324 0.0
vertex 537.140697011492 364.724523595324 82.55
vertex 537.140697011492 364.724523595324 0.0
endloop
endfacet
facet normal 0.0 -1.0 1.4770336782882e-032
outer loop
vertex 537.140697011492 364.724523595324 82.55
vertex 446.653197011492 364.724523595324 0.0
vertex 537.140697011492 364.724523595324 0.0
endloop
endfacet
facet normal 0.0 -1.0 1.4770336782882e-032
outer loop
vertex 446.653197011492 364.724523595324 0.0
vertex 537.140697011492 364.724523595324 82.55
vertex 446.653197011492 364.724523595324 82.55
endloop
endfacet
facet normal 0.699604896588628 -0.71452990747009 2.55684161553109e-033
outer loop
vertex 407.55652239641 288.376924742733 82.55
vertex 373.527035553147 255.058241542699 0.0
vertex 407.55652239641 288.376924742733 0.0
endloop
endfacet
facet normal 0.699604896588628 -0.71452990747009 2.55684161553109e-033
outer loop
vertex 373.527035553147 255.058241542699 0.0
vertex 407.55652239641 288.376924742733 82.55
vertex 373.527035553147 255.058241542699 82.55
endloop
endfacet
facet normal 0.71452990747009 0.699604896588628 -1.85010097028118e-032
outer loop
vertex 373.527035553147 255.058241542699 0.0
vertex 435.721910859876 191.536532768608 82.55
vertex 435.721910859876 191.536532768608 0.0
endloop
endfacet
facet normal 0.71452990747009 0.699604896588628 -1.85010097028118e-032
outer loop
vertex 435.721910859876 191.536532768608 82.55
vertex 373.527035553147 255.058241542699 0.0
vertex 373.527035553147 255.058241542699 82.55
endloop
endfacet
facet normal -0.699604896588628 0.71452990747009 -2.55684161553109e-033
outer loop
vertex 435.721910859876 191.536532768608 82.55
vertex 469.751397703139 224.855215968642 0.0
vertex 435.721910859876 191.536532768608 0.0
endloop
endfacet
facet normal -0.699604896588628 0.71452990747009 -2.55684161553109e-033
outer loop
vertex 469.751397703139 224.855215968642 0.0
vertex 435.721910859876 191.536532768608 82.55
vertex 469.751397703139 224.855215968642 82.55
endloop
endfacet
facet normal -0.71452990747009 -0.699604896588628 1.85010097028118e-032
outer loop
vertex 407.55652239641 288.376924742733 82.55
vertex 469.751397703139 224.855215968642 0.0
vertex 469.751397703139 224.855215968642 82.55
endloop
endfacet
facet normal -0.71452990747009 -0.699604896588628 1.85010097028118e-032
outer loop
vertex 469.751397703139 224.855215968642 0.0
vertex 407.55652239641 288.376924742733 82.55
vertex 407.55652239641 288.376924742733 0.0
endloop
endfacet
facet normal 0.0 0.0 1.0
outer loop
vertex 212.905430006686 323.379369474499 82.55
vertex 2.00439499088843 618.717664444253 82.55
vertex 2.00439499088843 100.00855858336 82.55
endloop
endfacet
facet normal 0.0 0.0 1.0
outer loop
vertex 2.00439499088843 618.717664444253 82.55
vertex 212.905430006686 323.379369474499 82.55
vertex 171.633007393061 456.277826842047 82.55
endloop
endfacet
facet normal 0.0 0.0 1.0
outer loop
vertex 171.633007393061 456.277826842047 82.55
vertex 212.905430006686 323.379369474499 82.55
vertex 235.376044893049 392.053121108777 82.55
endloop
endfacet
facet normal 0.0 0.0 1.0
outer loop
vertex 235.376044893049 392.053121108777 82.55
vertex 212.905430006686 323.379369474499 82.55
vertex 316.971098765392 433.598045332679 82.55
endloop
endfacet
facet normal 0.0 0.0 1.0
outer loop
vertex 235.376044893049 392.053121108777 82.55
vertex 316.971098765392 433.598045332679 82.55
vertex 266.925023147989 423.365490407017 82.55
endloop
endfacet
facet normal 0.0 0.0 1.0
outer loop
vertex 266.925023147989 423.365490407017 82.55
vertex 316.971098765392 433.598045332679 82.55
vertex 301.619923272894 464.032149113083 82.55
endloop
endfacet
facet normal 0.0 0.0 1.0
outer loop
vertex 301.619923272894 464.032149113083 82.55
vertex 316.971098765392 433.598045332679 82.55
vertex 344.482423272894 464.032149113083 82.55
endloop
endfacet
facet normal 0.0 0.0 1.0
outer loop
vertex 344.482423272894 464.032149113083 82.55
vertex 316.971098765392 433.598045332679 82.55
vertex 412.394417151215 343.50177656809 82.55
endloop
endfacet
facet normal 0.0 0.0 1.0
outer loop
vertex 344.482423272894 464.032149113083 82.55
vertex 412.394417151215 343.50177656809 82.55
vertex 344.482423272894 554.519649113083 82.55
endloop
endfacet
facet normal 0.0 0.0 1.0
outer loop
vertex 344.482423272894 554.519649113083 82.55
vertex 412.394417151215 343.50177656809 82.55
vertex 396.740937554459 450.185804597478 82.55
endloop
endfacet
facet normal 0.0 0.0 1.0
outer loop
vertex 396.740937554459 450.185804597478 82.55
vertex 412.394417151215 343.50177656809 82.55
vertex 426.29266787523 419.139240515467 82.55
endloop
endfacet
facet normal 0.0 0.0 1.0
outer loop
vertex 426.29266787523 419.139240515467 82.55
vertex 446.653197011492 364.724523595324 82.55
vertex 490.685541526808 480.431718217807 82.55
endloop
endfacet
facet normal 0.0 0.0 1.0
outer loop
vertex 446.653197011492 364.724523595324 82.55
vertex 426.29266787523 419.139240515467 82.55
vertex 446.653197011492 320.274523595324 82.55
endloop
endfacet
facet normal 0.0 0.0 1.0
outer loop
vertex 490.685541526808 480.431718217807 82.55
vertex 446.653197011492 364.724523595324 82.55
vertex 537.140697011492 364.724523595324 82.55
endloop
endfacet
facet normal 0.0 0.0 1.0
outer loop
vertex 617.522690977118 1.37290467171368 82.55
vertex 316.971098765392 233.283100709911 82.55
vertex 116.191690909448 1.37290467171368 82.55
endloop
endfacet
facet normal 0.0 0.0 1.0
outer loop
vertex 316.971098765392 233.283100709911 82.55
vertex 617.522690977118 1.37290467171368 82.55
vertex 373.527035553147 255.058241542699 82.55
endloop
endfacet
facet normal 0.0 0.0 1.0
outer loop
vertex 373.527035553147 255.058241542699 82.55
vertex 617.522690977118 1.37290467171368 82.55
vertex 435.721910859876 191.536532768608 82.55
endloop
endfacet
facet normal 0.0 0.0 1.0
outer loop
vertex 435.721910859876 191.536532768608 82.55
vertex 617.522690977118 1.37290467171368 82.55
vertex 469.751397703139 224.855215968642 82.55
endloop
endfacet
facet normal 0.0 0.0 1.0
outer loop
vertex 469.751397703139 224.855215968642 82.55
vertex 617.522690977118 1.37290467171368 82.55
vertex 537.140697011492 320.274523595324 82.55
endloop
endfacet
facet normal 0.0 0.0 1.0
outer loop
vertex 537.140697011492 320.274523595324 82.55
vertex 617.522690977118 1.37290467171368 82.55
vertex 537.140697011492 364.724523595324 82.55
endloop
endfacet
facet normal 0.0 0.0 1.0
outer loop
vertex 2.00439499088843 618.717664444253 82.55
vertex 301.619923272894 554.519649113083 82.55
vertex 617.522690977118 618.717664444253 82.55
endloop
endfacet
facet normal 0.0 0.0 1.0
outer loop
vertex 301.619923272894 554.519649113083 82.55
vertex 2.00439499088843 618.717664444253 82.55
vertex 203.181985648001 487.590196140287 82.55
endloop
endfacet
facet normal 0.0 0.0 1.0
outer loop
vertex 203.181985648001 487.590196140287 82.55
vertex 2.00439499088843 618.717664444253 82.55
vertex 171.633007393061 456.277826842047 82.55
endloop
endfacet
facet normal 0.0 0.0 1.0
outer loop
vertex 301.619923272894 554.519649113083 82.55
vertex 203.181985648001 487.590196140287 82.55
vertex 266.925023147989 423.365490407017 82.55
endloop
endfacet
facet normal 0.0 0.0 1.0
outer loop
vertex 301.619923272894 554.519649113083 82.55
vertex 266.925023147989 423.365490407017 82.55
vertex 301.619923272894 464.032149113083 82.55
endloop
endfacet
facet normal 0.0 0.0 1.0
outer loop
vertex 617.522690977118 618.717664444253 82.55
vertex 301.619923272894 554.519649113083 82.55
vertex 344.482423272894 554.519649113083 82.55
endloop
endfacet
facet normal 0.0 0.0 1.0
outer loop
vertex 617.522690977118 618.717664444253 82.55
vertex 344.482423272894 554.519649113083 82.55
vertex 461.133811206037 511.478282299818 82.55
endloop
endfacet
facet normal 0.0 0.0 1.0
outer loop
vertex 461.133811206037 511.478282299818 82.55
vertex 344.482423272894 554.519649113083 82.55
vertex 396.740937554459 450.185804597478 82.55
endloop
endfacet
facet normal 0.0 0.0 1.0
outer loop
vertex 617.522690977118 618.717664444253 82.55
vertex 461.133811206037 511.478282299818 82.55
vertex 490.685541526808 480.431718217807 82.55
endloop
endfacet
facet normal 0.0 0.0 1.0
outer loop
vertex 617.522690977118 618.717664444253 82.55
vertex 490.685541526808 480.431718217807 82.55
vertex 537.140697011492 364.724523595324 82.55
endloop
endfacet
facet normal 0.0 0.0 1.0
outer loop
vertex 617.522690977118 618.717664444253 82.55
vertex 537.140697011492 364.724523595324 82.55
vertex 617.522690977118 1.37290467171368 82.55
endloop
endfacet
facet normal 0.0 0.0 1.0
outer loop
vertex 373.527035553147 255.058241542699 82.55
vertex 412.394417151215 343.50177656809 82.55
vertex 316.971098765392 233.283100709911 82.55
endloop
endfacet
facet normal 0.0 0.0 1.0
outer loop
vertex 412.394417151215 343.50177656809 82.55
vertex 373.527035553147 255.058241542699 82.55
vertex 407.55652239641 288.376924742733 82.55
endloop
endfacet
facet normal 0.0 0.0 1.0
outer loop
vertex 412.394417151215 343.50177656809 82.55
vertex 407.55652239641 288.376924742733 82.55
vertex 469.751397703139 224.855215968642 82.55
endloop
endfacet
facet normal 0.0 0.0 1.0
outer loop
vertex 412.394417151215 343.50177656809 82.55
vertex 469.751397703139 224.855215968642 82.55
vertex 446.653197011492 320.274523595324 82.55
endloop
endfacet
facet normal 0.0 0.0 1.0
outer loop
vertex 412.394417151215 343.50177656809 82.55
vertex 446.653197011492 320.274523595324 82.55
vertex 426.29266787523 419.139240515467 82.55
endloop
endfacet
facet normal 0.0 0.0 1.0
outer loop
vertex 446.653197011492 320.274523595324 82.55
vertex 469.751397703139 224.855215968642 82.55
vertex 537.140697011492 320.274523595324 82.55
endloop
endfacet
facet normal 0.72711110644758 -0.686519802249415 -0.0
outer loop
vertex 316.971098765392 433.598045332679 44.45
vertex 212.905430006686 323.379369474499 82.55
vertex 212.905430006686 323.379369474499 44.45
endloop
endfacet
facet normal 0.72711110644758 -0.686519802249415 -0.0
outer loop
vertex 212.905430006686 323.379369474499 82.55
vertex 316.971098765392 433.598045332679 44.45
vertex 316.971098765392 433.598045332679 82.55
endloop
endfacet
facet normal -0.686519802249415 -0.72711110644758 0.0
outer loop
vertex 412.394417151215 343.50177656809 82.55
vertex 316.971098765392 433.598045332679 44.45
vertex 412.394417151215 343.50177656809 44.45
endloop
endfacet
facet normal -0.686519802249415 -0.72711110644758 0.0
outer loop
vertex 316.971098765392 433.598045332679 44.45
vertex 412.394417151215 343.50177656809 82.55
vertex 316.971098765392 433.598045332679 82.55
endloop
endfacet
facet normal -0.756026885177807 0.654540563210824 0.0
outer loop
vertex 412.394417151215 343.50177656809 82.55
vertex 316.971098765392 233.283100709911 44.45
vertex 316.971098765392 233.283100709911 82.55
endloop
endfacet
facet normal -0.756026885177807 0.654540563210824 0.0
outer loop
vertex 316.971098765392 233.283100709911 44.45
vertex 412.394417151215 343.50177656809 82.55
vertex 412.394417151215 343.50177656809 44.45
endloop
endfacet
facet normal 5.90448720657464e-032 6.38529868508277e-032 1.0
outer loop
vertex 314.901644312016 235.07475906229 1.282310385377e-029
vertex 316.971098765392 433.598045332679 2.39421427184354e-032
vertex 212.905430006686 323.379369474499 1.30914699273178e-029
endloop
endfacet
facet normal 5.90448720657464e-032 6.38529868508277e-032 1.0
outer loop
vertex 316.971098765392 433.598045332679 2.39421427184354e-032
vertex 314.901644312016 235.07475906229 1.282310385377e-029
vertex 412.394417151215 343.50177656809 2.39421427184354e-032
endloop
endfacet
facet normal 2.94175244177992e-032 9.15930910389721e-032 1.0
outer loop
vertex 412.394417151215 343.50177656809 2.39421427184354e-032
vertex 314.901644312016 235.07475906229 1.282310385377e-029
vertex 316.971098765392 233.283100709911 1.29263291534364e-029
endloop
endfacet
facet normal 9.62485443264425e-033 1.34829842019164e-032 1.0
outer loop
vertex 212.905430006686 323.379369474499 1.30914699273178e-029
vertex 2.00439499088843 618.717664444253 4.00741339852274e-029
vertex 2.00439499088843 100.00855858336 4.00741339852274e-029
endloop
endfacet
facet normal 9.62485443264425e-033 1.34829842019164e-032 1.0
outer loop
vertex 2.00439499088843 618.717664444253 4.00741339852274e-029
vertex 212.905430006686 323.379369474499 1.30914699273178e-029
vertex 171.633007393061 456.277826842047 0.0
endloop
endfacet
facet normal 9.62485443264425e-033 1.34829842019164e-032 1.0
outer loop
vertex 171.633007393061 456.277826842047 0.0
vertex 212.905430006686 323.379369474499 1.30914699273178e-029
vertex 235.376044893049 392.053121108777 0.0
endloop
endfacet
facet normal 9.62485443264425e-033 1.34829842019164e-032 1.0
outer loop
vertex 235.376044893049 392.053121108777 0.0
vertex 212.905430006686 323.379369474499 1.30914699273178e-029
vertex 316.971098765392 433.598045332679 2.39421427184354e-032
endloop
endfacet
facet normal 9.62485443264425e-033 1.34829842019164e-032 1.0
outer loop
vertex 235.376044893049 392.053121108777 0.0
vertex 316.971098765392 433.598045332679 2.39421427184354e-032
vertex 266.925023147989 423.365490407017 0.0
endloop
endfacet
facet normal 9.62485443264425e-033 1.34829842019164e-032 1.0
outer loop
vertex 266.925023147989 423.365490407017 0.0
vertex 316.971098765392 433.598045332679 2.39421427184354e-032
vertex 301.619923272894 464.032149113083 0.0
endloop
endfacet
facet normal 9.62485443264425e-033 1.34829842019164e-032 1.0
outer loop
vertex 301.619923272894 464.032149113083 0.0
vertex 316.971098765392 433.598045332679 2.39421427184354e-032
vertex 344.482423272894 464.032149113083 0.0
endloop
endfacet
facet normal 9.62485443264425e-033 1.34829842019164e-032 1.0
outer loop
vertex 344.482423272894 464.032149113083 0.0
vertex 316.971098765392 433.598045332679 2.39421427184354e-032
vertex 412.394417151215 343.50177656809 2.39421427184354e-032
endloop
endfacet
facet normal 9.62485443264425e-033 1.34829842019164e-032 1.0
outer loop
vertex 344.482423272894 464.032149113083 0.0
vertex 412.394417151215 343.50177656809 2.39421427184354e-032
vertex 344.482423272894 554.519649113083 0.0
endloop
endfacet
facet normal 9.62485443264425e-033 1.34829842019164e-032 1.0
outer loop
vertex 344.482423272894 554.519649113083 0.0
vertex 412.394417151215 343.50177656809 2.39421427184354e-032
vertex 396.740937554459 450.185804597478 0.0
endloop
endfacet
facet normal 9.62485443264425e-033 1.34829842019164e-032 1.0
outer loop
vertex 396.740937554459 450.185804597478 0.0
vertex 412.394417151215 343.50177656809 2.39421427184354e-032
vertex 426.29266787523 419.139240515467 0.0
endloop
endfacet
facet normal 9.62485443264425e-033 1.34829842019164e-032 1.0
outer loop
vertex 426.29266787523 419.139240515467 0.0
vertex 446.653197011492 364.724523595324 0.0
vertex 490.685541526808 480.431718217807 0.0
endloop
endfacet
facet normal 9.62485443264425e-033 1.34829842019164e-032 1.0
outer loop
vertex 446.653197011492 364.724523595324 0.0
vertex 426.29266787523 419.139240515467 0.0
vertex 446.653197011492 320.274523595324 0.0
endloop
endfacet
facet normal 9.62485443264425e-033 1.34829842019164e-032 1.0
outer loop
vertex 490.685541526808 480.431718217807 0.0
vertex 446.653197011492 364.724523595324 0.0
vertex 537.140697011492 364.724523595324 0.0
endloop
endfacet
facet normal 9.62485443264425e-033 1.34829842019164e-032 1.0
outer loop
vertex 617.522690977118 1.37290467171368 4.00741339852274e-029
vertex 316.971098765392 233.283100709911 1.29263291534364e-029
vertex 116.191690909448 1.37290467171368 4.00741339852274e-029
endloop
endfacet
facet normal 9.62485443264425e-033 1.34829842019164e-032 1.0
outer loop
vertex 316.971098765392 233.283100709911 1.29263291534364e-029
vertex 617.522690977118 1.37290467171368 4.00741339852274e-029
vertex 373.527035553147 255.058241542699 0.0
endloop
endfacet
facet normal 9.62485443264425e-033 1.34829842019164e-032 1.0
outer loop
vertex 373.527035553147 255.058241542699 0.0
vertex 617.522690977118 1.37290467171368 4.00741339852274e-029
vertex 435.721910859876 191.536532768608 0.0
endloop
endfacet
facet normal 9.62485443264425e-033 1.34829842019164e-032 1.0
outer loop
vertex 435.721910859876 191.536532768608 0.0
vertex 617.522690977118 1.37290467171368 4.00741339852274e-029
vertex 469.751397703139 224.855215968642 0.0
endloop
endfacet
facet normal 9.62485443264425e-033 1.34829842019164e-032 1.0
outer loop
vertex 469.751397703139 224.855215968642 0.0
vertex 617.522690977118 1.37290467171368 4.00741339852274e-029
vertex 537.140697011492 320.274523595324 0.0
endloop
endfacet
facet normal 9.62485443264425e-033 1.34829842019164e-032 1.0
outer loop
vertex 537.140697011492 320.274523595324 0.0
vertex 617.522690977118 1.37290467171368 4.00741339852274e-029
vertex 537.140697011492 364.724523595324 0.0
endloop
endfacet
facet normal 9.62485443264425e-033 1.34829842019164e-032 1.0
outer loop
vertex 2.00439499088843 618.717664444253 4.00741339852274e-029
vertex 301.619923272894 554.519649113083 0.0
vertex 617.522690977118 618.717664444253 4.00741339852274e-029
endloop
endfacet
facet normal 9.62485443264425e-033 1.34829842019164e-032 1.0
outer loop
vertex 301.619923272894 554.519649113083 0.0
vertex 2.00439499088843 618.717664444253 4.00741339852274e-029
vertex 203.181985648001 487.590196140287 0.0
endloop
endfacet
facet normal 9.62485443264425e-033 1.34829842019164e-032 1.0
outer loop
vertex 203.181985648001 487.590196140287 0.0
vertex 2.00439499088843 618.717664444253 4.00741339852274e-029
vertex 171.633007393061 456.277826842047 0.0
endloop
endfacet
facet normal 9.62485443264425e-033 1.34829842019164e-032 1.0
outer loop
vertex 301.619923272894 554.519649113083 0.0
vertex 203.181985648001 487.590196140287 0.0
vertex 266.925023147989 423.365490407017 0.0
endloop
endfacet
facet normal 9.62485443264425e-033 1.34829842019164e-032 1.0
outer loop
vertex 301.619923272894 554.519649113083 0.0
vertex 266.925023147989 423.365490407017 0.0
vertex 301.619923272894 464.032149113083 0.0
endloop
endfacet
facet normal 9.62485443264425e-033 1.34829842019164e-032 1.0
outer loop
vertex 617.522690977118 618.717664444253 4.00741339852274e-029
vertex 301.619923272894 554.519649113083 0.0
vertex 344.482423272894 554.519649113083 0.0
endloop
endfacet
facet normal 9.62485443264425e-033 1.34829842019164e-032 1.0
outer loop
vertex 617.522690977118 618.717664444253 4.00741339852274e-029
vertex 344.482423272894 554.519649113083 0.0
vertex 461.133811206037 511.478282299818 0.0
endloop
endfacet
facet normal 9.62485443264425e-033 1.34829842019164e-032 1.0
outer loop
vertex 461.133811206037 511.478282299818 0.0
vertex 344.482423272894 554.519649113083 0.0
vertex 396.740937554459 450.185804597478 0.0
endloop
endfacet
facet normal 9.62485443264425e-033 1.34829842019164e-032 1.0
outer loop
vertex 617.522690977118 618.717664444253 4.00741339852274e-029
vertex 461.133811206037 511.478282299818 0.0
vertex 490.685541526808 480.431718217807 0.0
endloop
endfacet
facet normal 9.62485443264425e-033 1.34829842019164e-032 1.0
outer loop
vertex 617.522690977118 618.717664444253 4.00741339852274e-029
vertex 490.685541526808 480.431718217807 0.0
vertex 537.140697011492 364.724523595324 0.0
endloop
endfacet
facet normal 9.62485443264425e-033 1.34829842019164e-032 1.0
outer loop
vertex 617.522690977118 618.717664444253 4.00741339852274e-029
vertex 537.140697011492 364.724523595324 0.0
vertex 617.522690977118 1.37290467171368 4.00741339852274e-029
endloop
endfacet
facet normal 9.62485443264425e-033 1.34829842019164e-032 1.0
outer loop
vertex 373.527035553147 255.058241542699 0.0
vertex 412.394417151215 343.50177656809 2.39421427184354e-032
vertex 316.971098765392 233.283100709911 1.29263291534364e-029
endloop
endfacet
facet normal 9.62485443264425e-033 1.34829842019164e-032 1.0
outer loop
vertex 412.394417151215 343.50177656809 2.39421427184354e-032
vertex 373.527035553147 255.058241542699 0.0
vertex 407.55652239641 288.376924742733 0.0
endloop
endfacet
facet normal 9.62485443264425e-033 1.34829842019164e-032 1.0
outer loop
vertex 412.394417151215 343.50177656809 2.39421427184354e-032
vertex 407.55652239641 288.376924742733 0.0
vertex 469.751397703139 224.855215968642 0.0
endloop
endfacet
facet normal 9.62485443264425e-033 1.34829842019164e-032 1.0
outer loop
vertex 412.394417151215 343.50177656809 2.39421427184354e-032
vertex 469.751397703139 224.855215968642 0.0
vertex 446.653197011492 320.274523595324 0.0
endloop
endfacet
facet normal 9.62485443264425e-033 1.34829842019164e-032 1.0
outer loop
vertex 412.394417151215 343.50177656809 2.39421427184354e-032
vertex 446.653197011492 320.274523595324 0.0
vertex 426.29266787523 419.139240515467 0.0
endloop
endfacet
facet normal 9.62485443264425e-033 1.34829842019164e-032 1.0
outer loop
vertex 446.653197011492 320.274523595324 0.0
vertex 469.751397703139 224.855215968642 0.0
vertex 537.140697011492 320.274523595324 0.0
endloop
endfacet
facet normal 0.72711110644758 -0.686519802249415 -0.0
outer loop
vertex 316.971098765392 433.598045332679 2.39421427184354e-032
vertex 212.905430006686 323.379369474499 44.45
vertex 212.905430006686 323.379369474499 1.30914699273178e-029
endloop
endfacet
facet normal 0.72711110644758 -0.686519802249415 -0.0
outer loop
vertex 212.905430006686 323.379369474499 44.45
vertex 316.971098765392 433.598045332679 2.39421427184354e-032
vertex 316.971098765392 433.598045332679 44.45
endloop
endfacet
endsolid PrestoLogo
