solid Z
facet normal 0.0 0.0 -1.0
outer loop
vertex 120.017011321264 53.4990651852906 12.5345665806377
vertex 120.017011321264 37.9699224791392 12.5345665806377
vertex 118.994786109936 45.7344938322149 12.5345665806377
endloop
endfacet
facet normal 0.0 0.0 -1.0
outer loop
vertex 120.017011321264 37.9699224791392 12.5345665806377
vertex 120.017011321264 53.4990651852906 12.5345665806377
vertex 123.014023996403 60.7344938322149 12.5345665806377
endloop
endfacet
facet normal 0.0 0.0 -1.0
outer loop
vertex 120.017011321264 37.9699224791392 12.5345665806377
vertex 123.014023996403 60.7344938322149 12.5345665806377
vertex 123.014023996403 30.7344938322149 12.5345665806377
endloop
endfacet
facet normal 0.0 0.0 -1.0
outer loop
vertex 123.014023996403 30.7344938322149 12.5345665806377
vertex 123.014023996403 60.7344938322149 12.5345665806377
vertex 127.78158267434 66.9476972678113 12.5345665806377
endloop
endfacet
facet normal 0.0 0.0 -1.0
outer loop
vertex 123.014023996403 30.7344938322149 12.5345665806377
vertex 127.78158267434 66.9476972678113 12.5345665806377
vertex 127.78158267434 24.5212903966184 12.5345665806377
endloop
endfacet
facet normal 0.0 0.0 -1.0
outer loop
vertex 127.78158267434 24.5212903966184 12.5345665806377
vertex 127.78158267434 66.9476972678113 12.5345665806377
vertex 133.994786109936 71.7152559457481 12.5345665806377
endloop
endfacet
facet normal 0.0 0.0 -1.0
outer loop
vertex 127.78158267434 24.5212903966184 12.5345665806377
vertex 133.994786109936 71.7152559457481 12.5345665806377
vertex 133.994786109936 19.7537317186817 12.5345665806377
endloop
endfacet
facet normal 0.0 0.0 -1.0
outer loop
vertex 133.994786109936 19.7537317186817 12.5345665806377
vertex 133.994786109936 71.7152559457481 12.5345665806377
vertex 141.230214756861 74.7122686208869 12.5345665806377
endloop
endfacet
facet normal 0.0 0.0 -1.0
outer loop
vertex 133.994786109936 19.7537317186817 12.5345665806377
vertex 141.230214756861 74.7122686208869 12.5345665806377
vertex 141.230214756861 16.7567190435428 12.5345665806377
endloop
endfacet
facet normal 0.0 0.0 -1.0
outer loop
vertex 141.230214756861 16.7567190435428 12.5345665806377
vertex 141.230214756861 74.7122686208869 12.5345665806377
vertex 148.994786109937 75.7344938322149 12.5345665806377
endloop
endfacet
facet normal 0.0 0.0 -1.0
outer loop
vertex 141.230214756861 16.7567190435428 12.5345665806377
vertex 148.994786109937 75.7344938322149 12.5345665806377
vertex 148.994786109937 15.7344938322148 12.5345665806377
endloop
endfacet
facet normal 0.0 0.0 -1.0
outer loop
vertex 148.994786109937 15.7344938322148 12.5345665806377
vertex 148.994786109937 75.7344938322149 12.5345665806377
vertex 156.759357463012 74.7122686208869 12.5345665806377
endloop
endfacet
facet normal 0.0 0.0 -1.0
outer loop
vertex 148.994786109937 15.7344938322148 12.5345665806377
vertex 156.759357463012 74.7122686208869 12.5345665806377
vertex 156.759357463012 16.7567190435428 12.5345665806377
endloop
endfacet
facet normal 0.0 0.0 -1.0
outer loop
vertex 156.759357463012 16.7567190435428 12.5345665806377
vertex 156.759357463012 74.7122686208869 12.5345665806377
vertex 163.994786109937 71.715255945748 12.5345665806377
endloop
endfacet
facet normal 0.0 0.0 -1.0
outer loop
vertex 156.759357463012 16.7567190435428 12.5345665806377
vertex 163.994786109937 71.715255945748 12.5345665806377
vertex 163.994786109937 19.7537317186817 12.5345665806377
endloop
endfacet
facet normal 0.0 0.0 -1.0
outer loop
vertex 163.994786109937 19.7537317186817 12.5345665806377
vertex 163.994786109937 71.715255945748 12.5345665806377
vertex 170.207989545533 66.9476972678113 12.5345665806377
endloop
endfacet
facet normal 0.0 0.0 -1.0
outer loop
vertex 163.994786109937 19.7537317186817 12.5345665806377
vertex 170.207989545533 66.9476972678113 12.5345665806377
vertex 170.207989545533 24.5212903966184 12.5345665806377
endloop
endfacet
facet normal 0.0 0.0 -1.0
outer loop
vertex 170.207989545533 24.5212903966184 12.5345665806377
vertex 170.207989545533 66.9476972678113 12.5345665806377
vertex 174.97554822347 60.7344938322149 12.5345665806377
endloop
endfacet
facet normal 0.0 0.0 -1.0
outer loop
vertex 170.207989545533 24.5212903966184 12.5345665806377
vertex 174.97554822347 60.7344938322149 12.5345665806377
vertex 174.97554822347 30.7344938322149 12.5345665806377
endloop
endfacet
facet normal 0.0 0.0 -1.0
outer loop
vertex 174.97554822347 30.7344938322149 12.5345665806377
vertex 174.97554822347 60.7344938322149 12.5345665806377
vertex 177.972560898609 53.4990651852906 12.5345665806377
endloop
endfacet
facet normal 0.0 0.0 -1.0
outer loop
vertex 174.97554822347 30.7344938322149 12.5345665806377
vertex 177.972560898609 53.4990651852906 12.5345665806377
vertex 177.972560898609 37.9699224791392 12.5345665806377
endloop
endfacet
facet normal 0.0 0.0 -1.0
outer loop
vertex 177.972560898609 37.9699224791392 12.5345665806377
vertex 177.972560898609 53.4990651852906 12.5345665806377
vertex 178.994786109937 45.7344938322149 12.5345665806377
endloop
endfacet
facet normal 0.0 0.0 1.0
outer loop
vertex 120.017011321264 37.9699224791392 17.5345665806377
vertex 120.017011321264 53.4990651852906 17.5345665806377
vertex 118.994786109936 45.7344938322149 17.5345665806377
endloop
endfacet
facet normal 0.0 0.0 1.0
outer loop
vertex 120.017011321264 53.4990651852906 17.5345665806377
vertex 120.017011321264 37.9699224791392 17.5345665806377
vertex 123.014023996403 30.7344938322149 17.5345665806377
endloop
endfacet
facet normal 0.0 0.0 1.0
outer loop
vertex 120.017011321264 53.4990651852906 17.5345665806377
vertex 123.014023996403 30.7344938322149 17.5345665806377
vertex 123.014023996403 60.7344938322149 17.5345665806377
endloop
endfacet
facet normal 0.0 0.0 1.0
outer loop
vertex 123.014023996403 60.7344938322149 17.5345665806377
vertex 123.014023996403 30.7344938322149 17.5345665806377
vertex 127.78158267434 24.5212903966184 17.5345665806377
endloop
endfacet
facet normal 0.0 0.0 1.0
outer loop
vertex 123.014023996403 60.7344938322149 17.5345665806377
vertex 127.78158267434 24.5212903966184 17.5345665806377
vertex 127.78158267434 66.9476972678113 17.5345665806377
endloop
endfacet
facet normal 0.0 0.0 1.0
outer loop
vertex 127.78158267434 66.9476972678113 17.5345665806377
vertex 127.78158267434 24.5212903966184 17.5345665806377
vertex 133.994786109936 19.7537317186817 17.5345665806377
endloop
endfacet
facet normal 0.0 0.0 1.0
outer loop
vertex 127.78158267434 66.9476972678113 17.5345665806377
vertex 133.994786109936 19.7537317186817 17.5345665806377
vertex 133.994786109936 71.7152559457481 17.5345665806377
endloop
endfacet
facet normal 0.0 0.0 1.0
outer loop
vertex 133.994786109936 71.7152559457481 17.5345665806377
vertex 133.994786109936 19.7537317186817 17.5345665806377
vertex 141.230214756861 16.7567190435428 17.5345665806377
endloop
endfacet
facet normal 0.0 0.0 1.0
outer loop
vertex 133.994786109936 71.7152559457481 17.5345665806377
vertex 141.230214756861 16.7567190435428 17.5345665806377
vertex 141.230214756861 74.7122686208869 17.5345665806377
endloop
endfacet
facet normal 0.0 0.0 1.0
outer loop
vertex 141.230214756861 74.7122686208869 17.5345665806377
vertex 141.230214756861 16.7567190435428 17.5345665806377
vertex 148.994786109937 15.7344938322148 17.5345665806377
endloop
endfacet
facet normal 0.0 0.0 1.0
outer loop
vertex 141.230214756861 74.7122686208869 17.5345665806377
vertex 148.994786109937 15.7344938322148 17.5345665806377
vertex 148.994786109937 75.7344938322149 17.5345665806377
endloop
endfacet
facet normal 0.0 0.0 1.0
outer loop
vertex 148.994786109937 75.7344938322149 17.5345665806377
vertex 148.994786109937 15.7344938322148 17.5345665806377
vertex 156.759357463012 16.7567190435428 17.5345665806377
endloop
endfacet
facet normal 0.0 0.0 1.0
outer loop
vertex 148.994786109937 75.7344938322149 17.5345665806377
vertex 156.759357463012 16.7567190435428 17.5345665806377
vertex 156.759357463012 74.7122686208869 17.5345665806377
endloop
endfacet
facet normal 0.0 0.0 1.0
outer loop
vertex 156.759357463012 74.7122686208869 17.5345665806377
vertex 156.759357463012 16.7567190435428 17.5345665806377
vertex 163.994786109937 19.7537317186817 17.5345665806377
endloop
endfacet
facet normal 0.0 0.0 1.0
outer loop
vertex 156.759357463012 74.7122686208869 17.5345665806377
vertex 163.994786109937 19.7537317186817 17.5345665806377
vertex 163.994786109937 71.715255945748 17.5345665806377
endloop
endfacet
facet normal 0.0 0.0 1.0
outer loop
vertex 163.994786109937 71.715255945748 17.5345665806377
vertex 163.994786109937 19.7537317186817 17.5345665806377
vertex 170.207989545533 24.5212903966184 17.5345665806377
endloop
endfacet
facet normal 0.0 0.0 1.0
outer loop
vertex 163.994786109937 71.715255945748 17.5345665806377
vertex 170.207989545533 24.5212903966184 17.5345665806377
vertex 170.207989545533 66.9476972678113 17.5345665806377
endloop
endfacet
facet normal 0.0 0.0 1.0
outer loop
vertex 170.207989545533 66.9476972678113 17.5345665806377
vertex 170.207989545533 24.5212903966184 17.5345665806377
vertex 174.97554822347 30.7344938322149 17.5345665806377
endloop
endfacet
facet normal 0.0 0.0 1.0
outer loop
vertex 170.207989545533 66.9476972678113 17.5345665806377
vertex 174.97554822347 30.7344938322149 17.5345665806377
vertex 174.97554822347 60.7344938322149 17.5345665806377
endloop
endfacet
facet normal 0.0 0.0 1.0
outer loop
vertex 174.97554822347 60.7344938322149 17.5345665806377
vertex 174.97554822347 30.7344938322149 17.5345665806377
vertex 177.972560898609 37.9699224791392 17.5345665806377
endloop
endfacet
facet normal 0.0 0.0 1.0
outer loop
vertex 174.97554822347 60.7344938322149 17.5345665806377
vertex 177.972560898609 37.9699224791392 17.5345665806377
vertex 177.972560898609 53.4990651852906 17.5345665806377
endloop
endfacet
facet normal 0.0 0.0 1.0
outer loop
vertex 177.972560898609 53.4990651852906 17.5345665806377
vertex 177.972560898609 37.9699224791392 17.5345665806377
vertex 178.994786109937 45.7344938322149 17.5345665806377
endloop
endfacet
facet normal 0.793353340291233 0.608761429008724 0.0
outer loop
vertex 170.207989545533 66.9476972678113 12.5345665806377
vertex 174.97554822347 60.7344938322149 17.5345665806377
vertex 174.97554822347 60.7344938322149 12.5345665806377
endloop
endfacet
facet normal 0.793353340291233 0.608761429008724 0.0
outer loop
vertex 174.97554822347 60.7344938322149 17.5345665806377
vertex 170.207989545533 66.9476972678113 12.5345665806377
vertex 170.207989545533 66.9476972678113 17.5345665806377
endloop
endfacet
facet normal 0.608761429008722 0.793353340291234 0.0
outer loop
vertex 163.994786109937 71.715255945748 17.5345665806377
vertex 170.207989545533 66.9476972678113 12.5345665806377
vertex 163.994786109937 71.715255945748 12.5345665806377
endloop
endfacet
facet normal 0.608761429008722 0.793353340291234 0.0
outer loop
vertex 170.207989545533 66.9476972678113 12.5345665806377
vertex 163.994786109937 71.715255945748 17.5345665806377
vertex 170.207989545533 66.9476972678113 17.5345665806377
endloop
endfacet
facet normal 0.382683432365096 0.923879532511284 0.0
outer loop
vertex 156.759357463012 74.7122686208869 17.5345665806377
vertex 163.994786109937 71.715255945748 12.5345665806377
vertex 156.759357463012 74.7122686208869 12.5345665806377
endloop
endfacet
facet normal 0.382683432365096 0.923879532511284 0.0
outer loop
vertex 163.994786109937 71.715255945748 12.5345665806377
vertex 156.759357463012 74.7122686208869 17.5345665806377
vertex 163.994786109937 71.715255945748 17.5345665806377
endloop
endfacet
facet normal 0.130526192220055 0.99144486137381 0.0
outer loop
vertex 148.994786109937 75.7344938322149 17.5345665806377
vertex 156.759357463012 74.7122686208869 12.5345665806377
vertex 148.994786109937 75.7344938322149 12.5345665806377
endloop
endfacet
facet normal 0.130526192220055 0.99144486137381 0.0
outer loop
vertex 156.759357463012 74.7122686208869 12.5345665806377
vertex 148.994786109937 75.7344938322149 17.5345665806377
vertex 156.759357463012 74.7122686208869 17.5345665806377
endloop
endfacet
facet normal -0.130526192220055 0.99144486137381 0.0
outer loop
vertex 141.230214756861 74.7122686208869 17.5345665806377
vertex 148.994786109937 75.7344938322149 12.5345665806377
vertex 141.230214756861 74.7122686208869 12.5345665806377
endloop
endfacet
facet normal -0.130526192220055 0.99144486137381 0.0
outer loop
vertex 148.994786109937 75.7344938322149 12.5345665806377
vertex 141.230214756861 74.7122686208869 17.5345665806377
vertex 148.994786109937 75.7344938322149 17.5345665806377
endloop
endfacet
facet normal -0.38268343236507 0.923879532511295 0.0
outer loop
vertex 133.994786109936 71.7152559457481 17.5345665806377
vertex 141.230214756861 74.7122686208869 12.5345665806377
vertex 133.994786109936 71.7152559457481 12.5345665806377
endloop
endfacet
facet normal -0.38268343236507 0.923879532511295 0.0
outer loop
vertex 141.230214756861 74.7122686208869 12.5345665806377
vertex 133.994786109936 71.7152559457481 17.5345665806377
vertex 141.230214756861 74.7122686208869 17.5345665806377
endloop
endfacet
facet normal -0.608761429008731 0.793353340291228 0.0
outer loop
vertex 127.78158267434 66.9476972678113 17.5345665806377
vertex 133.994786109936 71.7152559457481 12.5345665806377
vertex 127.78158267434 66.9476972678113 12.5345665806377
endloop
endfacet
facet normal -0.608761429008731 0.793353340291228 0.0
outer loop
vertex 133.994786109936 71.7152559457481 12.5345665806377
vertex 127.78158267434 66.9476972678113 17.5345665806377
vertex 133.994786109936 71.7152559457481 17.5345665806377
endloop
endfacet
facet normal -0.793353340291233 0.608761429008724 0.0
outer loop
vertex 127.78158267434 66.9476972678113 17.5345665806377
vertex 123.014023996403 60.7344938322149 12.5345665806377
vertex 123.014023996403 60.7344938322149 17.5345665806377
endloop
endfacet
facet normal -0.793353340291233 0.608761429008724 0.0
outer loop
vertex 123.014023996403 60.7344938322149 12.5345665806377
vertex 127.78158267434 66.9476972678113 17.5345665806377
vertex 127.78158267434 66.9476972678113 12.5345665806377
endloop
endfacet
facet normal -0.923879532511288 0.382683432365088 0.0
outer loop
vertex 123.014023996403 60.7344938322149 17.5345665806377
vertex 120.017011321264 53.4990651852906 12.5345665806377
vertex 120.017011321264 53.4990651852906 17.5345665806377
endloop
endfacet
facet normal -0.923879532511288 0.382683432365088 0.0
outer loop
vertex 120.017011321264 53.4990651852906 12.5345665806377
vertex 123.014023996403 60.7344938322149 17.5345665806377
vertex 123.014023996403 60.7344938322149 12.5345665806377
endloop
endfacet
facet normal -0.99144486137381 0.130526192220055 0.0
outer loop
vertex 120.017011321264 53.4990651852906 17.5345665806377
vertex 118.994786109936 45.7344938322149 12.5345665806377
vertex 118.994786109936 45.7344938322149 17.5345665806377
endloop
endfacet
facet normal -0.99144486137381 0.130526192220055 0.0
outer loop
vertex 118.994786109936 45.7344938322149 12.5345665806377
vertex 120.017011321264 53.4990651852906 17.5345665806377
vertex 120.017011321264 53.4990651852906 12.5345665806377
endloop
endfacet
facet normal -0.99144486137381 -0.130526192220055 -0.0
outer loop
vertex 118.994786109936 45.7344938322149 17.5345665806377
vertex 120.017011321264 37.9699224791392 12.5345665806377
vertex 120.017011321264 37.9699224791392 17.5345665806377
endloop
endfacet
facet normal -0.99144486137381 -0.130526192220055 -0.0
outer loop
vertex 120.017011321264 37.9699224791392 12.5345665806377
vertex 118.994786109936 45.7344938322149 17.5345665806377
vertex 118.994786109936 45.7344938322149 12.5345665806377
endloop
endfacet
facet normal -0.923879532511288 -0.382683432365088 -0.0
outer loop
vertex 120.017011321264 37.9699224791392 17.5345665806377
vertex 123.014023996403 30.7344938322149 12.5345665806377
vertex 123.014023996403 30.7344938322149 17.5345665806377
endloop
endfacet
facet normal -0.923879532511288 -0.382683432365088 -0.0
outer loop
vertex 123.014023996403 30.7344938322149 12.5345665806377
vertex 120.017011321264 37.9699224791392 17.5345665806377
vertex 120.017011321264 37.9699224791392 12.5345665806377
endloop
endfacet
facet normal -0.793353340291239 -0.608761429008716 -0.0
outer loop
vertex 123.014023996403 30.7344938322149 17.5345665806377
vertex 127.78158267434 24.5212903966184 12.5345665806377
vertex 127.78158267434 24.5212903966184 17.5345665806377
endloop
endfacet
facet normal -0.793353340291239 -0.608761429008716 -0.0
outer loop
vertex 127.78158267434 24.5212903966184 12.5345665806377
vertex 123.014023996403 30.7344938322149 17.5345665806377
vertex 123.014023996403 30.7344938322149 12.5345665806377
endloop
endfacet
facet normal -0.608761429008716 -0.793353340291239 -0.0
outer loop
vertex 133.994786109936 19.7537317186817 17.5345665806377
vertex 127.78158267434 24.5212903966184 12.5345665806377
vertex 133.994786109936 19.7537317186817 12.5345665806377
endloop
endfacet
facet normal -0.608761429008716 -0.793353340291239 -0.0
outer loop
vertex 127.78158267434 24.5212903966184 12.5345665806377
vertex 133.994786109936 19.7537317186817 17.5345665806377
vertex 127.78158267434 24.5212903966184 17.5345665806377
endloop
endfacet
facet normal -0.382683432365084 -0.923879532511289 -0.0
outer loop
vertex 141.230214756861 16.7567190435428 17.5345665806377
vertex 133.994786109936 19.7537317186817 12.5345665806377
vertex 141.230214756861 16.7567190435428 12.5345665806377
endloop
endfacet
facet normal -0.382683432365084 -0.923879532511289 -0.0
outer loop
vertex 133.994786109936 19.7537317186817 12.5345665806377
vertex 141.230214756861 16.7567190435428 17.5345665806377
vertex 133.994786109936 19.7537317186817 17.5345665806377
endloop
endfacet
facet normal -0.130526192220054 -0.99144486137381 -0.0
outer loop
vertex 148.994786109937 15.7344938322148 17.5345665806377
vertex 141.230214756861 16.7567190435428 12.5345665806377
vertex 148.994786109937 15.7344938322148 12.5345665806377
endloop
endfacet
facet normal -0.130526192220054 -0.99144486137381 -0.0
outer loop
vertex 141.230214756861 16.7567190435428 12.5345665806377
vertex 148.994786109937 15.7344938322148 17.5345665806377
vertex 141.230214756861 16.7567190435428 17.5345665806377
endloop
endfacet
facet normal 0.130526192220054 -0.99144486137381 0.0
outer loop
vertex 156.759357463012 16.7567190435428 17.5345665806377
vertex 148.994786109937 15.7344938322148 12.5345665806377
vertex 156.759357463012 16.7567190435428 12.5345665806377
endloop
endfacet
facet normal 0.130526192220054 -0.99144486137381 0.0
outer loop
vertex 148.994786109937 15.7344938322148 12.5345665806377
vertex 156.759357463012 16.7567190435428 17.5345665806377
vertex 148.994786109937 15.7344938322148 17.5345665806377
endloop
endfacet
facet normal 0.38268343236509 -0.923879532511287 0.0
outer loop
vertex 163.994786109937 19.7537317186817 17.5345665806377
vertex 156.759357463012 16.7567190435428 12.5345665806377
vertex 163.994786109937 19.7537317186817 12.5345665806377
endloop
endfacet
facet normal 0.38268343236509 -0.923879532511287 0.0
outer loop
vertex 156.759357463012 16.7567190435428 12.5345665806377
vertex 163.994786109937 19.7537317186817 17.5345665806377
vertex 156.759357463012 16.7567190435428 17.5345665806377
endloop
endfacet
facet normal 0.608761429008722 -0.793353340291234 0.0
outer loop
vertex 170.207989545533 24.5212903966184 17.5345665806377
vertex 163.994786109937 19.7537317186817 12.5345665806377
vertex 170.207989545533 24.5212903966184 12.5345665806377
endloop
endfacet
facet normal 0.608761429008722 -0.793353340291234 0.0
outer loop
vertex 163.994786109937 19.7537317186817 12.5345665806377
vertex 170.207989545533 24.5212903966184 17.5345665806377
vertex 163.994786109937 19.7537317186817 17.5345665806377
endloop
endfacet
facet normal 0.793353340291239 -0.608761429008716 0.0
outer loop
vertex 174.97554822347 30.7344938322149 12.5345665806377
vertex 170.207989545533 24.5212903966184 17.5345665806377
vertex 170.207989545533 24.5212903966184 12.5345665806377
endloop
endfacet
facet normal 0.793353340291239 -0.608761429008716 0.0
outer loop
vertex 170.207989545533 24.5212903966184 17.5345665806377
vertex 174.97554822347 30.7344938322149 12.5345665806377
vertex 174.97554822347 30.7344938322149 17.5345665806377
endloop
endfacet
facet normal 0.923879532511282 -0.382683432365103 0.0
outer loop
vertex 177.972560898609 37.9699224791392 12.5345665806377
vertex 174.97554822347 30.7344938322149 17.5345665806377
vertex 174.97554822347 30.7344938322149 12.5345665806377
endloop
endfacet
facet normal 0.923879532511282 -0.382683432365103 0.0
outer loop
vertex 174.97554822347 30.7344938322149 17.5345665806377
vertex 177.972560898609 37.9699224791392 12.5345665806377
vertex 177.972560898609 37.9699224791392 17.5345665806377
endloop
endfacet
facet normal 0.99144486137381 -0.130526192220055 0.0
outer loop
vertex 178.994786109937 45.7344938322149 12.5345665806377
vertex 177.972560898609 37.9699224791392 17.5345665806377
vertex 177.972560898609 37.9699224791392 12.5345665806377
endloop
endfacet
facet normal 0.99144486137381 -0.130526192220055 0.0
outer loop
vertex 177.972560898609 37.9699224791392 17.5345665806377
vertex 178.994786109937 45.7344938322149 12.5345665806377
vertex 178.994786109937 45.7344938322149 17.5345665806377
endloop
endfacet
facet normal 0.99144486137381 0.130526192220055 0.0
outer loop
vertex 177.972560898609 53.4990651852906 12.5345665806377
vertex 178.994786109937 45.7344938322149 17.5345665806377
vertex 178.994786109937 45.7344938322149 12.5345665806377
endloop
endfacet
facet normal 0.99144486137381 0.130526192220055 0.0
outer loop
vertex 178.994786109937 45.7344938322149 17.5345665806377
vertex 177.972560898609 53.4990651852906 12.5345665806377
vertex 177.972560898609 53.4990651852906 17.5345665806377
endloop
endfacet
facet normal 0.923879532511281 0.382683432365103 0.0
outer loop
vertex 174.97554822347 60.7344938322149 12.5345665806377
vertex 177.972560898609 53.4990651852906 17.5345665806377
vertex 177.972560898609 53.4990651852906 12.5345665806377
endloop
endfacet
facet normal 0.923879532511281 0.382683432365103 0.0
outer loop
vertex 177.972560898609 53.4990651852906 17.5345665806377
vertex 174.97554822347 60.7344938322149 12.5345665806377
vertex 174.97554822347 60.7344938322149 17.5345665806377
endloop
endfacet
facet normal -0.0 -0.0 -1.0
outer loop
vertex 154.415813629612 52.4407210099416 17.5345665806377
vertex 141.848763821183 50.1929560035559 17.5345665806377
vertex 141.848763821183 52.4407210099416 17.5345665806377
endloop
endfacet
facet normal -0.0 -0.0 -1.0
outer loop
vertex 141.848763821183 50.1929560035559 17.5345665806377
vertex 154.415813629612 52.4407210099416 17.5345665806377
vertex 151.567793195385 50.1929560035559 17.5345665806377
endloop
endfacet
facet normal -0.0 -0.0 -1.0
outer loop
vertex 151.567793195385 50.1929560035559 17.5345665806377
vertex 141.38899370624 33.4241182002353 17.5345665806377
vertex 141.38899370624 35.7740543432749 17.5345665806377
endloop
endfacet
facet normal -0.0 -0.0 -1.0
outer loop
vertex 141.38899370624 33.4241182002353 17.5345665806377
vertex 151.567793195385 50.1929560035559 17.5345665806377
vertex 144.122071611732 35.671883206621 17.5345665806377
endloop
endfacet
facet normal -0.0 -0.0 -1.0
outer loop
vertex 144.122071611732 35.671883206621 17.5345665806377
vertex 151.567793195385 50.1929560035559 17.5345665806377
vertex 154.415813629612 50.1546418273107 17.5345665806377
endloop
endfacet
facet normal -0.0 -0.0 -1.0
outer loop
vertex 154.415813629612 50.1546418273107 17.5345665806377
vertex 151.567793195385 50.1929560035559 17.5345665806377
vertex 154.415813629612 52.4407210099416 17.5345665806377
endloop
endfacet
facet normal -0.0 -0.0 -1.0
outer loop
vertex 144.122071611732 35.671883206621 17.5345665806377
vertex 154.671241471247 33.4241182002353 17.5345665806377
vertex 141.38899370624 33.4241182002353 17.5345665806377
endloop
endfacet
facet normal -0.0 -0.0 -1.0
outer loop
vertex 154.671241471247 33.4241182002353 17.5345665806377
vertex 144.122071611732 35.671883206621 17.5345665806377
vertex 154.671241471247 35.671883206621 17.5345665806377
endloop
endfacet
facet normal 0.0 0.0 1.0
outer loop
vertex 154.671241471247 33.4241182002353 19.5345665806377
vertex 141.38899370624 35.7740543432749 19.5345665806377
vertex 141.38899370624 33.4241182002353 19.5345665806377
endloop
endfacet
facet normal 0.0 0.0 1.0
outer loop
vertex 141.38899370624 35.7740543432749 19.5345665806377
vertex 154.671241471247 33.4241182002353 19.5345665806377
vertex 144.122071611732 35.671883206621 19.5345665806377
endloop
endfacet
facet normal 0.0 0.0 1.0
outer loop
vertex 144.122071611732 35.671883206621 19.5345665806377
vertex 154.671241471247 33.4241182002353 19.5345665806377
vertex 154.671241471247 35.671883206621 19.5345665806377
endloop
endfacet
facet normal 0.0 0.0 1.0
outer loop
vertex 144.122071611732 35.671883206621 19.5345665806377
vertex 151.567793195385 50.1929560035559 19.5345665806377
vertex 141.38899370624 35.7740543432749 19.5345665806377
endloop
endfacet
facet normal 0.0 0.0 1.0
outer loop
vertex 151.567793195385 50.1929560035559 19.5345665806377
vertex 144.122071611732 35.671883206621 19.5345665806377
vertex 154.415813629612 50.1546418273107 19.5345665806377
endloop
endfacet
facet normal 0.0 0.0 1.0
outer loop
vertex 151.567793195385 50.1929560035559 19.5345665806377
vertex 141.848763821183 52.4407210099416 19.5345665806377
vertex 141.848763821183 50.1929560035559 19.5345665806377
endloop
endfacet
facet normal 0.0 0.0 1.0
outer loop
vertex 141.848763821183 52.4407210099416 19.5345665806377
vertex 151.567793195385 50.1929560035559 19.5345665806377
vertex 154.415813629612 52.4407210099416 19.5345665806377
endloop
endfacet
facet normal 0.0 0.0 1.0
outer loop
vertex 154.415813629612 52.4407210099416 19.5345665806377
vertex 151.567793195385 50.1929560035559 19.5345665806377
vertex 154.415813629612 50.1546418273107 19.5345665806377
endloop
endfacet
facet normal 0.0 -1.0 0.0
outer loop
vertex 154.671241471247 33.4241182002353 19.5345665806377
vertex 141.38899370624 33.4241182002353 17.5345665806377
vertex 154.671241471247 33.4241182002353 17.5345665806377
endloop
endfacet
facet normal 0.0 -1.0 0.0
outer loop
vertex 141.38899370624 33.4241182002353 17.5345665806377
vertex 154.671241471247 33.4241182002353 19.5345665806377
vertex 141.38899370624 33.4241182002353 19.5345665806377
endloop
endfacet
facet normal -1.0 0.0 0.0
outer loop
vertex 141.38899370624 35.7740543432749 19.5345665806377
vertex 141.38899370624 33.4241182002353 17.5345665806377
vertex 141.38899370624 33.4241182002353 19.5345665806377
endloop
endfacet
facet normal -1.0 0.0 0.0
outer loop
vertex 141.38899370624 33.4241182002353 17.5345665806377
vertex 141.38899370624 35.7740543432749 19.5345665806377
vertex 141.38899370624 35.7740543432749 17.5345665806377
endloop
endfacet
facet normal -0.816947809107446 0.576711606606408 0.0
outer loop
vertex 151.567793195385 50.1929560035559 19.5345665806377
vertex 141.38899370624 35.7740543432749 17.5345665806377
vertex 141.38899370624 35.7740543432749 19.5345665806377
endloop
endfacet
facet normal -0.816947809107446 0.576711606606408 0.0
outer loop
vertex 141.38899370624 35.7740543432749 17.5345665806377
vertex 151.567793195385 50.1929560035559 19.5345665806377
vertex 151.567793195385 50.1929560035559 17.5345665806377
endloop
endfacet
facet normal 0.0 -1.0 0.0
outer loop
vertex 151.567793195385 50.1929560035559 19.5345665806377
vertex 141.848763821183 50.1929560035559 17.5345665806377
vertex 151.567793195385 50.1929560035559 17.5345665806377
endloop
endfacet
facet normal 0.0 -1.0 0.0
outer loop
vertex 141.848763821183 50.1929560035559 17.5345665806377
vertex 151.567793195385 50.1929560035559 19.5345665806377
vertex 141.848763821183 50.1929560035559 19.5345665806377
endloop
endfacet
facet normal -1.0 0.0 0.0
outer loop
vertex 141.848763821183 52.4407210099416 19.5345665806377
vertex 141.848763821183 50.1929560035559 17.5345665806377
vertex 141.848763821183 50.1929560035559 19.5345665806377
endloop
endfacet
facet normal -1.0 0.0 0.0
outer loop
vertex 141.848763821183 50.1929560035559 17.5345665806377
vertex 141.848763821183 52.4407210099416 19.5345665806377
vertex 141.848763821183 52.4407210099416 17.5345665806377
endloop
endfacet
facet normal 0.0 1.0 0.0
outer loop
vertex 141.848763821183 52.4407210099416 19.5345665806377
vertex 154.415813629612 52.4407210099416 17.5345665806377
vertex 141.848763821183 52.4407210099416 17.5345665806377
endloop
endfacet
facet normal 0.0 1.0 0.0
outer loop
vertex 154.415813629612 52.4407210099416 17.5345665806377
vertex 141.848763821183 52.4407210099416 19.5345665806377
vertex 154.415813629612 52.4407210099416 19.5345665806377
endloop
endfacet
facet normal 1.0 0.0 0.0
outer loop
vertex 154.415813629612 52.4407210099416 17.5345665806377
vertex 154.415813629612 50.1546418273107 19.5345665806377
vertex 154.415813629612 50.1546418273107 17.5345665806377
endloop
endfacet
facet normal 1.0 0.0 0.0
outer loop
vertex 154.415813629612 50.1546418273107 19.5345665806377
vertex 154.415813629612 52.4407210099416 17.5345665806377
vertex 154.415813629612 52.4407210099416 19.5345665806377
endloop
endfacet
facet normal 0.815091089184544 -0.579332820002418 0.0
outer loop
vertex 154.415813629612 50.1546418273107 17.5345665806377
vertex 144.122071611732 35.671883206621 19.5345665806377
vertex 144.122071611732 35.671883206621 17.5345665806377
endloop
endfacet
facet normal 0.815091089184544 -0.579332820002418 0.0
outer loop
vertex 144.122071611732 35.671883206621 19.5345665806377
vertex 154.415813629612 50.1546418273107 17.5345665806377
vertex 154.415813629612 50.1546418273107 19.5345665806377
endloop
endfacet
facet normal 0.0 1.0 0.0
outer loop
vertex 144.122071611732 35.671883206621 19.5345665806377
vertex 154.671241471247 35.671883206621 17.5345665806377
vertex 144.122071611732 35.671883206621 17.5345665806377
endloop
endfacet
facet normal 0.0 1.0 0.0
outer loop
vertex 154.671241471247 35.671883206621 17.5345665806377
vertex 144.122071611732 35.671883206621 19.5345665806377
vertex 154.671241471247 35.671883206621 19.5345665806377
endloop
endfacet
facet normal 1.0 0.0 0.0
outer loop
vertex 154.671241471247 35.671883206621 17.5345665806377
vertex 154.671241471247 33.4241182002353 19.5345665806377
vertex 154.671241471247 33.4241182002353 17.5345665806377
endloop
endfacet
facet normal 1.0 0.0 0.0
outer loop
vertex 154.671241471247 33.4241182002353 19.5345665806377
vertex 154.671241471247 35.671883206621 17.5345665806377
vertex 154.671241471247 35.671883206621 19.5345665806377
endloop
endfacet
endsolid Z
